<?xml version="1.0" encoding="utf-8"?>
<!-- Generator: Adobe Illustrator 16.0.0, SVG Export Plug-In . SVG Version: 6.00 Build 0)  -->
<!DOCTYPE svg PUBLIC "-//W3C//DTD SVG 1.1//EN" "http://www.w3.org/Graphics/SVG/1.1/DTD/svg11.dtd">
<svg version="1.1" id="Layer_1" xmlns="http://www.w3.org/2000/svg" xmlns:xlink="http://www.w3.org/1999/xlink" x="0px" y="0px"
	 width="258.968px" height="79.955px" viewBox="0 0 258.968 79.955" enable-background="new 0 0 258.968 79.955"
	 xml:space="preserve">
<g>
	<polygon fill="#F7A800" points="76.798,36.769 67.549,36.769 67.549,34.738 88.202,34.738 88.202,36.769 78.981,36.769 
		78.981,54.951 76.798,54.951 	"/>
	<polygon fill="#F7A800" points="91.391,34.738 109.507,34.738 109.507,36.769 93.574,36.769 93.574,43.526 108.934,43.526 
		108.934,45.435 93.574,45.435 93.574,52.921 109.643,52.921 109.643,54.951 91.391,54.951 	"/>
	<path fill="#F7A800" d="M134.93,48.163v0.849c0,2.424-0.218,3.484-0.928,4.394c-0.681,0.909-1.582,1.333-3.246,1.545
		c-1.037,0.091-4.147,0.212-6.602,0.212c-6.576,0-8.185-0.303-9.522-1.848c-1.173-1.334-1.446-2.94-1.446-8.455
		c0-6.303,0.382-7.909,2.237-9.213c1.391-0.969,2.892-1.121,10.395-1.121c4.556,0,6.138,0.242,7.257,1.152
		c1.228,0.939,1.609,2.212,1.691,5.424h-2.128v-0.515c0-3.576-0.764-3.94-8.403-3.94c-8.73,0-8.784,0.031-8.784,8.213
		c0,4.606,0.19,6.061,0.954,6.939c0.873,1.001,2.265,1.243,7.366,1.243c8.185,0,9.031-0.334,9.031-3.728v-1.151H134.93z"/>
	<polygon fill="#F7A800" points="139.291,34.738 141.474,34.738 141.474,43.587 158.525,43.587 158.525,34.738 160.708,34.738 
		160.708,54.951 158.525,54.951 158.525,45.496 141.474,45.496 141.474,54.951 139.291,54.951 	"/>
	<path fill="#FFFFFF" d="M188.968,47.345c-0.027,2.939-0.109,3.939-0.491,4.849c-0.71,1.727-2.183,2.546-5.02,2.757
		c-1.119,0.122-3.302,0.152-6.93,0.152c-5.238,0-6.93-0.273-8.403-1.333c-1.801-1.273-2.319-3.394-2.319-9.395
		c0-5.333,0.545-7.242,2.455-8.454c1.637-1.061,3.383-1.334,8.485-1.334c6.794,0,8.267,0.152,9.822,1
		c1.473,0.819,2.155,2.606,2.155,5.576v0.667h-5.293c-0.108-2.213-0.518-2.394-5.32-2.394c-4.529,0-5.347,0.121-6.029,0.788
		c-0.655,0.666-0.791,1.485-0.791,4.757c0,4.849,0.409,5.213,5.729,5.213c4.12,0,4.72-0.031,5.484-0.394
		c0.791-0.364,1.091-1,1.091-2.455H188.968z"/>
	<path fill="#FFFFFF" d="M213.355,34.829c2.81,0.576,4.174,2.182,4.556,5.425c0.109,0.817,0.164,2.454,0.164,4.909
		c0,4.879-0.464,6.848-2.019,8.273c-1.092,1.03-2.62,1.515-5.266,1.636c-0.982,0.06-3.41,0.091-5.184,0.091
		c-4.338,0-6.547-0.091-7.639-0.333c-2.019-0.394-3.192-1.243-3.874-2.728c-0.709-1.485-0.873-2.97-0.873-7.395
		c0-3.394,0.055-4.243,0.382-5.605c0.519-2.152,1.583-3.303,3.628-3.97c1.529-0.485,3.193-0.606,7.995-0.606
		C210.463,34.526,212.072,34.587,213.355,34.829 M199.768,40.193c-0.737,0.636-0.955,1.636-0.955,4.545
		c0,2.97,0.218,4.061,0.9,4.698c0.737,0.666,1.638,0.787,5.811,0.787c4.775,0,5.757-0.181,6.385-1.151
		c0.518-0.728,0.654-1.758,0.654-4.455c0-5.091-0.081-5.152-6.902-5.152C201.596,39.465,200.477,39.617,199.768,40.193"/>
	<rect x="223.117" y="34.738" fill="#FFFFFF" width="5.539" height="20.213"/>
	<polygon fill="#FFFFFF" points="233.946,34.738 242.76,34.738 253.78,50.102 253.645,34.738 258.884,34.738 258.884,54.951 
		249.988,54.951 239.13,39.738 239.267,54.951 233.946,54.951 	"/>
	<path fill="#F7A800" d="M33.844,0.004C15.242-0.204,0.082,7.085,0,16.197c-0.069,7.68,10.472,14.391,25.635,16.321
		c0.016,0.003,0.032,0.003,0.049,0.003c0.197,0,0.368-0.149,0.401-0.358c0.035-0.226-0.106-0.441-0.32-0.487
		c-9.71-2.079-15.956-6.651-15.911-11.647c0.03-3.275,2.752-6.355,7.666-8.673c5.014-2.365,11.693-3.614,18.751-3.56
		c14.505,0.143,26.255,5.864,26.193,12.751c-0.019,2.232-1.322,4.419-3.766,6.325c-0.171,0.133-0.215,0.382-0.102,0.57
		c0.115,0.19,0.349,0.254,0.535,0.15c5.291-2.935,8.224-6.745,8.26-10.73C67.472,7.75,52.424,0.188,33.844,0.004"/>
	<path fill="#F7A800" d="M39.065,73.618c-7.82,0-14.16-11.522-14.16-25.737c0-14.214,6.34-25.737,14.16-25.737
		c3.69,0,7.049,2.567,9.569,6.77c-3.212-7.946-8.387-13.106-14.227-13.106c-9.746,0-17.647,14.359-17.647,32.073
		c0,17.714,7.901,32.073,17.647,32.073c5.84,0,11.015-5.16,14.227-13.106C46.115,71.051,42.755,73.618,39.065,73.618"/>
	<path fill="#FFFFFF" d="M59.093,60.813c-0.149-0.062-0.319,0.01-0.387,0.164c-1.866,4.23-4.617,6.657-7.548,6.657
		c-5.361,0-9.724-8.034-9.724-17.908c0-9.876,4.363-17.91,9.724-17.91c2.931,0,5.682,2.427,7.548,6.657
		c0.068,0.153,0.238,0.226,0.387,0.165c0.15-0.06,0.229-0.233,0.182-0.394c-2.35-7.89-6.906-12.792-11.889-12.792
		c-7.435,0-13.484,10.889-13.484,24.274c0,13.384,6.049,24.273,13.484,24.273c4.983,0,9.539-4.902,11.889-12.793
		C59.322,61.044,59.243,60.873,59.093,60.813"/>
	<polygon fill="#FFFFFF" points="78.076,72.534 76.814,72.534 76.814,67.063 74.912,67.063 74.912,65.959 80.018,65.959 
		80.018,67.073 78.076,67.073 	"/>
	<polygon fill="#FFFFFF" points="87.217,72.534 85.956,72.534 85.956,69.725 82.91,69.725 82.91,72.534 81.648,72.534 
		81.648,65.959 82.91,65.959 82.91,68.65 85.956,68.65 85.956,65.959 87.217,65.959 	"/>
	<polygon fill="#FFFFFF" points="90.496,68.709 93.561,68.709 93.561,69.636 90.496,69.636 90.496,71.489 93.759,71.489 
		93.759,72.534 89.234,72.534 89.234,65.959 93.729,65.959 93.729,67.004 90.496,67.004 	"/>
	<polygon fill="#FFFFFF" points="100.399,68.789 103.327,68.789 103.327,69.833 100.399,69.833 100.399,72.534 99.137,72.534 
		99.137,65.959 103.484,65.959 103.484,67.004 100.399,67.004 	"/>
	<path fill="#FFFFFF" d="M110.704,65.959v4.376c0,0.631-0.068,1.095-0.207,1.361c-0.217,0.433-0.709,0.759-1.262,0.838
		c-0.305,0.039-0.689,0.059-1.163,0.059c-1.123,0-1.567-0.059-1.972-0.257c-0.65-0.315-0.857-0.768-0.857-1.932v-4.445h1.262v4.445
		c0,0.967,0.187,1.105,1.478,1.105c1.283,0,1.459-0.138,1.459-1.154v-4.396H110.704z"/>
	<polygon fill="#FFFFFF" points="115.49,72.534 114.228,72.534 114.228,67.063 112.326,67.063 112.326,65.959 117.431,65.959 
		117.431,67.073 115.49,67.073 	"/>
	<path fill="#FFFFFF" d="M124.424,65.959v4.376c0,0.631-0.068,1.095-0.207,1.361c-0.217,0.433-0.709,0.759-1.262,0.838
		c-0.305,0.039-0.689,0.059-1.163,0.059c-1.123,0-1.567-0.059-1.972-0.257c-0.65-0.315-0.857-0.768-0.857-1.932v-4.445h1.262v4.445
		c0,0.967,0.187,1.105,1.478,1.105c1.283,0,1.459-0.138,1.459-1.154v-4.396H124.424z"/>
	<path fill="#FFFFFF" d="M126.579,65.959h3.233c1.587,0,2.129,0.493,2.129,1.952c0,1.32-0.227,1.675-1.183,1.862v0.05
		c0.759,0.049,1.114,0.453,1.114,1.281v1.43H130.6v-1.183c0-0.414-0.059-0.631-0.236-0.799c-0.178-0.157-0.356-0.207-0.749-0.207
		h-1.775v2.189h-1.261V65.959z M129.605,69.271c0.403,0,0.67-0.069,0.817-0.217c0.188-0.167,0.238-0.355,0.238-0.907
		c0-0.926-0.159-1.104-0.967-1.104h-1.853v2.228H129.605z"/>
	<polygon fill="#FFFFFF" points="135.05,68.709 138.116,68.709 138.116,69.636 135.05,69.636 135.05,71.489 138.314,71.489 
		138.314,72.534 133.789,72.534 133.789,65.959 138.283,65.959 138.283,67.004 135.05,67.004 	"/>
	<path fill="#FFFFFF" d="M148.188,66.156c0.542,0.257,0.847,0.71,0.975,1.42c0.06,0.315,0.079,0.68,0.079,1.606
		c0,1.617-0.069,2.08-0.364,2.553c-0.286,0.453-0.848,0.749-1.518,0.808c-0.335,0.03-0.71,0.05-1.144,0.05
		c-1.035,0-1.537-0.089-1.961-0.345c-0.454-0.286-0.69-0.67-0.809-1.341c-0.049-0.315-0.069-0.631-0.069-1.439
		c0-1.804,0.069-2.287,0.414-2.77c0.296-0.414,0.838-0.69,1.449-0.749c0.316-0.03,0.72-0.049,1.183-0.049
		C147.339,65.9,147.802,65.969,148.188,66.156 M144.756,67.605c-0.088,0.286-0.099,0.463-0.099,1.922
		c0,0.976,0.031,1.252,0.168,1.538c0.168,0.365,0.444,0.444,1.529,0.444c1.074,0,1.32-0.109,1.488-0.621
		c0.108-0.325,0.118-0.464,0.118-1.834c0-1.134-0.019-1.33-0.168-1.626c-0.177-0.365-0.443-0.444-1.517-0.444
		C145.181,66.984,144.924,67.093,144.756,67.605"/>
	<polygon fill="#FFFFFF" points="152.333,68.789 155.261,68.789 155.261,69.833 152.333,69.833 152.333,72.534 151.071,72.534 
		151.071,65.959 155.417,65.959 155.417,67.004 152.333,67.004 	"/>
	<path fill="#F7A800" d="M165.932,70.188v0.217c0,1.094-0.128,1.498-0.621,1.833c-0.434,0.296-0.809,0.355-2.248,0.355
		c-1.113,0-1.537-0.089-1.961-0.424c-0.503-0.404-0.671-0.946-0.7-2.247c-0.02-1.035-0.02-1.035-0.02-1.203
		c0-1.291,0.138-1.823,0.571-2.237c0.503-0.473,0.977-0.582,2.613-0.582c0.927,0,1.271,0.059,1.627,0.276
		c0.374,0.237,0.6,0.671,0.65,1.272c0.02,0.217,0.02,0.325,0.029,0.7h-1.252V67.98c-0.019-0.857-0.197-0.996-1.251-0.996
		c-0.848,0-1.212,0.07-1.4,0.257c-0.236,0.237-0.276,0.453-0.276,1.705c0,1.173,0.02,1.528,0.079,1.853
		c0.118,0.562,0.414,0.71,1.43,0.71c1.251,0,1.488-0.158,1.488-1.006c0-0.098,0-0.177-0.01-0.315H165.932z"/>
	<path fill="#F7A800" d="M167.711,65.959h3.233c1.587,0,2.129,0.493,2.129,1.952c0,1.32-0.227,1.675-1.183,1.862v0.05
		c0.759,0.049,1.115,0.453,1.115,1.281v1.43h-1.272v-1.183c0-0.414-0.059-0.631-0.237-0.799c-0.177-0.157-0.355-0.207-0.749-0.207
		h-1.775v2.189h-1.261V65.959z M170.737,69.271c0.404,0,0.67-0.069,0.818-0.217c0.188-0.167,0.237-0.355,0.237-0.907
		c0-0.926-0.158-1.104-0.966-1.104h-1.854v2.228H170.737z"/>
	<path fill="#F7A800" d="M178.076,70.021v2.514h-1.262v-2.514l-2.366-4.061h1.44l0.996,1.735c0.068,0.128,0.236,0.433,0.561,1.064
		h0.029c0.395-0.749,0.455-0.847,0.573-1.064l1.005-1.735h1.459L178.076,70.021z"/>
	<path fill="#F7A800" d="M182.063,65.959h2.661c1.134,0,1.282,0.01,1.627,0.158c0.69,0.275,0.966,0.877,0.966,2.05
		c0,0.769-0.079,1.212-0.286,1.547c-0.276,0.464-0.7,0.661-1.459,0.68c-0.236,0.01-0.256,0.01-0.778,0.02h-1.469v2.12h-1.262V65.959
		z M184.744,69.331c1.114,0,1.292-0.148,1.292-1.094c0-0.808-0.089-1.055-0.435-1.173c-0.147-0.049-0.265-0.059-0.728-0.059h-1.548
		v2.326H184.744z"/>
	<polygon fill="#F7A800" points="191.727,72.534 190.465,72.534 190.465,67.063 188.563,67.063 188.563,65.959 193.669,65.959 
		193.669,67.073 191.727,67.073 	"/>
	<path fill="#F7A800" d="M199.796,66.156c0.542,0.257,0.847,0.71,0.975,1.42c0.059,0.315,0.079,0.68,0.079,1.606
		c0,1.617-0.069,2.08-0.365,2.553c-0.286,0.453-0.848,0.749-1.517,0.808c-0.336,0.03-0.71,0.05-1.144,0.05
		c-1.035,0-1.538-0.089-1.962-0.345c-0.453-0.286-0.689-0.67-0.809-1.341c-0.048-0.315-0.068-0.631-0.068-1.439
		c0-1.804,0.068-2.287,0.414-2.77c0.296-0.414,0.838-0.69,1.449-0.749c0.316-0.03,0.719-0.049,1.183-0.049
		C198.947,65.9,199.411,65.969,199.796,66.156 M196.365,67.605c-0.089,0.286-0.099,0.463-0.099,1.922
		c0,0.976,0.03,1.252,0.168,1.538c0.167,0.365,0.444,0.444,1.528,0.444c1.074,0,1.321-0.109,1.488-0.621
		c0.108-0.325,0.118-0.464,0.118-1.834c0-1.134-0.019-1.33-0.167-1.626c-0.178-0.365-0.443-0.444-1.518-0.444
		C196.789,66.984,196.533,67.093,196.365,67.605"/>
	<path fill="#F7A800" d="M207.981,70.188v0.217c0,1.094-0.128,1.498-0.621,1.833c-0.434,0.296-0.808,0.355-2.247,0.355
		c-1.114,0-1.538-0.089-1.962-0.424c-0.502-0.404-0.67-0.946-0.699-2.247c-0.021-1.035-0.021-1.035-0.021-1.203
		c0-1.291,0.139-1.823,0.572-2.237c0.503-0.473,0.976-0.582,2.613-0.582c0.927,0,1.271,0.059,1.626,0.276
		c0.375,0.237,0.601,0.671,0.65,1.272c0.021,0.217,0.021,0.325,0.03,0.7h-1.252V67.98c-0.019-0.857-0.197-0.996-1.252-0.996
		c-0.847,0-1.212,0.07-1.399,0.257c-0.237,0.237-0.276,0.453-0.276,1.705c0,1.173,0.019,1.528,0.079,1.853
		c0.118,0.562,0.414,0.71,1.429,0.71c1.251,0,1.488-0.158,1.488-1.006c0-0.098,0-0.177-0.01-0.315H207.981z"/>
	<path fill="#F7A800" d="M215.221,65.959v4.376c0,0.631-0.068,1.095-0.207,1.361c-0.217,0.433-0.709,0.759-1.262,0.838
		c-0.305,0.039-0.689,0.059-1.163,0.059c-1.123,0-1.567-0.059-1.972-0.257c-0.65-0.315-0.857-0.768-0.857-1.932v-4.445h1.262v4.445
		c0,0.967,0.187,1.105,1.478,1.105c1.283,0,1.459-0.138,1.459-1.154v-4.396H215.221z"/>
	<path fill="#F7A800" d="M217.376,65.959h3.233c1.587,0,2.129,0.493,2.129,1.952c0,1.32-0.227,1.675-1.183,1.862v0.05
		c0.759,0.049,1.114,0.453,1.114,1.281v1.43h-1.272v-1.183c0-0.414-0.059-0.631-0.236-0.799c-0.178-0.157-0.356-0.207-0.749-0.207
		h-1.775v2.189h-1.261V65.959z M220.402,69.271c0.403,0,0.67-0.069,0.817-0.217c0.188-0.167,0.238-0.355,0.238-0.907
		c0-0.926-0.159-1.104-0.967-1.104h-1.853v2.228H220.402z"/>
	<path fill="#F7A800" d="M224.725,65.959h3.233c1.587,0,2.129,0.493,2.129,1.952c0,1.32-0.227,1.675-1.183,1.862v0.05
		c0.759,0.049,1.114,0.453,1.114,1.281v1.43h-1.272v-1.183c0-0.414-0.059-0.631-0.236-0.799c-0.178-0.157-0.356-0.207-0.749-0.207
		h-1.775v2.189h-1.261V65.959z M227.75,69.271c0.403,0,0.67-0.069,0.817-0.217c0.188-0.167,0.238-0.355,0.238-0.907
		c0-0.926-0.159-1.104-0.967-1.104h-1.853v2.228H227.75z"/>
	<polygon fill="#F7A800" points="233.196,68.709 236.262,68.709 236.262,69.636 233.196,69.636 233.196,71.489 236.46,71.489 
		236.46,72.534 231.934,72.534 231.934,65.959 236.429,65.959 236.429,67.004 233.196,67.004 	"/>
	<path fill="#F7A800" d="M244.487,72.534h-2.119l-1.883-3.608c-0.118-0.236-0.247-0.521-0.572-1.262l-0.285-0.62h-0.04
		c0.04,1.143,0.04,1.143,0.04,1.715v3.775h-1.243v-6.575h2.11l1.715,3.332c0.197,0.404,0.542,1.114,1.025,2.149h0.039
		c-0.039-1.124-0.039-1.124-0.039-1.696v-3.785h1.252V72.534z"/>
	<path fill="#F7A800" d="M251.935,70.188v0.217c0,1.094-0.129,1.498-0.621,1.833c-0.435,0.296-0.809,0.355-2.247,0.355
		c-1.114,0-1.538-0.089-1.962-0.424c-0.502-0.404-0.67-0.946-0.699-2.247c-0.021-1.035-0.021-1.035-0.021-1.203
		c0-1.291,0.14-1.823,0.572-2.237c0.503-0.473,0.976-0.582,2.613-0.582c0.927,0,1.271,0.059,1.626,0.276
		c0.375,0.237,0.601,0.671,0.649,1.272c0.021,0.217,0.021,0.325,0.03,0.7h-1.252V67.98c-0.019-0.857-0.197-0.996-1.252-0.996
		c-0.847,0-1.212,0.07-1.399,0.257c-0.236,0.237-0.275,0.453-0.275,1.705c0,1.173,0.019,1.528,0.079,1.853
		c0.118,0.562,0.414,0.71,1.429,0.71c1.251,0,1.488-0.158,1.488-1.006c0-0.098,0-0.177-0.011-0.315H251.935z"/>
	<path fill="#F7A800" d="M256.533,70.021v2.514h-1.263v-2.514l-2.365-4.061h1.439l0.996,1.735c0.068,0.128,0.236,0.433,0.562,1.064
		h0.028c0.396-0.749,0.455-0.847,0.573-1.064l1.005-1.735h1.459L256.533,70.021z"/>
</g>
</svg>
