<?xml version="1.0" encoding="utf-8"?>
<!-- Generator: Adobe Illustrator 16.0.0, SVG Export Plug-In . SVG Version: 6.00 Build 0)  -->
<!DOCTYPE svg PUBLIC "-//W3C//DTD SVG 1.1//EN" "http://www.w3.org/Graphics/SVG/1.1/DTD/svg11.dtd">
<svg version="1.1" id="Layer_1" xmlns="http://www.w3.org/2000/svg" xmlns:xlink="http://www.w3.org/1999/xlink" x="0px" y="0px"
	 width="423.167px" height="113px" viewBox="0 0 423.167 113" enable-background="new 0 0 423.167 113" xml:space="preserve">
<g>
	<g>
		<path fill="#FFFFFF" d="M41.009,45.931H25.456v51.842h-8.977V45.931H7.5v-7.207h8.978v-8.726c0-6.827,1.559-11.463,4.678-13.907
			c3.118-2.444,7.881-3.668,14.288-3.668c0.506,0,0.99,0.021,1.455,0.063c0.462,0.043,0.904,0.063,1.327,0.063
			c0.421,0,0.864,0.021,1.328,0.063c0.462,0.044,0.948,0.063,1.454,0.063v7.334c-1.097-0.168-2.171-0.252-3.225-0.252H34.56
			c-3.457,0-5.838,0.78-7.144,2.34c-1.308,1.56-1.96,3.94-1.96,7.144v9.483h15.553V45.931z"/>
		<path fill="#FFFFFF" d="M97.149,97.772H88.93v-7.839c-2.528,3.793-5.417,6.175-8.661,7.144c-3.246,0.969-7.103,1.453-11.57,1.453
			c-7.081,0-12.265-1.643-15.553-4.931c-3.287-3.287-4.931-8.472-4.931-15.552V38.724h8.978v39.324
			c0,5.141,0.885,8.641,2.655,10.493c1.77,1.855,5.353,2.782,10.748,2.782c6.996,0,11.674-1.306,14.035-3.92
			c2.359-2.612,3.54-7.248,3.54-13.909V38.724h8.978V97.772z"/>
		<rect x="112.321" y="13.435" fill="#FFFFFF" width="8.978" height="84.338"/>
		<path fill="#FFFFFF" d="M186.542,79.817c0,8.683-2.319,13.953-6.954,15.805c-4.637,1.855-10.706,2.782-18.208,2.782
			c-11.044,0-18.208-2.106-21.496-6.322c-3.287-4.214-4.931-11.674-4.931-22.38c0-10.284,1.265-18.165,3.793-23.646
			c2.529-5.478,9.651-8.217,21.369-8.217c11.043,0,18.186,1.854,21.432,5.563c3.245,3.711,4.91,11.045,4.995,22.001v4.426h-42.485
			c0,6.575,0.695,11.844,2.086,15.806c1.391,3.964,6.048,5.942,13.972,5.942h2.403h2.718c0.968,0,2.002-0.083,3.098-0.253
			c1.265-0.083,2.486-0.293,3.667-0.632c1.18-0.336,2.191-0.8,3.035-1.391c0.841-0.59,1.41-1.369,1.707-2.34
			c0.294-0.968,0.484-1.961,0.569-2.972c0.083-0.336,0.126-0.715,0.126-1.137v-1.139v-1.896H186.542z M175.1,48.333
			c-1.729-2.443-6.471-3.667-14.225-3.667c-6.828,0-11.317,1.265-13.466,3.794c-2.15,2.528-3.225,7.376-3.225,14.54h33.508
			C177.691,55.666,176.827,50.779,175.1,48.333"/>
		<path fill="#FFFFFF" d="M250.017,79.817c0,8.683-2.318,13.953-6.953,15.805c-4.638,1.855-10.706,2.782-18.208,2.782
			c-11.044,0-18.209-2.106-21.496-6.322c-3.287-4.214-4.931-11.674-4.931-22.38c0-10.284,1.265-18.165,3.792-23.646
			c2.529-5.478,9.651-8.217,21.369-8.217c11.043,0,18.187,1.854,21.433,5.563c3.244,3.711,4.909,11.045,4.994,22.001v4.426h-42.484
			c0,6.575,0.694,11.844,2.086,15.806c1.392,3.964,6.048,5.942,13.972,5.942h2.402h2.719c0.968,0,2.002-0.083,3.099-0.253
			c1.265-0.083,2.485-0.293,3.666-0.632c1.181-0.336,2.191-0.8,3.035-1.391c0.842-0.59,1.41-1.369,1.707-2.34
			c0.294-0.968,0.484-1.961,0.569-2.972c0.083-0.336,0.126-0.715,0.126-1.137v-1.139v-1.896H250.017z M238.575,48.333
			c-1.729-2.443-6.471-3.667-14.226-3.667c-6.827,0-11.316,1.265-13.466,3.794c-2.15,2.528-3.225,7.376-3.225,14.54h33.508
			C241.167,55.666,240.301,50.779,238.575,48.333"/>
		<polygon fill="#FFFFFF" points="286.307,67.047 307.423,97.772 296.675,97.772 281.375,74.001 266.076,97.772 255.456,97.772 
			276.824,67.047 257.73,38.724 267.718,38.724 281.375,60.345 294.779,38.724 305.146,38.724 		"/>
		<rect x="314.503" y="86.266" fill="#FFFFFF" width="9.987" height="11.507"/>
		<path fill="#FFFFFF" d="M348.641,23.171h-8.977v-9.736h8.977V23.171z M348.641,97.772h-8.977V38.724h8.977V97.772z"/>
		<path fill="#FFFFFF" d="M367.543,44.666c2.992-4.636,9.883-6.954,20.673-6.954c11.296,0,18.63,1.96,22.002,5.879
			c3.371,3.92,5.058,11.443,5.058,22.571c0,9.694-1.032,17.534-3.098,23.518c-2.066,5.986-9.168,8.978-21.306,8.978
			c-10.539,0-17.809-1.644-21.813-4.932c-4.004-3.287-6.005-10.451-6.005-21.496v-5.563
			C363.055,56.637,364.549,49.303,367.543,44.666 M372.159,71.472v2.719c0,0.97,0.041,1.918,0.126,2.845
			c0.168,2.445,0.507,4.764,1.013,6.955c0.506,2.192,1.306,3.879,2.402,5.058c0.926,0.843,2.063,1.434,3.414,1.77
			c1.347,0.339,2.782,0.55,4.299,0.633h0.948h0.947h4.048c5.14,0,9.083-0.716,11.82-2.149c2.739-1.432,4.278-4.932,4.616-10.495
			c0.083-1.18,0.147-2.316,0.19-3.414c0.042-1.094,0.063-2.232,0.063-3.414c0.083-1.095,0.127-2.212,0.127-3.351v-3.352
			c0-7.247-0.677-12.432-2.022-15.552c-1.352-3.117-5.648-4.678-12.898-4.678h-1.896c-7.673,0-12.456,1.182-14.353,3.54
			c-1.896,2.36-2.845,7.713-2.845,16.058v1.897V71.472z"/>
	</g>
</g>
</svg>
