<?xml version="1.0" encoding="UTF-8"?>
<svg width="87px" height="65px" viewBox="0 0 87 65" version="1.1" xmlns="http://www.w3.org/2000/svg" xmlns:xlink="http://www.w3.org/1999/xlink">
    <!-- Generator: sketchtool 48.1 (47250) - http://www.bohemiancoding.com/sketch -->
    <title>E19823A4-4787-443E-8E33-D5B7DC5E5257</title>
    <desc>Created with sketchtool.</desc>
    <defs>
        <path d="M8.4225,0.633272727 C8.4225,0.633272727 2.1725,2.71227273 0.9225,3.08781818 L0.9225,26.406 L34.6725,26.406 L34.6725,0.633272727" id="path-1"></path>
        <path d="M8.4225,0.633272727 C8.4225,0.633272727 2.1725,2.71227273 0.9225,3.08781818 L0.9225,26.406 L34.6725,26.406 L34.6725,0.633272727" id="path-3"></path>
        <path d="M8.4225,0.633272727 C8.4225,0.633272727 2.1725,2.71227273 0.9225,3.08781818 L0.9225,26.406 L34.6725,26.406 L34.6725,0.633272727" id="path-5"></path>
        <path d="M8.4225,0.633272727 C8.4225,0.633272727 2.1725,2.71227273 0.9225,3.08781818 L0.9225,26.406 L34.6725,26.406 L34.6725,0.633272727" id="path-7"></path>
        <path d="M8.4225,0.633272727 C8.4225,0.633272727 2.1725,2.71227273 0.9225,3.08781818 L0.9225,26.406 L34.6725,26.406 L34.6725,0.633272727 L8.4225,0.633272727 Z" id="path-9"></path>
        <path d="M8.4225,0.633272727 C8.4225,0.633272727 2.1725,2.71227273 0.9225,3.08781818 L0.9225,26.406 L34.6725,26.406 L34.6725,0.633272727 L8.4225,0.633272727 Z" id="path-11"></path>
        <polygon id="path-13" points="0.0348142857 0.19125 14.7883857 0.19125 14.7883857 14.5725 0.0348142857 14.5725"></polygon>
    </defs>
    <g id="Web-Copy-12" stroke="none" stroke-width="1" fill="none" fill-rule="evenodd" transform="translate(-431.000000, -311.000000)">
        <g id="Page-1" transform="translate(432.000000, 311.000000)">
            <path d="M16,34 L16,23" id="Stroke-1" stroke="#FFFFFF" stroke-width="1.4112"></path>
            <g id="Group-6" transform="translate(16.000000, 21.000000)" stroke="#FFFFFF" stroke-width="1.4112">
                <path d="M27.1926281,6.1447931 L34.8573469,6.1447931 C36.9036281,6.1447931 38.5635656,7.78737931 38.5635656,9.81496552 L38.5635656,30.9223793 C38.5635656,32.9487586 36.9036281,34.5925517 34.8573469,34.5925517 L18.4042219,34.5925517" id="Stroke-2"></path>
                <path d="M23.3667281,0.245241379 L3.26710312,0.245241379 C1.60838437,0.245241379 0.262884375,1.57765517 0.262884375,3.22024138 C0.262884375,3.79834483 0.429853125,4.33782759 0.717478125,4.79403448 C1.24763437,5.63524138 2.19216563,6.19524138 3.26710312,6.19524138 L26.9461969,6.19524138 L26.9461969,3.78989655 C26.9461969,1.83231034 25.3435406,0.245241379 23.3667281,0.245241379 Z" id="Stroke-4"></path>
            </g>
            <g id="Group-25" transform="translate(55.000000, 27.000000)">
                <g id="Group-9">
                    <mask id="mask-2" fill="white">
                        <use xlink:href="#path-1"></use>
                    </mask>
                    <g id="Clip-8"></g>
                    <polyline id="Stroke-7" stroke="#FFFFFF" stroke-width="1.4112" stroke-linecap="round" stroke-linejoin="round" mask="url(#mask-2)" points="0.86275 18.5201591 30.2415 11.1540682 16.479 3.20993182 -12.93725 10.7355682 -2.986 19.4847955 0.86275 18.5201591"></polyline>
                </g>
                <g id="Group-12">
                    <mask id="mask-4" fill="white">
                        <use xlink:href="#path-3"></use>
                    </mask>
                    <g id="Clip-11"></g>
                    <polyline id="Stroke-10" stroke="#FFFFFF" stroke-width="1.4112" stroke-linecap="round" stroke-linejoin="round" mask="url(#mask-4)" points="30.303875 11.3964545 30.222625 17.9464091 -2.999875 26.1654545 -12.947375 17.3045455 -13.184875 10.9411364"></polyline>
                </g>
                <g id="Group-15">
                    <mask id="mask-6" fill="white">
                        <use xlink:href="#path-5"></use>
                    </mask>
                    <g id="Clip-14"></g>
                    <polyline id="Stroke-13" stroke="#FFFFFF" stroke-width="1.4112" stroke-linecap="round" stroke-linejoin="round" mask="url(#mask-6)" points="-12.79275 14.3374909 -2.98525 22.6363091 29.84975 14.4430364"></polyline>
                </g>
                <g id="Group-18">
                    <mask id="mask-8" fill="white">
                        <use xlink:href="#path-7"></use>
                    </mask>
                    <g id="Clip-17"></g>
                    <path d="M-3.139125,19.4893364 L-3.237875,26.1104727" id="Stroke-16" stroke="#FFFFFF" stroke-width="1.4112" stroke-linecap="round" stroke-linejoin="round" mask="url(#mask-8)"></path>
                </g>
                <g id="Group-21">
                    <mask id="mask-10" fill="white">
                        <use xlink:href="#path-9"></use>
                    </mask>
                    <g id="Clip-20"></g>
                    <polygon id="Fill-19" fill="#F7C649" mask="url(#mask-10)" points="-0.62675 7.64271818 9.5445 16.0323545 9.652 23.0584909 16.387 21.3685364 16.357 14.1595364 5.51825 6.02394545"></polygon>
                </g>
                <g id="Group-24">
                    <mask id="mask-12" fill="white">
                        <use xlink:href="#path-11"></use>
                    </mask>
                    <g id="Clip-23"></g>
                    <polygon id="Stroke-22" stroke="#FFFFFF" stroke-width="1.4112" mask="url(#mask-12)" points="-0.62675 7.64271818 9.5445 16.0323545 9.652 23.0584909 16.387 21.3685364 16.357 14.1595364 5.51825 6.02394545"></polygon>
                </g>
            </g>
            <g id="Group-30" transform="translate(7.000000, 33.000000)" fill="#FFFFFF">
                <path d="M21.84576,20.0379077 C18.22992,20.0379077 15.51804,18.7812923 15.51804,17.6452923 C15.51804,16.5092923 18.22992,15.2526769 21.84576,15.2526769 C25.4616,15.2526769 28.17348,16.5092923 28.17348,17.6452923 C28.17348,18.7812923 25.4616,20.0379077 21.84576,20.0379077 Z M28.17348,21.2342154 C28.17348,22.3702154 25.4616,23.6268308 21.84576,23.6268308 C18.22992,23.6268308 15.51804,22.3702154 15.51804,21.2342154 L15.51804,19.6194462 C16.84484,20.5757538 19.13388,21.2342154 21.84576,21.2342154 C24.55764,21.2342154 26.84668,20.6360615 28.17348,19.6194462 L28.17348,21.2342154 Z M28.17348,24.8231385 C28.17348,25.9591385 25.4616,27.2157538 21.84576,27.2157538 C18.22992,27.2157538 15.51804,25.9591385 15.51804,24.8231385 L15.51804,23.2083692 C16.84484,24.1646769 19.13388,24.8231385 21.84576,24.8231385 C24.55764,24.8231385 26.84668,24.2249846 28.17348,23.2083692 L28.17348,24.8231385 Z M28.17348,28.4108308 C28.17348,29.5480615 25.4616,30.8034462 21.84576,30.8034462 C18.22992,30.8034462 15.51804,29.5480615 15.51804,28.4108308 L15.51804,26.7960615 C16.84484,27.7536 19.13388,28.4108308 21.84576,28.4108308 C24.55764,28.4108308 26.84668,27.8126769 28.17348,26.7960615 L28.17348,28.4108308 Z M21.84576,14.0563692 C17.56776,14.0563692 14.31276,15.6120615 14.31276,17.6452923 L14.31276,28.4108308 C14.31276,30.4452923 17.56776,31.9997538 21.84576,31.9997538 C26.12376,31.9997538 29.37876,30.4452923 29.37876,28.4108308 L29.37876,17.6452923 C29.37876,15.6120615 26.12376,14.0563692 21.84576,14.0563692 Z" id="Fill-26"></path>
                <path d="M7.589728,6.60504615 C3.973888,6.60504615 1.262008,5.34843077 1.262008,4.21243077 C1.262008,3.07643077 3.973888,1.81981538 7.589728,1.81981538 C11.205568,1.81981538 13.917448,3.07643077 13.917448,4.21243077 C13.917448,5.34843077 11.205568,6.60504615 7.589728,6.60504615 Z M13.917448,7.80135385 C13.917448,8.93735385 11.205568,10.1939692 7.589728,10.1939692 C3.973888,10.1939692 1.262008,8.93735385 1.262008,7.80135385 L1.262008,6.18658462 C2.588808,7.14289231 4.877848,7.80135385 7.589728,7.80135385 C10.301608,7.80135385 12.590648,7.2032 13.917448,6.18658462 L13.917448,7.80135385 Z M13.917448,11.3902769 C13.917448,12.5262769 11.205568,13.7828923 7.589728,13.7828923 C3.973888,13.7828923 1.262008,12.5262769 1.262008,11.3902769 L1.262008,9.77550769 C2.588808,10.7318154 4.877848,11.3902769 7.589728,11.3902769 C10.301608,11.3902769 12.590648,10.7921231 13.917448,9.77550769 L13.917448,11.3902769 Z M13.917448,14.9779692 C13.917448,16.1152 11.205568,17.3705846 7.589728,17.3705846 C3.973888,17.3705846 1.262008,16.1152 1.262008,14.9779692 L1.262008,13.3632 C2.588808,14.3207385 4.877848,14.9779692 7.589728,14.9779692 C10.301608,14.9779692 12.590648,14.3798154 13.917448,13.3632 L13.917448,14.9779692 Z M7.589728,0.623507692 C3.311728,0.623507692 0.056728,2.1792 0.056728,4.21243077 L0.056728,14.9779692 C0.056728,17.0124308 3.311728,18.5668923 7.589728,18.5668923 C11.867728,18.5668923 15.122728,17.0124308 15.122728,14.9779692 L15.122728,4.21243077 C15.122728,2.1792 11.867728,0.623507692 7.589728,0.623507692 Z" id="Fill-28"></path>
            </g>
            <g id="Group-33" transform="translate(7.000000, 48.000000)">
                <mask id="mask-14" fill="white">
                    <use xlink:href="#path-13"></use>
                </mask>
                <g id="Clip-32"></g>
                <path d="M7.4116,2.42375 C3.87074286,2.42375 1.2151,1.1475 1.2151,-0.00625 C1.2151,-1.16 3.87074286,-2.43625 7.4116,-2.43625 C10.9524571,-2.43625 13.6081,-1.16 13.6081,-0.00625 C13.6081,1.1475 10.9524571,2.42375 7.4116,2.42375 Z M13.6081,3.63875 C13.6081,4.7925 10.9524571,6.06875 7.4116,6.06875 C3.87074286,6.06875 1.2151,4.7925 1.2151,3.63875 L1.2151,1.99875 C2.51438571,2.97 4.75595714,3.63875 7.4116,3.63875 C10.0672429,3.63875 12.3088143,3.03125 13.6081,1.99875 L13.6081,3.63875 Z M13.6081,7.28375 C13.6081,8.4375 10.9524571,9.71375 7.4116,9.71375 C3.87074286,9.71375 1.2151,8.4375 1.2151,7.28375 L1.2151,5.64375 C2.51438571,6.615 4.75595714,7.28375 7.4116,7.28375 C10.0672429,7.28375 12.3088143,6.67625 13.6081,5.64375 L13.6081,7.28375 Z M13.6081,10.9275 C13.6081,12.0825 10.9524571,13.3575 7.4116,13.3575 C3.87074286,13.3575 1.2151,12.0825 1.2151,10.9275 L1.2151,9.2875 C2.51438571,10.26 4.75595714,10.9275 7.4116,10.9275 C10.0672429,10.9275 12.3088143,10.32 13.6081,9.2875 L13.6081,10.9275 Z M0.0348142857,-0.00625 L0.0348142857,10.9275 C0.0348142857,12.99375 3.22231429,14.5725 7.4116,14.5725 C11.6008857,14.5725 14.7883857,12.99375 14.7883857,10.9275 L14.7883857,-0.00625 L0.0348142857,-0.00625 Z" id="Fill-31" fill="#FFFFFF" mask="url(#mask-14)"></path>
            </g>
            <g id="Group-60">
                <path d="M5.96942034,32.2322581 C5.81475932,33.7002349 4.49457288,34.7651651 3.0222,34.6110953 C1.54858983,34.4570256 0.479572881,33.1431186 0.63299661,31.6751419 C0.787657627,30.2071651 2.10784407,29.1422349 3.58145424,29.2963047 C5.05506441,29.4491419 6.12408136,30.7642814 5.96942034,32.2322581" id="Fill-34" fill="#F7C649"></path>
                <path d="M5.96942034,32.2322581 C5.81475932,33.7002349 4.49457288,34.7651651 3.0222,34.6110953 C1.54858983,34.4570256 0.479572881,33.1431186 0.63299661,31.6751419 C0.787657627,30.2071651 2.10784407,29.1422349 3.58145424,29.2963047 C5.05506441,29.4491419 6.12408136,30.7642814 5.96942034,32.2322581 Z" id="Stroke-36" stroke="#FFFFFF" stroke-width="1.4112"></path>
                <path d="M21.0063068,11.6914302 C20.8516458,13.159407 19.5314593,14.2243372 18.0590864,14.0702674 C16.5854763,13.9161977 15.515222,12.6022907 15.6698831,11.134314 C15.8245441,9.66633721 17.1447305,8.60140698 18.6183407,8.75547674 C20.0919508,8.90831395 21.1609678,10.2234535 21.0063068,11.6914302" id="Fill-38" fill="#F7C649"></path>
                <path d="M21.0063068,11.6914302 C20.8516458,13.159407 19.5314593,14.2243372 18.0590864,14.0702674 C16.5854763,13.9161977 15.515222,12.6022907 15.6698831,11.134314 C15.8245441,9.66633721 17.1447305,8.60140698 18.6183407,8.75547674 C20.0919508,8.90831395 21.1609678,10.2234535 21.0063068,11.6914302 Z" id="Stroke-40" stroke="#FFFFFF" stroke-width="1.4112"></path>
                <path d="M43.1880373,7.90612093 C43.0952407,8.7874 42.3033763,9.42586512 41.4199525,9.33342326 C40.5352915,9.2409814 39.893139,8.45214419 39.9859356,7.57209767 C40.0787322,6.6908186 40.8705966,6.05235349 41.7552576,6.14479535 C42.6386814,6.23600465 43.2808339,7.02484186 43.1880373,7.90612093" id="Fill-42" fill="#F7C649"></path>
                <path d="M43.1880373,7.90612093 C43.0952407,8.7874 42.3033763,9.42586512 41.4199525,9.33342326 C40.5352915,9.2409814 39.893139,8.45214419 39.9859356,7.57209767 C40.0787322,6.6908186 40.8705966,6.05235349 41.7552576,6.14479535 C42.6386814,6.23600465 43.2808339,7.02484186 43.1880373,7.90612093 Z" id="Stroke-44" stroke="#FFFFFF" stroke-width="1.4112"></path>
                <path d="M72.0511237,4.06904419 C71.889039,5.60974186 70.5032763,6.72890465 68.9554288,6.56743953 C67.4088186,6.40597442 66.2865983,5.0255093 66.4486831,3.48357907 C66.6107678,1.9428814 67.9965305,0.823718605 69.5431407,0.985183721 C71.0909881,1.1478814 72.2132085,2.52834651 72.0511237,4.06904419" id="Fill-46" fill="#F7C649"></path>
                <path d="M72.0511237,4.06904419 C71.889039,5.60974186 70.5032763,6.72890465 68.9554288,6.56743953 C67.4088186,6.40597442 66.2865983,5.0255093 66.4486831,3.48357907 C66.6107678,1.9428814 67.9965305,0.823718605 69.5431407,0.985183721 C71.0909881,1.1478814 72.2132085,2.52834651 72.0511237,4.06904419 Z" id="Stroke-48" stroke="#FFFFFF" stroke-width="1.4112"></path>
                <path d="M3.58120678,29.2958116 L15.6212576,12.2815791" id="Stroke-50" stroke="#FFFFFF" stroke-width="1.4112"></path>
                <path d="M34.8938763,21.0040233 L40.7549102,9.26390698" id="Stroke-52" stroke="#FFFFFF" stroke-width="1.4112"></path>
                <path d="M20.9578051,12.8391884 L30.2387034,21.2686535" id="Stroke-54" stroke="#FFFFFF" stroke-width="1.4112"></path>
                <polyline id="Stroke-56" stroke="#FFFFFF" stroke-width="1.4112" points="43.1845729 8.2839 60.8159288 23.2299 67.4972847 6.48929535"></polyline>
                <path d="M47.3589356,44.721893 C47.1634441,45.4996372 45.9608,45.1052186 45.5698169,45.0078465 L45.9137831,43.6323116 C46.3047661,43.7296837 47.5618508,43.9096372 47.3589356,44.721893 M47.1448847,46.9417302 C46.9308339,47.7971256 45.4856814,47.3349163 45.0167492,47.2190558 L45.3965966,45.7017767 C45.8655288,45.8188698 47.3688339,46.0493581 47.1448847,46.9417302 M48.7249017,44.7342186 C48.8511051,43.8985442 48.2126644,43.449893 47.339139,43.1503814 L47.622478,42.0176605 L46.9308339,41.8463349 L46.6549186,42.9482419 C46.4730373,42.9038698 46.2862068,42.8607302 46.1006136,42.8188233 L46.3777661,41.7095209 L45.6873593,41.5369628 L45.4040203,42.6684512 C45.2530712,42.6351721 45.1058339,42.6006605 44.9623085,42.5661488 L44.9623085,42.5624512 L44.0095966,42.3245674 L43.8252407,43.0604047 C43.8252407,43.0604047 44.3387153,43.1774977 44.3275797,43.184893 C44.6072068,43.2551488 44.6579356,43.4388 44.6492746,43.5854744 L44.3275797,44.8747302 C44.346139,44.8796605 44.3708847,44.8870558 44.3993424,44.8981488 C44.3758339,44.891986 44.3510881,44.8858233 44.3263424,44.8796605 L43.8734949,46.6865907 C43.8388508,46.7716372 43.7522407,46.8985907 43.5567492,46.8505209 C43.5629356,46.8603814 43.0544102,46.7248 43.0544102,46.7248 L42.7104441,47.5136372 L43.6111898,47.7367302 C43.7782237,47.7786372 43.9415458,47.8230093 44.1036305,47.8636837 L43.8178169,49.0087302 L44.5082237,49.1800558 L44.7915627,48.0473349 C44.9808678,48.0991023 45.1639864,48.1459395 45.3433932,48.1903116 L45.0600542,49.3181023 L45.7516983,49.4894279 L46.0387492,48.3468465 C47.2178847,48.568707 48.1037831,48.4787302 48.4774441,47.4162651 C48.7781051,46.5608698 48.4625966,46.0678465 47.8427153,45.7461488 C48.2943254,45.642614 48.6345797,45.3455674 48.7249017,44.7342186 M45.8482068,51.9003116 C42.3132746,51.9003116 39.446478,49.045707 39.446478,45.5230558 C39.446478,42.0016372 42.3132746,39.1458 45.8482068,39.1458 C49.3843763,39.1458 52.2511729,42.0016372 52.2511729,45.5230558 C52.2511729,49.045707 49.3843763,51.9003116 45.8482068,51.9003116" id="Fill-58" fill="#F7C649"></path>
            </g>
        </g>
    </g>
</svg>