<?xml version="1.0" encoding="UTF-8"?>
<svg width="101px" height="65px" viewBox="0 0 101 65" version="1.1" xmlns="http://www.w3.org/2000/svg" xmlns:xlink="http://www.w3.org/1999/xlink">
    <!-- Generator: Sketch 49.1 (51147) - http://www.bohemiancoding.com/sketch -->
    <title>Group 9</title>
    <desc>Created with Sketch.</desc>
    <defs></defs>
    <g id="Profile" stroke="none" stroke-width="1" fill="none" fill-rule="evenodd">
        <g id="KYC" transform="translate(-893.000000, -218.000000)">
            <g id="Group-9" transform="translate(893.000000, 218.000000)">
                <g id="Aadhaar_Logo" transform="translate(0.000000, 8.000000)" fill-rule="nonzero">
                    <g id="g12" fill="#FAB60F">
                        <path d="M55.0457292,14.9865644 L55.0451846,14.9869325 L55.0459108,14.9869325 C54.7218646,15.4834969 54.6042277,16.0812883 54.5054708,16.7044785 C54.3843846,17.4633129 54.2567631,18.1917791 53.99208,18.9058896 C53.6740246,19.7619018 53.1399385,20.7156442 52.21028,21.4621472 C51.2441323,18.81 49.8377538,16.3746626 48.0820954,14.2448466 C49.1898431,13.7959509 50.2770769,13.8029448 51.1709723,13.9523926 C51.9134646,14.0769939 52.5994985,14.3291411 53.3085877,14.6022699 C53.8898738,14.827362 54.4595415,15.0230061 55.0457292,14.9865644 Z" id="path14"></path>
                        <path d="M44.2592585,4.05110429 L44.2588954,4.05165644 L44.2596215,4.05147239 C44.2236769,4.64558282 44.4166523,5.22294479 44.6384923,5.81263804 C44.9078954,6.53134969 45.1566031,7.22687117 45.2796862,7.9796319 C45.4270954,8.88662577 45.4338123,9.99018405 44.9899508,11.1141718 C42.8861015,9.33680982 40.4807169,7.91429448 37.8625692,6.93846626 C38.6005231,5.98822086 39.5454308,5.44325153 40.3935785,5.1195092 C41.0979477,4.85116564 41.8164769,4.72177914 42.5653231,4.59883436 C43.1796492,4.49889571 43.7694677,4.37981595 44.2592585,4.05110429 Z" id="path16"></path>
                        <path d="M53.3461662,25.755092 C54.5185415,25.9308589 55.4514677,26.4852147 56.1485754,27.0649693 C56.7298615,27.5493865 57.1996831,28.1155215 57.6791262,28.7116564 C58.0714308,29.2008589 58.4682738,29.6591411 58.9936462,29.9247239 L53.7005292,29.9247239 C53.6988954,28.5031288 53.5769015,27.1104294 53.3461662,25.755092 Z" id="path18"></path>
                        <path d="M14.79012,4.05147239 L14.7904831,4.05184049 L14.7904831,4.05128834 C15.2802738,4.37981595 15.8700923,4.49889571 16.4846,4.59920245 C17.2330831,4.72196319 17.9516123,4.85134969 18.6559815,5.1195092 C19.5041292,5.44325153 20.4492185,5.98840491 21.1869908,6.93865031 C18.56848,7.91429448 16.1634585,9.33699387 14.0596092,11.1143558 C13.6157477,9.9903681 13.6222831,8.88680982 13.7700554,7.9796319 C13.8929569,7.22705521 14.1416646,6.53134969 14.4110677,5.81245399 C14.6329077,5.22312883 14.8260646,4.64558282 14.79012,4.05147239 Z" id="path20"></path>
                        <path d="M4.00383077,14.9871166 L4.00437538,14.9873006 L4.00419385,14.9867485 C4.5902,15.0230061 5.15986769,14.827362 5.74133538,14.602454 C6.45024308,14.3293252 7.13627692,14.0771779 7.87858769,13.9523926 C8.77266462,13.8031288 9.85989846,13.796319 10.9674646,14.2450307 C9.21180615,16.3748466 7.80597231,18.8103681 6.83946154,21.4623313 C5.90980308,20.7156442 5.37571692,19.7622699 5.05766154,18.9060736 C4.79297846,18.1919632 4.66535692,17.4634969 4.54427077,16.7044785 C4.44551385,16.0814724 4.32787692,15.4834969 4.00383077,14.9871166 Z" id="path22"></path>
                        <path d="M0.0562769231,29.9247239 C0.581649231,29.6591411 0.978129231,29.2010429 1.37097846,28.7116564 C1.85005846,28.1157055 2.31988,27.5495706 2.90116615,27.0653374 C3.59845538,26.4853988 4.53065538,25.9308589 5.70339385,25.7552761 C5.47265846,27.1104294 5.35084615,28.5031288 5.34939385,29.9247239 L0.0562769231,29.9247239 Z" id="path24"></path>
                        <path d="M29.5246892,0.0485889571 L29.5246892,0.0491411043 L29.5250523,0.0485889571 C29.7870123,0.581411043 30.2390431,0.983558282 30.7217538,1.38184049 C31.3095754,1.86754601 31.8681692,2.34386503 32.3457969,2.93319018 C32.9212738,3.64453988 33.4716985,4.59717791 33.6412554,5.79662577 C32.3031354,5.56380368 30.9283446,5.44122699 29.5248708,5.44122699 C28.1213969,5.44122699 26.7464246,5.56380368 25.4083046,5.79662577 C25.5778615,4.59736196 26.1282862,3.64453988 26.7037631,2.93337423 C27.1815723,2.34386503 27.7399846,1.86754601 28.3278062,1.38165644 C28.8105169,0.983742331 29.2625477,0.581411043 29.5246892,0.0485889571 Z" id="path26"></path>
                    </g>
                    <g id="g28" transform="translate(8.000000, 8.000000)">
                        <path d="M16.8705738,21.9299328 L18.677459,21.9245714 C18.9147705,20.3599832 18.4506066,19.1553445 16.9068197,19.4428235 C15.6059344,19.6850084 14.2085738,21.01 13.3640984,21.9245714 L15.7464098,21.9138487 C16.0118525,21.7348908 16.531377,21.5307899 16.7447049,21.6827563 C16.8245902,21.7396975 16.8662459,21.8204874 16.8705738,21.9299328 Z" id="path30" fill="#D52736"></path>
                        <path d="M24.9961475,21.9247563 L27.2502459,21.9247563 C27.357541,19.1956471 26.9287213,16.3774286 25.6911311,13.9391261 C24.5655246,11.7206387 22.7049016,10.2126218 20.296082,9.84823529 C16.7796885,9.31635294 13.2315574,10.8424874 10.2318033,13.0258487 C6.96570492,15.4031429 4.26980328,18.6317815 1.91381967,21.9247563 L4.89157377,21.9203193 C7.57232787,18.0248403 13.7382787,12.1109076 18.2740656,12.0722689 C19.7195738,12.0600672 21.1892459,12.4078151 22.2759016,13.4016975 C23.0632131,14.1219664 24.0176885,15.5205378 23.9709836,16.6556639 C23.9432131,17.3287899 23.3605738,17.5351092 22.801918,17.3265714 C22.3678689,17.1646218 22.0613115,16.7578992 21.7576393,16.3302857 C20.7707049,14.9411429 19.2312459,14.2613613 17.5426557,14.4981849 C15.5287541,14.7804874 13.0322951,16.3837143 11.4221475,17.8418151 C10.033623,19.0993277 8.75888525,20.4755294 7.55645902,21.9247563 L10.758,21.9247563 C11.9313934,20.4723866 13.1704262,19.233916 14.7632623,18.2167395 C15.2672787,17.8948739 15.8879672,17.554521 16.5403934,17.3245378 C18.1862459,16.7445882 19.8241639,16.8913782 20.5514262,18.9922857 C20.8372459,19.8183025 20.8792623,20.5428235 20.7959508,21.8705882 L20.7957705,21.9247563 L22.9726885,21.9247563 L22.9782787,21.8565378 C22.9799016,21.1294286 22.9643934,20.6395126 23.0284098,19.9188739 C23.0834098,19.2978824 23.2716721,18.6543361 23.8342951,18.5777983 C25.0300492,18.3210084 24.9727049,21.0482689 24.9961475,21.9247563 Z" id="path32" fill="#D52736"></path>
                        <path d="M29.6204754,21.9247563 L31.8933279,21.9247563 C32.0033279,19.3927227 31.791623,16.392958 30.9925902,13.7736639 C30.8348033,13.2569412 30.6546557,12.7553782 30.4499836,12.2765546 C29.9661639,11.1445714 29.3151803,10.12 28.5390492,9.17307563 C27.6763607,8.12114286 26.6484918,7.17532773 25.4897049,6.43028571 C25.1478033,6.21047059 24.7932787,6.00747899 24.4272131,5.82408403 L24.4272131,5.82371429 C24.0638525,5.64161345 23.6882295,5.4787395 23.3016066,5.33805042 L23.3001639,5.3374958 C18.8740164,3.72631933 14.397377,4.87216807 10.6422295,6.96605042 C9.91009836,7.37443697 9.20555738,7.8185042 8.5347377,8.28494118 C7.86409836,8.7510084 7.22555738,9.2407395 6.62506557,9.74008403 L6.62488525,9.74008403 L6.62380328,9.74119328 C5.91096721,10.3338992 5.01906557,11.1449412 4.13636066,12.1035126 C3.96252459,12.2922689 3.79085246,12.4845378 3.62386885,12.6788403 C3.17719672,13.1979664 2.48888525,13.9258151 2.69319672,14.6782521 C2.85495082,15.2750252 3.60601639,15.0992101 3.86767213,14.8936303 C4.2692623,14.6727059 4.71034426,14.3225546 5.08777049,13.9951429 C5.59881967,13.5516303 6.08155738,13.0741008 6.58755738,12.6244874 C8.63427869,10.8055126 10.7675574,9.40268908 12.868918,8.45336134 C13.3269508,8.24648739 13.7855246,8.06031933 14.2424754,7.89578151 C14.6978033,7.73179832 15.1507869,7.58981513 15.5998033,7.47020168 L15.6019672,7.46964706 C19.5120164,6.42880672 23.7609016,7.10304202 26.4813279,10.3721681 C29.1020328,13.5209412 29.5804426,17.7360672 29.6204754,21.9247563 Z M1.41936066,18.3650084 C1.66352459,18.1313277 1.91237705,17.8264706 2.17168852,17.4888908 C2.5345082,17.0170924 2.57093443,16.5602689 2.42757377,16.2304538 C2.37419672,16.1073277 2.29539344,16.001395 2.19963934,15.9193109 C2.10460656,15.8379664 1.99244262,15.779916 1.87144262,15.7514454 C1.57570492,15.6821176 1.22208197,15.7906387 0.921836066,16.1651933 C0.582278689,16.5885546 0.11342623,17.3128908 0.0176721311,17.953479 C-0.000180327869,18.0734622 -0.00504918033,18.1901176 0.00703278689,18.299563 C0.0187540984,18.4060504 0.0465245902,18.5073613 0.0932295082,18.5997983 L0.0935901639,18.6007227 L0.0937704918,18.6005378 C0.170229508,18.7510252 0.299163934,18.8303361 0.471196721,18.8369916 C0.507081967,18.8382857 0.545852459,18.8366218 0.587147541,18.832 C0.627360656,18.8273782 0.671,18.8192437 0.717344262,18.8081513 L0.71752459,18.808521 L0.719688525,18.8079664 C0.951229508,18.7510252 1.18277049,18.5912941 1.41936066,18.3650084 Z" id="path34" fill="#D52736"></path>
                        <path d="M35.3058525,21.9254958 L35.322082,21.9251261 L35.3301967,21.9251261 C35.5680492,21.938437 35.9808197,21.8262185 36.2188525,21.4145042 C36.2662787,21.3322353 36.3070328,21.2381345 36.3378689,21.1312773 C36.3694262,21.0225714 36.3912459,20.8992605 36.4004426,20.7607899 L36.400623,20.7607899 L36.4022459,20.7323193 C36.5829344,14.2606218 34.649459,8.90315966 31.3669508,5.26336134 C30.7294918,4.55658824 30.0400984,3.91359664 29.3047213,3.33956303 C28.5698852,2.76589916 27.7901475,2.2617479 26.9716393,1.83173109 L26.971459,1.83191597 L26.9584754,1.8252605 L26.9581148,1.82489076 C24.1990984,0.379361345 21.0700492,-0.175815126 17.9987049,0.0909579832 C17.3994754,0.142907563 16.8040328,0.225915966 16.215623,0.339243697 C15.6257705,0.452941176 15.0407869,0.597327731 14.464459,0.771663866 L14.4563443,0.774252101 C11.2977213,1.73208403 8.35837705,3.63351261 5.96308197,6.12838655 C5.49657377,6.61442017 5.05080328,7.12226891 4.62919672,7.64934454 C4.41947541,7.91112605 4.21534426,8.17808403 4.01752459,8.44910924 C5.69727869,6.96327731 7.49947541,5.65991597 9.38444262,4.62443697 C9.80893443,4.39131092 10.2359508,4.17223529 10.6642295,3.9692437 C11.0930492,3.76569748 11.5272787,3.57583193 11.9660164,3.40094118 L11.9672787,3.40038655 L11.968541,3.39983193 C13.6338689,2.73631933 15.2755738,2.31314286 16.9176393,2.12401681 C18.5597049,1.93489076 20.2028525,1.97981513 21.8714262,2.25176471 C23.0588852,2.44551261 24.2180328,2.76423529 25.2621311,3.21015126 C25.4646393,3.29667227 25.664082,3.38855462 25.8591967,3.48561345 C26.0517869,3.58137815 26.2414918,3.68305882 26.4272295,3.79065546 L26.4275902,3.79065546 L26.4304754,3.79213445 L26.4302951,3.79231933 C30.106459,5.85606723 32.6604426,10.0907899 33.7853279,14.872 C34.0046066,15.8045042 34.1697869,16.7569748 34.2781639,17.7164706 C34.386541,18.6755966 34.4384754,19.6454454 34.4319836,20.6132605 L34.4319836,20.6136303 L34.4314426,20.6692773 C34.4501967,21.1871092 34.6233115,21.6202689 34.9199508,21.8153109 C34.9751311,21.8515462 35.035,21.8798319 35.0986557,21.8981345 L35.0990164,21.8981345 C35.1639344,21.9171765 35.233,21.926605 35.3058525,21.9254958 Z" id="path36" fill="#D52736"></path>
                        <path d="M28.7329016,0.356806723 C37.5714918,3.34973109 43.9590656,11.8709412 43.9962131,21.9249412 L39.6229016,21.9249412 C39.9123279,13.1425042 36.1735902,5.21510924 28.7329016,0.356806723 Z" id="path38" fill="#FAB60F"></path>
                    </g>
                    <path d="M11.6493863,37.4018582 L9.86453835,37.4018582 L9.42260201,38.9388581 L8,38.9388581 L9.8821867,33.0525101 L11.6846829,33.0525101 L13.6198147,38.9388581 L12.1353525,38.9388581 L11.6493863,37.4018582 Z M10.0677672,36.4061442 L11.4372422,36.4061442 C11.0780894,35.2561367 10.845386,34.4672261 10.739314,34.0392327 L10.7214837,34.0392327 L10.4387463,35.1572306 L10.0677672,36.4061442 Z M18.2054728,37.4018582 L16.420443,37.4018582 L15.9786886,38.9388581 L14.5560866,38.9388581 L16.4380913,33.0525101 L18.2407695,33.0525101 L20.1759012,38.9388581 L18.691439,38.9388581 L18.2054728,37.4018582 Z M16.6236718,36.4061442 L17.9933288,36.4061442 C17.633994,35.2561367 17.4012906,34.4672261 17.2952186,34.0392327 L17.2775702,34.0392327 L16.9948329,35.1572306 L16.6236718,36.4061442 Z M21.5360972,38.9127829 L21.5360972,33.1310955 C22.1252244,33.0436985 22.7554704,33 23.4270171,33 C24.6966062,33 25.608134,33.2620111 26.160509,33.7874719 C26.712702,34.3129327 26.9881617,35.0000599 26.9881617,35.8472351 C26.9881617,36.8487037 26.6744942,37.6244867 26.0455218,38.174764 C25.4167314,38.7248614 24.4462544,39 23.1355466,39 C22.528771,39 21.9956819,38.9708677 21.5360972,38.9127829 Z M22.9057542,34.0917428 L22.9057542,37.9258804 C22.9823517,37.9433238 23.1473728,37.9519556 23.4006356,37.9519556 C24.0809155,37.9519556 24.6081825,37.7744643 24.9807991,37.4207403 C25.3534157,37.0670163 25.5389962,36.5604376 25.5389962,35.8995654 C25.5389962,35.2940806 25.3696085,34.832639 25.0293775,34.5152405 C24.6891466,34.1980219 24.1988137,34.0392327 23.5596526,34.0392327 C23.2916525,34.0392327 23.0736864,34.056856 22.9057542,34.0917428 Z M28.4544297,33.0525101 L29.8240867,33.0525101 L29.8240867,35.3144013 L32.1656761,35.3144013 L32.1656761,33.0525101 L33.5353331,33.0525101 L33.5353331,38.9388581 L32.1656761,38.9388581 L32.1656761,36.4847295 L29.8240867,36.4847295 L29.8240867,38.9388581 L28.4544297,38.9388581 L28.4544297,33.0525101 Z M38.5007035,37.4018582 L36.7158556,37.4018582 L36.2741012,38.9388581 L34.8513173,38.9388581 L36.733504,33.0525101 L38.5361821,33.0525101 L40.4713139,38.9388581 L38.9868517,38.9388581 L38.5007035,37.4018582 Z M36.9190845,36.4061442 L38.2887414,36.4061442 C37.9294066,35.2561367 37.6967032,34.4672261 37.5906312,34.0392327 L37.5729829,34.0392327 L37.2902455,35.1572306 L36.9190845,36.4061442 Z M45.0567901,37.4018582 L43.2717602,37.4018582 L42.8300058,38.9388581 L41.4074038,38.9388581 L43.2894086,33.0525101 L45.0920867,33.0525101 L47.0272185,38.9388581 L45.5427563,38.9388581 L45.0567901,37.4018582 Z M43.4749891,36.4061442 L44.8446461,36.4061442 C44.4853112,35.2561367 44.2526078,34.4672261 44.1465358,34.0392327 L44.1288875,34.0392327 L43.8461501,35.1572306 L43.4749891,36.4061442 Z M48.3874145,38.9388581 L48.3874145,33.1310955 C48.8882999,33.0436985 49.5038086,33 50.2343045,33 C51.1356436,33 51.7835379,33.1471003 52.1781694,33.4411209 C52.5729829,33.7351416 52.7702077,34.155762 52.7702077,34.703162 C52.7702077,35.0291923 52.6715953,35.3232129 52.472733,35.5866627 C52.2740527,35.8501124 52.0162413,36.0364154 51.7011183,36.1441331 L51.7011183,36.1790199 C52.0722794,36.3158699 52.3402795,36.6769669 52.5051186,37.2619511 C52.8085974,38.3159299 52.9734365,38.8748389 53,38.9388581 L51.6039615,38.9388581 C51.4860633,38.7205455 51.3446946,38.2635996 51.1796735,37.5676607 C51.0972539,37.2184325 50.9853598,36.9738648 50.8439911,36.8341376 C50.7026224,36.6944103 50.4757411,36.6244568 50.1635292,36.6244568 L49.7394231,36.6244568 L49.7394231,38.9388581 L48.3874145,38.9388581 Z M49.7394231,34.0392327 L49.7394231,35.6549978 L50.3048979,35.6549978 C50.6465843,35.6549978 50.91604,35.577851 51.1134467,35.4249963 C51.3108534,35.2723213 51.4094658,35.0669564 51.4094658,34.8078226 C51.4094658,34.5486887 51.3212241,34.3478196 51.1429213,34.2066537 C50.9648003,34.0654878 50.7113556,33.9957141 50.3845883,33.9957141 C50.0634613,33.9957141 49.8484062,34.0102802 49.7394231,34.0392327 Z" id="path40" fill="#D52736"></path>
                </g>
                <path d="M63,13 L63,12" id="Fill-12" fill="#18B1D7"></path>
                <path d="M47,28.5 C47,19.3872083 54.3872083,12 63.5,12 C72.6127917,12 80,19.3872083 80,28.5 C80,37.6127917 72.6127917,45 63.5,45 C54.3872083,45 47,37.6127917 47,28.5" id="Fill-13" fill="#FFFFFF"></path>
                <polygon id="Fill-15" fill="#100749" points="60 60 78 60 78 59 60 59"></polygon>
                <polyline id="Fill-27" fill="#FFFFFF" points="73 42.1394553 76.8516993 46 81 41.6847783 77.4253347 38"></polyline>
                <polygon id="Fill-17" fill="#100749" points="76 2 93 2 93 0 76 0"></polygon>
                <polygon id="Fill-18" fill="#100749" points="76 6 93 6 93 4 76 4"></polygon>
                <path d="M47,28.5 C47,19.3872083 54.3872083,12 63.5,12 C72.6127917,12 80,19.3872083 80,28.5 C80,37.6127917 72.6127917,45 63.5,45 C54.3872083,45 47,37.6127917 47,28.5 Z" id="Stroke-14" stroke="#100749" stroke-width="1.015625"></path>
                <polygon id="Fill-19" fill="#100749" points="76 10 93 10 93 8 76 8"></polygon>
                <polygon id="Fill-20" fill="#100749" points="76 14 93 14 93 12 76 12"></polygon>
                <path d="M51,28.5 C51,21.5965447 56.5965447,16 63.5,16 C70.4034553,16 76,21.5965447 76,28.5 C76,35.4034553 70.4034553,41 63.5,41 C56.5965447,41 51,35.4034553 51,28.5" id="Fill-21" fill="#FFFFFF"></path>
                <path d="M51,28.5 C51,21.5965447 56.5965447,16 63.5,16 C70.4034553,16 76,21.5965447 76,28.5 C76,35.4034553 70.4034553,41 63.5,41 C56.5965447,41 51,35.4034553 51,28.5 Z" id="Stroke-22" stroke="#100749" stroke-width="1.015625"></path>
                <path d="M64,19 C64.0997319,19 64.1994638,19.0010156 64.2981233,19.0040625 C65.6193029,19.0436719 66.8718499,19.3422656 68,19.8480469" id="Fill-23" fill="#F7C649"></path>
                <path d="M64,19 C64.0997319,19 64.1994638,19.0010156 64.2981233,19.0040625 C65.6193029,19.0436719 66.8718499,19.3422656 68,19.8480469" id="Stroke-24" stroke="#100749" stroke-width="1.015625"></path>
                <path d="M57,21 C58.1111111,20.0395371 59.4804527,19.3384764 61,19" id="Stroke-26" stroke="#FFFFFF" stroke-width="1.015625" stroke-linecap="round" stroke-linejoin="round"></path>
                <polyline id="Stroke-28" stroke="#100749" stroke-width="1.015625" points="73 42.1394553 76.8516993 46 81 41.6847783 77.4253347 38"></polyline>
                <polygon id="Fill-30" fill="#FFB944" points="76 46.3523515 82.3523515 40 99 56.6476485 92.6476485 63"></polygon>
                <polygon id="Stroke-31" stroke="#100749" stroke-width="1.015625" points="76 46.3523515 82.3523515 40 99 56.6476485 92.6476485 63"></polygon>
                <path d="M89,16.5 C89,13.4622461 91.4622461,11 94.5,11 C97.5377539,11 100,13.4622461 100,16.5 C100,19.5377539 97.5377539,22 94.5,22 C91.4622461,22 89,19.5377539 89,16.5" id="Fill-32" fill="#FFFFFF"></path>
                <path d="M89,16.5 C89,13.4622461 91.4622461,11 94.5,11 C97.5377539,11 100,13.4622461 100,16.5 C100,19.5377539 97.5377539,22 94.5,22 C91.4622461,22 89,19.5377539 89,16.5 Z" id="Stroke-33" stroke="#100749" stroke-width="1.015625"></path>
                <path d="M84,27 L91,20" id="Fill-34" fill="#FFFFFF"></path>
                <path d="M84,27 L91,20" id="Stroke-35" stroke="#100749" stroke-width="1.015625"></path>
                <path d="M58.5,43 C64.848979,43 63.7494919,50.4931772 63.7494919,50.4931772 C63.7494919,51.9290138 63.1438595,54.7112649 61.5291784,55.968257 C61.124746,56.282251 60.9001742,56.7974451 60.968257,57.3136553 C61.0353237,57.8298655 61.3493177,58.279009 61.8431724,58.5025646 L68.372012,61.5988096 C68.4167231,61.6211652 69,61.7116036 69,62.5184361 L69,63.9776444 L48,64 L48,62.473725 C48,61.8680925 48.4491435,61.689248 48.627988,61.5988096 L55.2249105,58.5025646 C55.6953934,58.279009 56.031743,57.8298655 56.0764541,57.3136553 C56.1445369,56.7974451 55.9423207,56.282251 55.5165489,55.968257 C53.9455628,54.7112649 53.2271364,51.9513694 53.2271364,50.4931772 C53.2505081,50.4931772 52.0158715,43 58.5,43" id="Fill-37" fill="#FFB944"></path>
                <path d="M58.5,43 C64.848979,43 63.7494919,50.4931772 63.7494919,50.4931772 C63.7494919,51.9290138 63.1438595,54.7112649 61.5291784,55.968257 C61.124746,56.282251 60.9001742,56.7974451 60.968257,57.3136553 C61.0353237,57.8298655 61.3493177,58.279009 61.8431724,58.5025646 L68.372012,61.5988096 C68.4167231,61.6211652 69,61.7116036 69,62.5184361 L69,63.9776444 L48,64 L48,62.473725 C48,61.8680925 48.4491435,61.689248 48.627988,61.5988096 L55.2249105,58.5025646 C55.6953934,58.279009 56.031743,57.8298655 56.0764541,57.3136553 C56.1445369,56.7974451 55.9423207,56.282251 55.5165489,55.968257 C53.9455628,54.7112649 53.2271364,51.9513694 53.2271364,50.4931772 C53.2505081,50.4931772 52.0158715,43 58.5,43" id="Stroke-38" stroke="#100749" stroke-width="1.015625"></path>
            </g>
        </g>
    </g>
</svg>