<?xml version="1.0" encoding="utf-8"?>
<!-- Generator: Adobe Illustrator 16.0.0, SVG Export Plug-In . SVG Version: 6.00 Build 0)  -->
<!DOCTYPE svg PUBLIC "-//W3C//DTD SVG 1.1//EN" "http://www.w3.org/Graphics/SVG/1.1/DTD/svg11.dtd">
<svg version="1.1" id="Layer_1" xmlns="http://www.w3.org/2000/svg" xmlns:xlink="http://www.w3.org/1999/xlink" x="0px" y="0px"
	 width="366.194px" height="482.894px" viewBox="86.903 3.354 366.194 482.894"
	 enable-background="new 86.903 3.354 366.194 482.894" xml:space="preserve">
<g>
	<path d="M345.117,173.037v123.406h-22.133v-97.92c0-7.378-6.036-13.414-13.414-13.414c-7.377,0-13.414,6.036-13.414,13.414v97.92
		h-22.133v-72.434c0-7.377-6.036-13.414-13.413-13.414s-13.414,6.036-13.414,13.414v72.434h-22.133v-46.948
		c0-7.377-6.036-13.414-13.414-13.414s-13.414,6.036-13.414,13.414v46.948h-22.133V161.635c0-7.378-6.036-13.414-13.414-13.414
		s-13.414,6.036-13.414,13.414v148.221c0,7.378,6.036,13.413,13.414,13.413h213.277c7.378,0,13.414-6.035,13.414-13.413
		c0-7.377-6.036-13.414-13.414-13.414h-4.694V173.037c0-7.377-6.036-13.414-13.414-13.414
		C350.482,159.623,345.117,165.659,345.117,173.037z"/>
	<path d="M154.642,348.086c-7.377,0-13.414,6.035-13.414,13.413s6.036,13.414,13.414,13.414h230.715
		c7.378,0,13.414-6.036,13.414-13.414s-6.036-13.413-13.414-13.413H154.642z"/>
	<path d="M385.357,403.752h-42.924c-7.377,0-13.413,6.036-13.413,13.414s6.036,13.414,13.413,13.414h42.924
		c7.378,0,13.414-6.036,13.414-13.414S392.735,403.752,385.357,403.752z"/>
	<path d="M302.193,403.752H154.642c-7.377,0-13.414,6.036-13.414,13.414s6.036,13.414,13.414,13.414h147.551
		c7.377,0,13.413-6.036,13.413-13.414S309.57,403.752,302.193,403.752z"/>
	<path d="M441.695,81.153l-66.397-66.398C367.92,7.377,358.53,3.354,347.8,3.354H125.803c-21.462,0-38.9,17.438-38.9,38.899v405.094
		c0,21.462,17.438,38.9,38.9,38.9h288.395c21.462,0,38.899-17.438,38.899-38.9V108.651C453.097,98.591,449.073,88.53,441.695,81.153
		z M371.944,48.96l35.546,35.546h-35.546V48.96z M426.27,447.347c0,6.707-5.365,12.072-12.072,12.072H125.803
		c-6.707,0-12.072-5.365-12.072-12.072V42.253c0-6.707,5.365-12.072,12.072-12.072h219.314v68.41
		c0,7.377,6.036,13.414,13.413,13.414h68.41v335.342H426.27z"/>
</g>
</svg>
