<?xml version="1.0" encoding="utf-8"?>
<!-- Generator: Adobe Illustrator 16.0.0, SVG Export Plug-In . SVG Version: 6.00 Build 0)  -->
<!DOCTYPE svg PUBLIC "-//W3C//DTD SVG 1.1//EN" "http://www.w3.org/Graphics/SVG/1.1/DTD/svg11.dtd">
<svg version="1.1" id="Layer_1" xmlns="http://www.w3.org/2000/svg" xmlns:xlink="http://www.w3.org/1999/xlink" x="0px" y="0px"
	 width="285.473px" height="280.563px" viewBox="0 0 285.473 280.563" enable-background="new 0 0 285.473 280.563"
	 xml:space="preserve">
<g>
	<g>
		<g>
			<g>
				<path fill="#F04F22" d="M261.451,205.167H24.02c-1.578,0-3.069-0.721-4.047-1.955c-0.978-1.238-1.336-2.854-0.978-4.389
					L60.287,23.331c0.549-2.332,2.631-3.979,5.025-3.979h154.846c2.395,0,4.477,1.648,5.025,3.979l41.293,175.492
					c0.357,1.535,0,3.15-0.979,4.389C264.52,204.447,263.03,205.167,261.451,205.167z M30.538,194.843h224.396L216.071,29.675
					H69.401L30.538,194.843z"/>
			</g>
		</g>
		<g>
			<g>
				<path fill="#F04F22" d="M261.451,267.107H24.02c-2.853,0-5.161-2.311-5.161-5.162v-61.939c0-2.85,2.309-5.162,5.161-5.162
					h237.431c2.852,0,5.162,2.313,5.162,5.162v61.939C266.614,264.796,264.303,267.107,261.451,267.107z M29.182,256.782h227.107
					v-51.615H29.182V256.782z"/>
			</g>
		</g>
		<g>
			<g>
				<rect x="137.574" y="70.968" fill="#F04F22" width="10.323" height="118.715"/>
			</g>
		</g>
		<g>
			<g>
				<path fill="#F04F22" d="M158.221,80.678h-30.97c-1.77,0-3.412-0.905-4.36-2.397c-0.948-1.494-1.063-3.367-0.308-4.965
					l14.603-30.969c0.832-1.77,2.596-2.916,4.552-2.959c1.72-0.159,3.765,1.018,4.679,2.748l16.365,30.969
					c0.848,1.6,0.791,3.525-0.141,5.075S160.03,80.678,158.221,80.678z M135.391,70.355h14.265l-7.541-14.262L135.391,70.355z"/>
			</g>
		</g>
		<g>
			<g>
				<path fill="#F04F22" d="M199.512,107.098c-8.537,0-15.484-6.946-15.484-15.484c0-8.539,6.947-15.485,15.484-15.485
					c8.539,0,15.486,6.946,15.486,15.485C214.998,100.152,208.051,107.098,199.512,107.098z M199.512,86.452
					c-2.848,0-5.16,2.315-5.16,5.161c0,2.845,2.313,5.161,5.16,5.161c2.85,0,5.162-2.316,5.162-5.161
					C204.674,88.768,202.362,86.452,199.512,86.452z"/>
			</g>
		</g>
		<g>
			<g>
				<path fill="#F04F22" d="M101.443,117.421H80.797c-2.853,0-5.162-2.311-5.162-5.161V91.614c0-2.851,2.309-5.161,5.162-5.161
					h20.646c2.853,0,5.161,2.311,5.161,5.161v20.646C106.604,115.111,104.296,117.421,101.443,117.421z M85.958,107.098h10.324
					V96.775H85.958V107.098z"/>
			</g>
		</g>
		<g>
			<g>
				<path fill="#F04F22" d="M139.51,173.068l-51.615-41.293c-1.225-0.979-1.937-2.463-1.937-4.031V112.26h10.324v13.005
					l49.679,39.742L139.51,173.068z"/>
			</g>
		</g>
		<g>
			<g>
				<path fill="#F04F22" d="M145.205,158.083l-4.939-9.063l54.085-29.502v-17.582h10.322v20.646c0,1.887-1.033,3.626-2.691,4.531
					L145.205,158.083z"/>
			</g>
		</g>
	</g>
	<g>
		<g>
			<g>
				<path fill="#F04F22" d="M261.451,205.167H24.02c-1.578,0-3.069-0.721-4.047-1.955c-0.978-1.238-1.336-2.854-0.978-4.389
					L60.287,23.331c0.549-2.332,2.631-3.979,5.025-3.979h154.846c2.395,0,4.477,1.648,5.025,3.979l41.293,175.492
					c0.357,1.535,0,3.15-0.979,4.389C264.52,204.447,263.03,205.167,261.451,205.167z M30.538,194.843h224.396L216.071,29.675
					H69.401L30.538,194.843z"/>
			</g>
		</g>
		<g>
			<g>
				<path fill="#F04F22" d="M261.451,267.107H24.02c-2.853,0-5.161-2.311-5.161-5.162v-61.939c0-2.85,2.309-5.162,5.161-5.162
					h237.431c2.852,0,5.162,2.313,5.162,5.162v61.939C266.614,264.796,264.303,267.107,261.451,267.107z M29.182,256.782h227.107
					v-51.615H29.182V256.782z"/>
			</g>
		</g>
		<g>
			<g>
				<rect x="137.574" y="70.968" fill="#F04F22" width="10.323" height="118.715"/>
			</g>
		</g>
		<g>
			<g>
				<path fill="#F04F22" d="M158.221,80.678h-30.97c-1.77,0-3.412-0.905-4.36-2.397c-0.948-1.494-1.063-3.367-0.308-4.965
					l14.603-30.969c0.832-1.77,2.596-2.916,4.552-2.959c1.72-0.159,3.765,1.018,4.679,2.748l16.365,30.969
					c0.848,1.6,0.791,3.525-0.141,5.075S160.03,80.678,158.221,80.678z M135.391,70.355h14.265l-7.541-14.262L135.391,70.355z"/>
			</g>
		</g>
		<g>
			<g>
				<path fill="#F04F22" d="M199.512,107.098c-8.537,0-15.484-6.946-15.484-15.484c0-8.539,6.947-15.485,15.484-15.485
					c8.539,0,15.486,6.946,15.486,15.485C214.998,100.152,208.051,107.098,199.512,107.098z M199.512,86.452
					c-2.848,0-5.16,2.315-5.16,5.161c0,2.845,2.313,5.161,5.16,5.161c2.85,0,5.162-2.316,5.162-5.161
					C204.674,88.768,202.362,86.452,199.512,86.452z"/>
			</g>
		</g>
		<g>
			<g>
				<path fill="#F04F22" d="M101.443,117.421H80.797c-2.853,0-5.162-2.311-5.162-5.161V91.614c0-2.851,2.309-5.161,5.162-5.161
					h20.646c2.853,0,5.161,2.311,5.161,5.161v20.646C106.604,115.111,104.296,117.421,101.443,117.421z M85.958,107.098h10.324
					V96.775H85.958V107.098z"/>
			</g>
		</g>
		<g>
			<g>
				<path fill="#F04F22" d="M139.51,173.068l-51.615-41.293c-1.225-0.979-1.937-2.463-1.937-4.031V112.26h10.324v13.005
					l49.679,39.742L139.51,173.068z"/>
			</g>
		</g>
		<g>
			<g>
				<path fill="#F04F22" d="M145.205,158.083l-4.939-9.063l54.085-29.502v-17.582h10.322v20.646c0,1.887-1.033,3.626-2.691,4.531
					L145.205,158.083z"/>
			</g>
		</g>
	</g>
</g>
</svg>
