<?xml version="1.0" encoding="UTF-8"?>
<svg width="20px" height="20px" viewBox="0 0 20 20" version="1.1" xmlns="http://www.w3.org/2000/svg" xmlns:xlink="http://www.w3.org/1999/xlink">
    <!-- Generator: sketchtool 48.1 (47250) - http://www.bohemiancoding.com/sketch -->
    <title>E489BF1F-CD45-44AA-9D69-5CB8149D1819</title>
    <desc>Created with sketchtool.</desc>
    <defs></defs>
    <g id="Portfolio_Op.1" stroke="none" stroke-width="1" fill="none" fill-rule="evenodd" transform="translate(-112.000000, -271.000000)">
        <g id="Group-9" transform="translate(112.000000, 271.000000)" fill-rule="nonzero">
            <g id="Group-4">
                <g id="btc">
                    <circle id="Oval" fill="#F7931A" cx="10" cy="10" r="10"></circle>
                    <path d="M14.4930954,8.76261537 C14.6890954,7.45246156 13.6915569,6.74815387 12.3275569,6.27830769 L12.7700184,4.50353846 L11.6897108,4.23430769 L11.2589416,5.96230769 C10.9749416,5.89153846 10.6832493,5.82476923 10.3934031,5.75861539 L10.8272493,4.01923077 L9.74755694,3.75 L9.30478769,5.52415384 C9.06971075,5.47061539 8.83894156,5.41769231 8.61494156,5.362 L8.61617231,5.35646154 L7.12632613,4.98446154 L6.83894156,6.13830769 C6.83894156,6.13830769 7.64048,6.322 7.62355694,6.33338463 C8.06109538,6.44261538 8.14017231,6.73215387 8.12694156,6.96169231 L7.62294156,8.98353844 C7.65309538,8.99123075 7.69217231,9.00230769 7.73524925,9.01953844 C7.69924925,9.01061538 7.66078769,9.00076925 7.62109538,8.99123075 L6.91463388,11.8235384 C6.86109538,11.9564616 6.72540306,12.1558461 6.41955694,12.0801539 C6.43032613,12.0958461 5.63432616,11.8841539 5.63432616,11.8841539 L5.09801846,13.1207693 L6.50386463,13.4712308 C6.76540306,13.5367693 7.02171075,13.6053846 7.27401844,13.67 L6.82694156,15.4650769 L7.90601844,15.7343077 L8.34878769,13.9583077 C8.64355694,14.0383077 8.92971075,14.1121539 9.20971075,14.1816923 L8.76848,15.9493846 L9.84878769,16.2186154 L10.2958646,14.4269231 C12.1380184,14.7755384 13.5232493,14.6349231 14.1063261,12.9687693 C14.5761723,11.6272307 14.0829416,10.8533846 13.1137108,10.3487693 C13.8195569,10.186 14.3512493,9.72169231 14.4930954,8.76261537 Z M12.0247877,12.2238461 C11.6909416,13.5653846 9.43217231,12.8401539 8.69986463,12.6583077 L9.29309538,10.2801539 C10.0254031,10.4629231 12.3737108,10.8247692 12.0247877,12.2238461 Z M12.3589416,8.74323075 C12.0543261,9.96353844 10.1743261,9.34353844 9.56448,9.19153844 L10.1023261,7.03461537 C10.7121723,7.18661537 12.6761723,7.47030769 12.3589416,8.74323075 Z" id="Shape" fill="#FFFFFF"></path>
                </g>
            </g>
        </g>
    </g>
</svg>