<?xml version="1.0" encoding="utf-8"?>
<!-- Generator: Adobe Illustrator 16.0.0, SVG Export Plug-In . SVG Version: 6.00 Build 0)  -->
<!DOCTYPE svg PUBLIC "-//W3C//DTD SVG 1.1//EN" "http://www.w3.org/Graphics/SVG/1.1/DTD/svg11.dtd">
<svg version="1.1" id="Layer_1" xmlns="http://www.w3.org/2000/svg" xmlns:xlink="http://www.w3.org/1999/xlink" x="0px" y="0px"
	 width="126px" height="127px" viewBox="0 0 126 127" enable-background="new 0 0 126 127" xml:space="preserve">
<title>24by7</title>
<desc>Created using Figma</desc>
<path fill="#E95328" d="M63,0.042C28.229,0.042,0.042,28.229,0.042,63c0,34.771,28.187,62.957,62.958,62.957
	c34.77,0,62.958-28.187,62.958-62.957C125.959,28.229,97.771,0.042,63,0.042z M63,118.088C32.576,118.088,7.913,93.423,7.913,63
	C7.913,32.575,32.576,7.912,63,7.912c30.423,0,55.087,24.663,55.087,55.088C118.088,93.423,93.424,118.088,63,118.088z"/>
<g>
	<path fill="#E95328" d="M62,21c2.208,0,4-1.791,4-4V8.5c0-2.209-1.791-4-4-4c-2.209,0-4,1.791-4,4V17C58,19.209,59.792,21,62,21z"
		/>
	<path fill="#E95328" d="M63,105c-2.209,0-4,1.791-4,4v13.5c0,2.209,1.791,4,4,4c2.208,0,4-1.791,4-4V109
		C67,106.791,65.209,105,63,105z"/>
	<path fill="#E95328" d="M116.801,61.75h-8.5c-2.209,0-4,1.791-4,4s1.791,4,4,4h8.5c2.209,0,4-1.791,4-4S119.01,61.75,116.801,61.75
		z"/>
	<path fill="#E95328" d="M16.5,60H4c-2.209,0-4,1.791-4,4s1.791,4,4,4h12.5c2.209,0,4-1.791,4-4S18.709,60,16.5,60z"/>
</g>
<path fill="#E95328" d="M91.5,62H66V34c0-2.209-1.791-4-4-4c-2.209,0-4,1.791-4,4v32c0,2.209,1.791,4,4,4h29.5c2.209,0,4-1.791,4-4
	S93.709,62,91.5,62z"/>
</svg>
