<?xml version="1.0" encoding="utf-8"?>
<!-- Generator: Adobe Illustrator 16.0.0, SVG Export Plug-In . SVG Version: 6.00 Build 0)  -->
<!DOCTYPE svg PUBLIC "-//W3C//DTD SVG 1.1//EN" "http://www.w3.org/Graphics/SVG/1.1/DTD/svg11.dtd">
<svg version="1.1" id="Layer_1" xmlns="http://www.w3.org/2000/svg" xmlns:xlink="http://www.w3.org/1999/xlink" x="0px" y="0px"
	 width="489.615px" height="474.285px" viewBox="25.2 -0.077 489.615 474.285" enable-background="new 25.2 -0.077 489.615 474.285"
	 xml:space="preserve">
<g>
	<polygon points="281.857,202.817 365.38,72.599 350.248,72.599 266.726,202.817 	"/>
	<path d="M338.238,133.171c-5.11,6.824-7.65,16.983-7.65,30.462c0,13.188,2.602,23.302,7.864,30.37
		c5.264,7.069,12.775,10.603,22.521,10.603c10.159,0,17.855-3.458,23.104-10.374c5.247-6.916,7.895-17.121,7.895-30.6
		c0-13.188-2.754-23.256-8.201-30.232c-5.446-6.977-13.035-10.465-22.797-10.465C350.938,122.92,343.349,126.332,338.238,133.171z
		 M373.719,141.051c2.754,4.896,4.115,12.423,4.115,22.583c0,10.267-1.377,17.886-4.115,22.843
		c-2.738,4.957-7.008,7.436-12.775,7.436c-5.769,0-9.914-2.509-12.454-7.527c-2.54-5.019-3.81-12.607-3.81-22.751
		c0-10.159,1.27-17.687,3.81-22.583s6.686-7.344,12.454-7.344C366.711,133.707,370.98,136.155,373.719,141.051z"/>
	<path d="M293.348,142.122c5.248-6.916,7.88-17.151,7.88-30.692c0-13.005-2.678-23.042-8.032-30.11
		c-5.355-7.068-13.006-10.603-22.966-10.603c-10.021,0-17.595,3.412-22.705,10.235c-5.11,6.824-7.666,16.983-7.666,30.462
		c0,13.25,2.662,23.394,7.987,30.462c5.324,7.068,12.791,10.603,22.399,10.603C280.389,152.495,288.1,149.037,293.348,142.122z
		 M257.867,134.15c-2.54-5.049-3.81-12.623-3.81-22.721c0-10.098,1.27-17.641,3.81-22.628c2.54-4.988,6.655-7.482,12.362-7.482
		c11.261,0,16.892,10.037,16.892,30.11c0,20.196-5.631,30.279-16.892,30.279C264.522,141.724,260.407,139.199,257.867,134.15z"/>
	<path d="M449.928,370.627c-31.043,15.438-103.688,36.17-152.021,16.861c89.566,6.181,93.177-2.265,95.182-6.992
		c1.79-4.223,1.561-8.92-0.704-13.234c-4.881-9.379-21.175-23.898-105.678-41.57c-89.137-18.65-152.449-0.627-155.096,0.152
		l-5.493,1.592v136.338l11.108-5.6c14.658-7.39,57.146-24.495,77.311-14.719c27.938,13.51,96.207,30.753,142.948,30.753
		c4.314,0,8.461-0.152,12.378-0.459c50.062-3.993,126.164-65.974,140.179-85.665c8.277-11.643,3.764-19.231,1.438-21.955
		C501.198,354.134,472.74,359.305,449.928,370.627z M497.557,379.211c-12.209,17.136-84.823,75.766-128.948,79.3
		c-43.039,3.457-119.08-15.102-147.431-28.825c-6.579-3.167-14.244-4.438-22.277-4.438c-20.701,0-43.911,8.385-57.498,14.168V339.17
		c16.953-3.779,71.543-13.25,142.152,1.5c74.098,15.499,90.729,28.091,94.416,32.299c-14.351,2.723-65.331,0.703-109.012-3.092
		l-21.267-1.851l15.254,14.948c54.912,53.749,166.816,14.764,193.774,1.393c22.415-11.154,40.377-10.803,42.764-9.059
		C499.5,375.309,499.47,376.518,497.557,379.211z"/>
	<path d="M107.774,325.523H25.2v148.241h82.574V325.523z M92.474,458.465H40.5V340.822h51.974V458.465z"/>
	<path d="M178.353,137.624c0,75.934,61.766,137.7,137.7,137.7c75.935,0,137.7-61.766,137.7-137.7s-61.766-137.7-137.7-137.7
		C240.119-0.077,178.353,61.689,178.353,137.624z M438.453,137.624c0,67.488-54.912,122.4-122.4,122.4
		c-67.488,0-122.4-54.912-122.4-122.4s54.912-122.4,122.4-122.4S438.453,70.135,438.453,137.624z"/>
</g>
</svg>
