<?xml version="1.0" encoding="utf-8"?>
<!-- Generator: Adobe Illustrator 16.0.0, SVG Export Plug-In . SVG Version: 6.00 Build 0)  -->
<!DOCTYPE svg PUBLIC "-//W3C//DTD SVG 1.1//EN" "http://www.w3.org/Graphics/SVG/1.1/DTD/svg11.dtd">
<svg version="1.1" id="Layer_1" xmlns="http://www.w3.org/2000/svg" xmlns:xlink="http://www.w3.org/1999/xlink" x="0px" y="0px"
	 width="382.867px" height="308.448px" viewBox="81.504 141.984 382.867 308.448"
	 enable-background="new 81.504 141.984 382.867 308.448" xml:space="preserve">
<path d="M444.298,254.592h-19.584v-93.514c0-10.281-8.323-19.094-18.605-19.094h-306c-10.282,0-18.605,8.323-18.605,19.094V367.2
	c0,10.281,8.323,19.095,18.605,19.095h12.24v45.532v6.365c0,6.854,4.896,12.239,11.261,12.239h45.533
	c6.365,0,11.261-5.385,11.261-12.239v-6.365v-45.532h49.449l-10.771,44.553h-17.136c-5.386,0-9.792,4.406-9.792,9.792
	s4.406,9.792,9.792,9.792h100.368c5.386,0,9.792-4.406,9.792-9.792s-4.406-9.792-9.792-9.792h-14.688l-10.771-44.553h59.731v34.761
	v9.792c0,10.771,9.302,19.584,20.073,19.584h87.639c11.261,0,20.073-8.813,20.073-19.584v-9.792V287.885v-13.709
	C464.371,263.405,455.559,254.592,444.298,254.592z M170.611,431.827H122.63v-45.532v-19.584v-9.793
	c0-1.469,0.979-2.447,1.469-2.447h45.533c0.49,0,1.469,0.979,1.469,2.447v9.793v19.584v45.532H170.611z M180.403,366.711v-9.793
	c0-6.854-4.896-12.24-11.261-12.24h-45.533c-6.365,0-11.261,5.387-11.261,12.24v9.793h-11.261V161.568H404.64v93.024h-48.47
	c-11.261,0-20.074,8.813-20.074,19.584v13.709v78.826H180.403z M400.724,443.088c-3.917,0-6.854-2.938-6.854-6.854
	s2.938-6.854,6.854-6.854c3.916,0,6.854,2.938,6.854,6.854C407.088,440.15,404.15,443.088,400.724,443.088z M454.09,421.056H346.867
	v-35.251v-19.584v-78.336h58.263h19.584h29.376V421.056z"/>
</svg>
