<?xml version="1.0" encoding="utf-8"?>
<!-- Generator: Adobe Illustrator 16.0.0, SVG Export Plug-In . SVG Version: 6.00 Build 0)  -->
<!DOCTYPE svg PUBLIC "-//W3C//DTD SVG 1.1//EN" "http://www.w3.org/Graphics/SVG/1.1/DTD/svg11.dtd">
<svg version="1.1" id="Layer_1" xmlns="http://www.w3.org/2000/svg" xmlns:xlink="http://www.w3.org/1999/xlink" x="0px" y="0px"
	 width="80px" height="80px" viewBox="0 0 80 80" enable-background="new 0 0 80 80" xml:space="preserve">
<g>
	<path fill="#0D5F93" d="M40,80C17.938,80,0,62.063,0,40S17.938,0,40,0s40,17.938,40,40S62.063,80,40,80z"/>
</g>
<g>
	<path fill="#0D5F93" d="M8.313,41c0-18.563,15.125-33.75,33.75-33.75c8.688,0,16.625,3.313,22.625,8.688
		c-6.125-6.75-15.063-11.125-25-11.125c-18.563,0-33.75,15.125-33.75,33.75c0,9.938,4.313,18.813,11.125,25
		C11.563,57.688,8.313,49.688,8.313,41z"/>
</g>
<g>
	<g>
		<path fill="#0D5F93" d="M18.5,53.625c0.75-2.188,1.438-4.313,2.188-6.375c0.063-0.188,0.438-0.375,0.688-0.375
			c1.25-0.063,2.563,0,3.813,0c8.25,0,16.5,0,24.75,0c0.688,0,0.938-0.188,1.188-0.813C52.5,42,53.938,37.938,55.313,33.875
			c0.063-0.188,0.125-0.438,0.25-0.75c-10,0-19.938,0-30,0c0.75-2.25,1.5-4.375,2.25-6.5c0.063-0.188,0.375-0.313,0.563-0.313
			c0.75-0.063,1.5,0,2.25,0c10.125,0,20.313,0.063,30.438-0.063c3-0.063,6.25,2.313,4.938,6.75c-1,3.313-2.188,6.563-3.313,9.813
			c-0.375,1.125-0.75,2.25-1.125,3.375c-1.438,3.938-4.25,6.25-8.188,7.313c-0.375,0.125-0.75,0.125-1.125,0.125
			c-10.938,0-21.938,0-32.875,0C19.125,53.625,18.875,53.625,18.5,53.625z"/>
	</g>
	<g>
		<path fill="#0D5F93" d="M37.5,36.75c-0.813,2.188-1.5,4.125-2.25,6.125c-0.063,0.125-0.375,0.25-0.563,0.25
			c-5.688,0-11.375,0-17.063,0c-0.063,0-0.125-0.063-0.313-0.125c0.75-2,1.438-3.938,2.188-5.938
			c0.063-0.188,0.375-0.375,0.563-0.375C25.813,36.75,31.563,36.75,37.5,36.75z"/>
	</g>
</g>
<g>
	<path fill="#FFFFFF" d="M17.438,52.563c0.75-2.188,1.438-4.313,2.188-6.375c0.063-0.188,0.438-0.375,0.688-0.375
		c1.25-0.063,2.563,0,3.813,0c8.25,0,16.5,0,24.75,0c0.688,0,0.938-0.188,1.188-0.813c1.375-4.063,2.813-8.125,4.188-12.188
		c0.063-0.188,0.125-0.438,0.25-0.75c-10,0-19.938,0-30,0c0.75-2.25,1.5-4.375,2.25-6.5c0.063-0.188,0.375-0.313,0.563-0.313
		c0.75-0.063,1.5,0,2.25,0c10.125,0,20.313,0.063,30.438-0.063c3-0.063,6.25,2.313,4.938,6.75c-1,3.313-2.188,6.563-3.313,9.813
		c-0.375,1.125-0.75,2.25-1.125,3.375c-1.438,3.938-4.25,6.25-8.188,7.313c-0.375,0.125-0.75,0.125-1.125,0.125
		c-10.938,0-21.938,0-32.875,0C18.063,52.563,17.813,52.563,17.438,52.563z"/>
	<path fill="#FFFFFF" d="M36.438,35.688c-0.813,2.188-1.5,4.125-2.25,6.125c-0.063,0.125-0.375,0.25-0.563,0.25
		c-5.688,0-11.375,0-17.063,0c-0.063,0-0.125-0.063-0.313-0.125C17,39.938,17.688,38,18.438,36c0.063-0.188,0.375-0.375,0.563-0.375
		C24.75,35.625,30.5,35.688,36.438,35.688z"/>
</g>
</svg>
