<?xml version="1.0" encoding="utf-8"?>
<!-- Generator: Adobe Illustrator 16.0.0, SVG Export Plug-In . SVG Version: 6.00 Build 0)  -->
<!DOCTYPE svg PUBLIC "-//W3C//DTD SVG 1.1//EN" "http://www.w3.org/Graphics/SVG/1.1/DTD/svg11.dtd">
<svg version="1.1" id="Слой_1" xmlns="http://www.w3.org/2000/svg" xmlns:xlink="http://www.w3.org/1999/xlink" x="0px" y="0px"
	 width="50px" height="50px" viewBox="0 0 50 50" enable-background="new 0 0 50 50" xml:space="preserve">
<g>
	<path fill="#F04F22" d="M25.055,39.912c-1.273,0-2.307-1.031-2.307-2.306v-35.3C22.748,1.031,23.781,0,25.055,0
		s2.307,1.031,2.307,2.307v35.3C27.361,38.881,26.328,39.912,25.055,39.912z"/>
	<path fill="#F04F22" d="M25.055,39.912c-0.59,0-1.181-0.225-1.632-0.676c-0.9-0.898-0.9-2.361,0-3.26l13.303-13.303
		c0.901-0.902,2.362-0.902,3.264,0c0.9,0.898,0.9,2.362,0,3.26L26.687,39.236C26.235,39.688,25.645,39.912,25.055,39.912z"/>
	<path fill="#F04F22" d="M25.055,39.912c-0.59,0-1.181-0.225-1.632-0.676L10.118,25.934c-0.9-0.898-0.9-2.362,0-3.26
		c0.902-0.902,2.362-0.902,3.264,0l13.305,13.303c0.899,0.898,0.899,2.361,0,3.26C26.235,39.688,25.645,39.912,25.055,39.912z"/>
	<path fill="#F04F22" d="M41.041,50H9.068c-3.984,0-7.35-3.367-7.35-7.352V32.457c0-1.275,1.033-2.307,2.307-2.307
		s2.307,1.031,2.307,2.307v10.191c0,1.459,1.279,2.738,2.737,2.738h31.973c1.425,0,2.628-1.253,2.628-2.738V32.457
		c0-1.275,1.033-2.307,2.307-2.307s2.307,1.031,2.307,2.307v10.191C48.282,46.703,45.033,50,41.041,50z"/>
</g>
</svg>
