<?xml version="1.0" encoding="UTF-8"?>
<svg width="16px" height="10px" viewBox="0 0 16 10" version="1.1" xmlns="http://www.w3.org/2000/svg" xmlns:xlink="http://www.w3.org/1999/xlink">
    <!-- Generator: Sketch 49.1 (51147) - http://www.bohemiancoding.com/sketch -->
    <title>Shape</title>
    <desc>Created with Sketch.</desc>
    <defs></defs>
    <g id="Symbols" stroke="none" stroke-width="1" fill="none" fill-rule="evenodd">
        <g id="footer" transform="translate(-31.000000, -86.000000)" fill="#8FA4C3" fill-rule="nonzero">
            <path d="M46.4667865,86 L31.5332135,86 C31.2387416,86 31,86.2280853 31,86.5097972 L31,95.4905466 C31,95.7720866 31.2389213,96 31.5332135,96 L46.4667865,96 C46.7612584,96 47,95.7719147 47,95.4905466 L47,86.5097972 C47,86.2279134 46.7610787,86 46.4667865,86 Z M36.5086742,91.5572362 C37.1373483,92.0649708 37.5684494,92.4092472 37.6770337,92.4867652 C38.281618,92.9192162 38.7520899,92.9774837 39.1326742,92.9774837 C39.8377528,92.9774837 40.3179326,92.6627707 40.5408539,92.4752492 L41.6245393,91.5684084 L46.2190562,95.1232382 L46.2168989,95.2987281 L31.7836404,95.2987281 L31.780764,95.1232382 L36.5086742,91.5572362 Z M31.7340225,94.083362 L31.7340225,87.6734273 C31.9657528,87.8623238 32.2483596,88.0928154 32.5584719,88.3454795 C33.7827416,89.3432451 34.9985618,90.3334479 35.9405843,91.0976281 L31.7340225,94.083362 Z M42.2206742,91.0702991 L46.2657978,87.6871777 L46.2657978,94.0630801 L42.2206742,91.0702991 Z M46.2659775,86.7014438 L46.2659775,86.7459608 L39.9736629,91.7854933 C39.7022022,91.9853902 39.4275056,92.0823307 39.1341124,92.0823307 C38.8374831,92.0823307 38.5266517,91.9776556 38.2203146,91.7798212 C37.8645393,91.524407 32.8540225,87.5931592 31.7340225,86.7136473 L31.7340225,86.7012719 L46.2659775,86.7012719 L46.2659775,86.7014438 Z" id="Shape"></path>
        </g>
    </g>
</svg>