<?xml version="1.0" encoding="UTF-8"?>
<svg width="22px" height="13px" viewBox="0 0 22 13" version="1.1" xmlns="http://www.w3.org/2000/svg" xmlns:xlink="http://www.w3.org/1999/xlink">
    <!-- Generator: sketchtool 48.1 (47250) - http://www.bohemiancoding.com/sketch -->
    <title>FF0C4E70-07FE-4503-A499-5B38910D2AE8</title>
    <desc>Created with sketchtool.</desc>
    <defs>
        <polygon id="path-1" points="3.44668108e-06 0 22 0 22 12.9999755 3.44668108e-06 12.9999755"></polygon>
    </defs>
    <g id="Web-Copy-12" stroke="none" stroke-width="1" fill="none" fill-rule="evenodd" transform="translate(-1149.000000, -445.000000)" opacity="0.607563406">
        <g id="Page-1" transform="translate(1149.000000, 445.000000)">
            <mask id="mask-2" fill="white">
                <use xlink:href="#path-1"></use>
            </mask>
            <g id="Clip-2"></g>
            <path d="M11.0007089,11.0882396 C8.48268667,11.0882396 6.44133111,9.03399434 6.44133111,6.49997547 C6.44133111,3.9659566 8.48268667,1.91171132 11.0007089,1.91171132 C13.5187311,1.91171132 15.5600867,3.9659566 15.5600867,6.49997547 C15.5600867,9.03399434 13.5187311,11.0882396 11.0007089,11.0882396 M21.7200867,5.74156038 C21.7200867,5.74156038 17.0800422,-2.45283019e-05 11.0007089,-2.45283019e-05 C4.92137556,-2.45283019e-05 0.281331111,5.74156038 0.281331111,5.74156038 C-0.0938911111,6.16050377 -0.0958466667,6.8404283 0.287931111,7.24882453 C0.287931111,7.24882453 5.07342,12.9999755 10.9501089,12.9999755 C16.8267978,12.9999755 21.7081089,7.24244717 21.7081089,7.24244717 C22.0899311,6.83233396 22.1006867,6.15510755 21.7200867,5.74156038" id="Fill-1" fill="#8FA4C3" mask="url(#mask-2)"></path>
            <path d="M11,8 C12.1044632,8 13,7.10458892 13,5.99987971 C13,4.89541108 12.1044632,4 11,4 C9.89553679,4 9,4.89541108 9,5.99987971 C9,7.10458892 9.89553679,8 11,8" id="Fill-4" fill="#8FA4C3" mask="url(#mask-2)"></path>
        </g>
    </g>
</svg>