<?xml version="1.0" encoding="UTF-8"?>
<svg width="73px" height="63px" viewBox="0 0 73 63" version="1.1" xmlns="http://www.w3.org/2000/svg" xmlns:xlink="http://www.w3.org/1999/xlink">
    <!-- Generator: sketchtool 48.1 (47250) - http://www.bohemiancoding.com/sketch -->
    <title>ED37A3B5-BE9A-4D34-B9D5-3E2EEDE74636</title>
    <desc>Created with sketchtool.</desc>
    <defs>
        <polygon id="path-1" points="0 0.8439 20.4406 0.8439 20.4406 3.8439 0 3.8439"></polygon>
        <polygon id="path-3" points="0 62.8433 72.238 62.8433 72.238 0.0003 0 0.0003"></polygon>
    </defs>
    <g id="Web-Copy-12" stroke="none" stroke-width="1" fill="none" fill-rule="evenodd" transform="translate(-226.000000, -313.000000)">
        <g id="Page-1" transform="translate(226.000000, 313.000000)">
            <polygon id="Fill-1" fill="#FFFFFF" points="33.316 57.9063 51.004 57.9063 51.004 59.1553 33.316 59.1553"></polygon>
            <polygon id="Fill-3" fill="#FFFFFF" points="33.316 62.6163 51.004 62.6163 51.004 61.3673 33.316 61.3673"></polygon>
            <polygon id="Fill-5" fill="#FFFFFF" points="48.406 1.6613 65.349 1.6613 65.349 0.0003 48.406 0.0003"></polygon>
            <polygon id="Fill-7" fill="#FFFFFF" points="48.406 5.4263 65.349 5.4263 65.349 3.7653 48.406 3.7653"></polygon>
            <polygon id="Fill-9" fill="#FFFFFF" points="48.406 9.6343 65.349 9.6343 65.349 7.9733 48.406 7.9733"></polygon>
            <polygon id="Fill-11" fill="#FFFFFF" points="48.406 13.5103 65.349 13.5103 65.349 11.8493 48.406 11.8493"></polygon>
            <path d="M20.164,27.6647 C20.164,18.7187 27.416,11.4667 36.362,11.4667 C45.308,11.4667 52.56,18.7187 52.56,27.6647 C52.56,36.6107 45.308,43.8627 36.362,43.8627 C27.416,43.8627 20.164,36.6107 20.164,27.6647 Z" id="Stroke-13" stroke="#FFFFFF"></path>
            <path d="M24.0621,27.6647 C24.0621,20.8717 29.5691,15.3647 36.3621,15.3647 C43.1551,15.3647 48.6621,20.8717 48.6621,27.6647 C48.6621,34.4577 43.1551,39.9647 36.3621,39.9647 C29.5691,39.9647 24.0621,34.4577 24.0621,27.6647 Z" id="Stroke-15" stroke="#FFFFFF"></path>
            <path d="M36.6771,19.0612 C36.7701,19.0612 36.8631,19.0622 36.9551,19.0652 C38.1871,19.1042 39.3551,19.3982 40.4071,19.8962" id="Stroke-17" stroke="#FFFFFF" stroke-linecap="round" stroke-linejoin="round"></path>
            <path d="M29.8281,21.1612 C30.9081,20.1652 32.2391,19.4382 33.7161,19.0872" id="Stroke-19" stroke="#FFFFFF" stroke-linecap="round" stroke-linejoin="round"></path>
            <path d="M36,9.6872 L0,9.6872 L0,12.6872 L29.634,12.6872 C31.488,11.6872 34,11.6422 36,11.5902 L36,9.6872 Z" id="Fill-21" fill="#FFFFFF"></path>
            <path d="M0,18.6872 L0,21.6872 L21.432,21.6872 C21.885,20.6872 22.464,19.6872 23.149,18.6872 L0,18.6872 Z" id="Fill-23" fill="#FFFFFF"></path>
            <g id="Group-27" transform="translate(0.000000, 25.843300)">
                <mask id="mask-2" fill="white">
                    <use xlink:href="#path-1"></use>
                </mask>
                <g id="Clip-26"></g>
                <path d="M20.3156,0.8439 L-0.0004,0.8439 L-0.0004,3.8439 L20.4406,3.8439 C20.3396,2.8439 20.2686,2.4569 20.2686,1.7049 C20.2686,1.3899 20.2976,0.8439 20.3156,0.8439" id="Fill-25" fill="#FFFFFF" mask="url(#mask-2)"></path>
            </g>
            <path d="M0,34.6872 L0,37.6872 L24.464,37.6872 C23.587,36.6872 22.813,35.6872 22.189,34.6872 L0,34.6872 Z" id="Fill-28" fill="#FFFFFF"></path>
            <mask id="mask-4" fill="white">
                <use xlink:href="#path-3"></use>
            </mask>
            <g id="Clip-31"></g>
            <polygon id="Fill-30" fill="#FFFFFF" mask="url(#mask-4)" points="0 46.6873 36 46.6873 36 43.6873 0 43.6873"></polygon>
            <path d="M36,12.6872 L36,11.6872" id="Fill-32" fill="#3BC4BE" mask="url(#mask-4)"></path>
            <polyline id="Stroke-33" stroke="#FFFFFF" stroke-linecap="round" stroke-linejoin="round" mask="url(#mask-4)" points="45.5348 41.2577 49.2748 44.9257 53.3028 40.8257 49.8318 37.3247"></polyline>
            <polygon id="Fill-34" fill="#F7C649" mask="url(#mask-4)" points="48.4135 45.9612 54.5855 39.7892 70.7605 55.9642 64.5885 62.1362"></polygon>
            <polygon id="Stroke-35" stroke="#FFFFFF" mask="url(#mask-4)" points="48.4135 45.9612 54.5855 39.7892 70.7605 55.9642 64.5885 62.1362"></polygon>
            <path d="M61.3019,16.0747 C61.3019,13.1927 63.6379,10.8567 66.5199,10.8567 C69.4019,10.8567 71.7379,13.1927 71.7379,16.0747 C71.7379,18.9567 69.4019,21.2927 66.5199,21.2927 C63.6379,21.2927 61.3019,18.9567 61.3019,16.0747 Z" id="Stroke-36" stroke="#FFFFFF" mask="url(#mask-4)"></path>
            <path d="M56.595,26.3093 L63.117,19.7873" id="Stroke-37" stroke="#FFFFFF" mask="url(#mask-4)"></path>
            <path d="M32.1737,42.0433 C38.4217,42.0433 37.3397,49.4173 37.3397,49.4173 C37.3397,50.8303 36.7437,53.5683 35.1547,54.8053 C34.7567,55.1143 34.5357,55.6213 34.6027,56.1293 C34.6687,56.6373 34.9777,57.0793 35.4637,57.2993 L41.8887,60.3463 C41.9327,60.3683 42.5067,60.4573 42.5067,61.2513 L42.5067,62.6873 L21.8407,62.7093 L21.8407,61.2073 C21.8407,60.6113 22.2827,60.4353 22.4587,60.3463 L28.9507,57.2993 C29.4137,57.0793 29.7447,56.6373 29.7887,56.1293 C29.8557,55.6213 29.6567,55.1143 29.2377,54.8053 C27.6917,53.5683 26.9847,50.8523 26.9847,49.4173 C27.0077,49.4173 25.7927,42.0433 32.1737,42.0433" id="Fill-38" fill="#F7C649" mask="url(#mask-4)"></path>
        </g>
    </g>
</svg>