<?xml version="1.0" encoding="utf-8"?>
<!-- Generator: Adobe Illustrator 16.0.0, SVG Export Plug-In . SVG Version: 6.00 Build 0)  -->
<!DOCTYPE svg PUBLIC "-//W3C//DTD SVG 1.1//EN" "http://www.w3.org/Graphics/SVG/1.1/DTD/svg11.dtd">
<svg version="1.1" id="Layer_1" xmlns="http://www.w3.org/2000/svg" xmlns:xlink="http://www.w3.org/1999/xlink" x="0px" y="0px"
	 width="445.091px" height="378.328px" viewBox="47.455 55.636 445.091 378.328"
	 enable-background="new 47.455 55.636 445.091 378.328" xml:space="preserve">
<g>
	<path d="M270,55.636c-35.607,0-71.214,8.902-103.483,25.593c-5.564,3.338-7.79,10.015-4.451,15.578
		c3.338,5.564,10.015,7.789,15.578,4.451C206.575,86.793,237.731,79.004,270,79.004c110.16,0,200.291,90.131,200.291,200.291
		c0,48.959-17.804,96.807-51.186,133.528H120.895c-33.382-37.833-51.186-85.681-51.186-134.641
		c0-51.186,18.917-100.146,54.524-136.865c4.451-4.451,4.451-11.127,0-15.578c-4.451-4.451-11.127-4.451-15.579,0
		c-40.058,41.171-61.2,95.694-61.2,152.443s21.142,111.273,60.087,152.443c2.225,2.226,5.563,3.339,7.789,3.339h308.226
		c3.338,0,5.563-1.113,7.789-3.339c40.058-41.17,61.2-95.694,61.2-152.443C492.546,155.782,392.4,55.636,270,55.636z"/>
	<path d="M243.294,109.047c-8.902,1.113-17.804,3.338-25.593,5.563l13.353,42.284c6.676-2.226,13.353-3.338,20.029-4.451
		L243.294,109.047z"/>
	<path d="M296.705,109.047l-6.676,44.509c6.676,1.112,13.353,2.225,20.029,4.451l13.353-42.284
		C314.509,112.385,305.607,111.272,296.705,109.047z"/>
	<path d="M435.797,221.433c-3.339-7.789-6.677-16.691-11.128-24.48l-38.945,22.254c3.338,5.564,6.677,12.24,8.901,17.804
		L435.797,221.433z"/>
	<path d="M104.204,220.32l41.171,16.691c2.226-6.676,5.563-12.24,8.902-17.804l-38.945-22.254
		C110.88,204.742,107.542,212.531,104.204,220.32z"/>
	<path d="M148.713,155.782l30.043,32.269c4.451-4.451,10.015-8.902,15.578-12.24l-24.48-36.72
		C162.065,143.542,155.389,149.105,148.713,155.782z"/>
	<path d="M345.665,175.811c5.564,3.338,11.128,7.789,15.578,12.24l30.044-32.269c-6.676-5.563-13.353-11.127-21.142-16.691
		L345.665,175.811z"/>
	<path d="M168.742,378.327c0,6.677,5.564,11.128,11.127,11.128h179.149l0,0c5.563,0,11.127-4.451,11.127-11.128
		c0-1.112,0-1.112,0-2.226c-1.112-51.186-40.059-92.356-90.131-97.92v-86.792c0-5.564-5.563-11.127-11.127-11.127
		c-6.676,0-11.127,5.563-11.127,11.127v86.792C207.688,283.746,168.742,326.029,168.742,378.327z M281.127,300.437
		c34.495,4.451,62.313,32.269,66.764,66.764h-66.764V300.437z M258.873,300.437V367.2h-66.764
		C196.56,332.705,224.378,304.887,258.873,300.437z"/>
</g>
</svg>
