<?xml version="1.0" encoding="utf-8"?>
<!-- Generator: Adobe Illustrator 16.0.0, SVG Export Plug-In . SVG Version: 6.00 Build 0)  -->
<!DOCTYPE svg PUBLIC "-//W3C//DTD SVG 1.1//EN" "http://www.w3.org/Graphics/SVG/1.1/DTD/svg11.dtd">
<svg version="1.1" id="Layer_1" xmlns="http://www.w3.org/2000/svg" xmlns:xlink="http://www.w3.org/1999/xlink" x="0px" y="0px"
	 width="74.505px" height="74.205px" viewBox="-240.789 45.426 74.505 74.205"
	 enable-background="new -240.789 45.426 74.505 74.205" xml:space="preserve">
<path fill="none" d="M-202.763,47.926c18.144-0.624,33.355,13.58,33.979,31.724"/>
<g>
	
		<line fill="none" stroke="#FFFFFF" stroke-width="5" stroke-linecap="round" stroke-miterlimit="10" x1="-202.763" y1="47.926" x2="-202.763" y2="47.926"/>
	
		<path fill="none" stroke="#FFFFFF" stroke-width="5" stroke-linecap="round" stroke-miterlimit="10" stroke-dasharray="0,8.6032,0,0,0,0" d="
		M-194.218,48.745c14.148,3.268,24.912,15.703,25.435,30.904"/>
	
		<line fill="none" stroke="#FFFFFF" stroke-width="5" stroke-linecap="round" stroke-miterlimit="10" x1="-168.784" y1="79.649" x2="-168.784" y2="79.649"/>
</g>
<polyline fill="none" stroke="#FFFFFF" stroke-width="5" stroke-linecap="round" stroke-linejoin="round" stroke-miterlimit="10" points="
	-205.248,62.099 -205.248,85.427 -183.343,93.332 "/>
<path fill="none" stroke="#FFFFFF" stroke-width="4.879" stroke-linecap="round" stroke-miterlimit="10" d="M-170.515,90.907
	c-3.457,14.265-15.861,25.246-31.279,26.215c-18.959,1.191-35.294-13.213-36.486-32.172c-0.758-12.071,4.807-23.08,13.843-29.793
	c2.816-2.09,5.967-3.764,9.371-4.922"/>
</svg>
