<?xml version="1.0" encoding="utf-8"?>
<!-- Generator: Adobe Illustrator 16.0.0, SVG Export Plug-In . SVG Version: 6.00 Build 0)  -->
<!DOCTYPE svg PUBLIC "-//W3C//DTD SVG 1.1//EN" "http://www.w3.org/Graphics/SVG/1.1/DTD/svg11.dtd">
<svg version="1.1" id="Layer_1" xmlns="http://www.w3.org/2000/svg" xmlns:xlink="http://www.w3.org/1999/xlink" x="0px" y="0px"
	 width="120px" height="135px" viewBox="0 0 120 135" enable-background="new 0 0 120 135" xml:space="preserve">
<title>legal</title>
<desc>Created using Figma</desc>
<polygon fill="none" points="19.154,90.17 19.154,90.171 19.154,90.17 "/>
<polygon fill="none" points="70.59,84.125 70.59,84.091 70.59,84.125 "/>
<polygon fill="none" points="70.59,62.966 70.59,62.931 70.59,62.966 "/>
<polygon fill="none" points="70.59,90.17 70.59,90.204 70.59,90.17 "/>
<polygon fill="none" points="4.026,134 4.026,135 4.026,134 "/>
<path fill="none" d="M100.847,8.045c-6.206,0-11.103,4.894-11.103,11.091V66.5h22.205V19.136
	C111.949,12.939,107.053,8.045,100.847,8.045z"/>
<polygon fill="none" points="119,70.523 120,70.523 119,70.522 "/>
<polygon fill="none" points="70.59,47.853 70.59,47.887 70.59,47.853 "/>
<path fill="none" d="M19.154,8.045c-6.206,0-11.103,4.894-11.103,11.091v107.819h73.642V19.136c0-4.146,1.356-7.962,3.609-11.091
	H19.154z M40.334,112.328v0.002h-21.18v-0.005c-2.117,0.073-4.067-1.71-4.167-3.83c-0.1-2.136,1.702-4.11,3.837-4.21
	c0.11-0.005,0.22-0.004,0.33,0v-0.001h21.18v0.001c2.149-0.021,4.068,1.87,4.068,4.021S42.483,112.35,40.334,112.328z M70.59,91.169
	L70.59,91.169L19.154,91.17v-0.003c-2.117,0.071-4.067-1.711-4.167-3.831c-0.1-2.135,1.702-4.11,3.837-4.21
	c0.11-0.005,0.22-0.004,0.33,0v-0.001H70.59v0.001c2.149-0.021,4.069,1.871,4.069,4.021C74.659,89.299,72.739,91.191,70.59,91.169z
	 M70.59,70.011L70.59,70.011l-51.436,0.001v-0.005c-2.117,0.073-4.067-1.71-4.167-3.83c-0.1-2.136,1.702-4.111,3.837-4.21
	c0.11-0.005,0.22-0.004,0.33,0v-0.001H70.59v0.001c2.149-0.022,4.069,1.871,4.069,4.021S72.739,70.031,70.59,70.011z M70.59,48.851
	v0.002H19.154v-0.004c-2.117,0.072-4.067-1.71-4.167-3.83c-0.1-2.136,1.702-4.111,3.837-4.21c0.11-0.005,0.22-0.004,0.33,0v-0.001
	H70.59v0.001c2.149-0.022,4.069,1.871,4.069,4.021S72.739,48.873,70.59,48.851z"/>
<polygon fill="none" points="70.59,41.807 70.59,41.772 70.59,41.807 "/>
<polygon fill="none" points="70.59,69.012 70.59,69.046 70.59,69.012 "/>
<path fill="#E95328" d="M70.59,83.126L70.59,83.126l-51.436-0.001v0.001c-0.11-0.004-0.22-0.005-0.33,0
	c-2.135,0.1-3.937,2.075-3.837,4.21c0.1,2.12,2.05,3.902,4.167,3.831v0.003H70.59v-0.001c2.149,0.022,4.069-1.87,4.069-4.021
	C74.659,84.997,72.739,83.104,70.59,83.126z M70.59,84.125L70.59,84.125v-0.034V84.125z M19.154,90.17L19.154,90.17L19.154,90.17
	L19.154,90.17z M70.59,90.17L70.59,90.17v0.034V90.17z"/>
<path fill="#E95328" d="M40.334,104.285L40.334,104.285l-21.18-0.001v0.001c-0.11-0.004-0.22-0.005-0.33,0
	c-2.135,0.1-3.937,2.074-3.837,4.21c0.1,2.12,2.05,3.903,4.167,3.83v0.005h21.18v-0.002c2.149,0.021,4.068-1.87,4.068-4.021
	S42.483,104.264,40.334,104.285z"/>
<path fill="#E95328" d="M70.59,61.967v-0.001H19.154v0.001c-0.11-0.004-0.22-0.005-0.33,0c-2.135,0.1-3.937,2.075-3.837,4.21
	c0.1,2.12,2.05,3.903,4.167,3.83v0.005H70.59v-0.001c2.149,0.021,4.069-1.871,4.069-4.022S72.739,61.945,70.59,61.967z
	 M70.59,62.966L70.59,62.966v-0.035V62.966z M70.59,69.012L70.59,69.012v0.034V69.012z"/>
<path fill="#E95328" d="M70.59,40.808v-0.001H19.154v0.001c-0.11-0.004-0.22-0.005-0.33,0c-2.135,0.099-3.937,2.074-3.837,4.21
	c0.1,2.12,2.05,3.902,4.167,3.83v0.004H70.59v-0.002c2.149,0.022,4.069-1.87,4.069-4.021S72.739,40.786,70.59,40.808z M70.59,41.807
	L70.59,41.807v-0.035V41.807z M70.59,47.853L70.59,47.853v0.034V47.853z"/>
<path fill="#E95328" d="M100.847,0c-0.007,0-0.013,0-0.021,0c-0.007,0-0.014,0-0.021,0s-0.016,0-0.023,0s-0.018,0-0.025,0
	c-0.009,0-0.018,0-0.027,0s-0.019,0-0.028,0c-0.011,0-0.021,0-0.03,0c-0.011,0-0.021,0-0.032,0s-0.022,0-0.034,0s-0.023,0-0.035,0
	s-0.024,0-0.037,0c-0.012,0-0.025,0-0.039,0c-0.013,0-0.025,0-0.039,0s-0.028,0-0.043,0c-0.014,0-0.028,0-0.043,0s-0.029,0-0.045,0
	s-0.031,0-0.047,0s-0.032,0-0.049,0c-0.016,0-0.033,0-0.05,0s-0.034,0-0.052,0s-0.035,0-0.053,0s-0.036,0-0.055,0s-0.037,0-0.057,0
	c-0.019,0-0.038,0-0.058,0s-0.039,0-0.06,0c-0.02,0-0.04,0-0.061,0s-0.041,0-0.063,0s-0.043,0-0.064,0s-0.043,0-0.064,0
	c-0.023,0-0.045,0-0.068,0c-0.021,0-0.045,0-0.068,0c-0.022,0-0.046,0-0.07,0c-0.023,0-0.047,0-0.07,0c-0.025,0-0.049,0-0.074,0
	c-0.023,0-0.049,0-0.074,0s-0.051,0-0.076,0s-0.051,0-0.077,0s-0.052,0-0.079,0c-0.026,0-0.053,0-0.08,0s-0.055,0-0.082,0
	s-0.055,0-0.084,0c-0.027,0-0.056,0-0.084,0s-0.057,0-0.086,0s-0.059,0-0.088,0s-0.059,0-0.089,0s-0.06,0-0.091,0
	c-0.03,0-0.061,0-0.092,0s-0.062,0-0.094,0c-0.031,0-0.063,0-0.094,0s-0.064,0-0.096,0c-0.033,0-0.065,0-0.098,0
	c-0.033,0-0.066,0-0.1,0c-0.032,0-0.066,0-0.1,0s-0.067,0-0.102,0c-0.033,0-0.068,0-0.103,0s-0.069,0-0.104,0s-0.07,0-0.105,0
	s-0.07,0-0.106,0s-0.071,0-0.108,0c-0.036,0-0.072,0-0.109,0s-0.074,0-0.111,0s-0.074,0-0.111,0s-0.075,0-0.113,0s-0.076,0-0.115,0
	c-0.038,0-0.076,0-0.115,0s-0.078,0-0.117,0s-0.079,0-0.119,0c-0.039,0-0.079,0-0.119,0c-0.041,0-0.08,0-0.121,0s-0.081,0-0.122,0
	s-0.082,0-0.124,0c-0.041,0-0.082,0-0.125,0c-0.041,0-0.083,0-0.125,0c-0.043,0-0.084,0-0.127,0s-0.086,0-0.129,0s-0.086,0-0.129,0
	c-0.044,0-0.088,0-0.131,0c-0.044,0-0.088,0-0.133,0c-0.043,0-0.088,0-0.133,0s-0.089,0-0.135,0c-0.044,0-0.09,0-0.135,0
	s-0.091,0-0.137,0c-0.045,0-0.092,0-0.138,0s-0.093,0-0.139,0s-0.093,0-0.14,0s-0.095,0-0.142,0c-0.048,0-0.095,0-0.143,0
	s-0.095,0-0.144,0c-0.048,0-0.096,0-0.145,0s-0.097,0-0.146,0s-0.098,0-0.147,0c-0.049,0-0.098,0-0.147,0s-0.099,0-0.149,0
	c-0.049,0-0.1,0-0.149,0s-0.101,0-0.151,0s-0.102,0-0.152,0S91.98,0,91.93,0c-0.052,0-0.104,0-0.154,0c-0.053,0-0.104,0-0.156,0
	c-0.052,0-0.104,0-0.156,0s-0.104,0-0.157,0S91.2,0,91.147,0c-0.054,0-0.106,0-0.159,0c-0.054,0-0.107,0-0.161,0s-0.107,0-0.161,0
	c-0.055,0-0.108,0-0.162,0c-0.055,0-0.109,0-0.164,0s-0.109,0-0.164,0s-0.11,0-0.166,0c-0.055,0-0.11,0-0.166,0s-0.111,0-0.168,0
	c-0.055,0-0.111,0-0.168,0s-0.112,0-0.169,0s-0.113,0-0.171,0c-0.057,0-0.113,0-0.17,0c-0.059,0-0.115,0-0.173,0s-0.115,0-0.173,0
	s-0.115,0-0.174,0s-0.117,0-0.175,0c-0.059,0-0.117,0-0.176,0c-0.06,0-0.118,0-0.177,0s-0.118,0-0.178,0c-0.059,0-0.119,0-0.178,0
	c-0.061,0-0.119,0-0.18,0s-0.12,0-0.18,0c-0.061,0-0.121,0-0.182,0s-0.121,0-0.182,0s-0.121,0-0.183,0s-0.122,0-0.184,0
	s-0.123,0-0.185,0s-0.123,0-0.186,0c-0.062,0-0.123,0-0.186,0s-0.125,0-0.188,0s-0.125,0-0.188,0s-0.125,0-0.188,0
	c-0.063,0-0.127,0-0.189,0c-0.063,0-0.127,0-0.19,0s-0.127,0-0.19,0c-0.064,0-0.128,0-0.191,0c-0.064,0-0.129,0-0.193,0
	c-0.063,0-0.128,0-0.192,0s-0.13,0-0.194,0s-0.129,0-0.194,0s-0.13,0-0.195,0s-0.13,0-0.196,0c-0.064,0-0.131,0-0.196,0
	s-0.132,0-0.198,0c-0.065,0-0.131,0-0.197,0s-0.133,0-0.199,0s-0.133,0-0.199,0s-0.134,0-0.201,0c-0.066,0-0.133,0-0.201,0
	c-0.066,0-0.134,0-0.201,0c-0.066,0-0.135,0-0.202,0s-0.136,0-0.203,0s-0.136,0-0.204,0c-0.067,0-0.136,0-0.203,0
	c-0.068,0-0.137,0-0.205,0s-0.137,0-0.206,0c-0.068,0-0.138,0-0.206,0S80.3,0,80.23,0c-0.068,0-0.139,0-0.207,0
	c-0.069,0-0.139,0-0.209,0c-0.068,0-0.139,0-0.208,0s-0.14,0-0.209,0c-0.07,0-0.14,0-0.21,0s-0.141,0-0.211,0s-0.141,0-0.211,0
	s-0.141,0-0.211,0s-0.142,0-0.213,0c-0.07,0-0.141,0-0.212,0s-0.142,0-0.214,0c-0.07,0-0.142,0-0.213,0c-0.072,0-0.143,0-0.215,0
	c-0.071,0-0.143,0-0.215,0c-0.071,0-0.143,0-0.215,0s-0.145,0-0.216,0c-0.072,0-0.144,0-0.216,0s-0.145,0-0.217,0s-0.146,0-0.218,0
	c-0.073,0-0.146,0-0.218,0s-0.146,0-0.219,0c-0.072,0-0.146,0-0.219,0c-0.072,0-0.146,0-0.219,0s-0.146,0-0.22,0s-0.147,0-0.22,0
	c-0.074,0-0.147,0-0.221,0c-0.074,0-0.147,0-0.221,0c-0.074,0-0.148,0-0.223,0c-0.073,0-0.146,0-0.221,0s-0.148,0-0.223,0
	s-0.148,0-0.223,0S73.4,0,73.326,0s-0.149,0-0.225,0c-0.074,0-0.148,0-0.223,0c-0.075,0-0.15,0-0.225,0s-0.15,0-0.225,0
	c-0.075,0-0.15,0-0.225,0c-0.076,0-0.15,0-0.226,0s-0.15,0-0.226,0c-0.076,0-0.15,0-0.227,0c-0.075,0-0.15,0-0.227,0
	c-0.075,0-0.15,0-0.227,0c-0.075,0-0.15,0-0.227,0s-0.152,0-0.228,0s-0.151,0-0.228,0s-0.152,0-0.229,0s-0.152,0-0.229,0
	s-0.152,0-0.229,0s-0.152,0-0.229,0s-0.152,0-0.229,0s-0.153,0-0.229,0c-0.077,0-0.153,0-0.229,0c-0.077,0-0.153,0-0.23,0
	c-0.076,0-0.153,0-0.23,0c-0.076,0-0.152,0-0.23,0c-0.076,0-0.153,0-0.23,0c-0.076,0-0.153,0-0.23,0s-0.154,0-0.23,0
	c-0.078,0-0.154,0-0.232,0c-0.076,0-0.154,0-0.23,0c-0.078,0-0.154,0-0.232,0c-0.077,0-0.154,0-0.232,0c-0.076,0-0.154,0-0.231,0
	s-0.155,0-0.232,0s-0.155,0-0.232,0s-0.155,0-0.232,0s-0.155,0-0.233,0c-0.077,0-0.154,0-0.232,0s-0.155,0-0.232,0
	c-0.078,0-0.156,0-0.234,0c-0.077,0-0.155,0-0.232,0c-0.078,0-0.156,0-0.234,0s-0.155,0-0.232,0c-0.078,0-0.156,0-0.234,0
	s-0.156,0-0.234,0s-0.155,0-0.233,0s-0.156,0-0.233,0c-0.078,0-0.156,0-0.234,0s-0.156,0-0.234,0s-0.156,0-0.234,0s-0.156,0-0.234,0
	s-0.156,0-0.234,0s-0.156,0-0.234,0s-0.156,0-0.234,0s-0.156,0-0.234,0s-0.156,0-0.234,0s-0.157,0-0.235,0s-0.156,0-0.234,0
	s-0.156,0-0.235,0c-0.078,0-0.156,0-0.234,0s-0.156,0-0.235,0c-0.078,0-0.156,0-0.234,0s-0.156,0-0.234,0s-0.157,0-0.235,0
	s-0.156,0-0.234,0s-0.156,0-0.234,0s-0.156,0-0.234,0s-0.156,0-0.234,0s-0.156,0-0.234,0s-0.156,0-0.234,0s-0.156,0-0.234,0
	c-0.078,0-0.156,0-0.234,0s-0.156,0-0.234,0c-0.078,0-0.156,0-0.234,0c-0.078,0-0.156,0-0.234,0c-0.078,0-0.156,0-0.234,0
	s-0.156,0-0.233,0c-0.078,0-0.156,0-0.234,0c-0.078,0-0.155,0-0.233,0c-0.078,0-0.156,0-0.233,0s-0.156,0-0.233,0s-0.155,0-0.233,0
	s-0.155,0-0.232,0S54.4,0,54.322,0c-0.077,0-0.155,0-0.232,0c-0.077,0-0.155,0-0.232,0c-0.077,0-0.154,0-0.232,0
	c-0.077,0-0.155,0-0.232,0s-0.154,0-0.231,0c-0.078,0-0.155,0-0.232,0s-0.154,0-0.231,0c-0.077,0-0.154,0-0.231,0
	c-0.077,0-0.154,0-0.23,0c-0.077,0-0.154,0-0.231,0c-0.077,0-0.153,0-0.23,0c-0.077,0-0.153,0-0.23,0s-0.153,0-0.23,0
	s-0.153,0-0.229,0s-0.153,0-0.229,0c-0.076,0-0.153,0-0.229,0s-0.153,0-0.229,0s-0.152,0-0.229,0s-0.152,0-0.228,0
	c-0.076,0-0.152,0-0.228,0c-0.076,0-0.152,0-0.228,0c-0.076,0-0.152,0-0.228,0s-0.151,0-0.227,0s-0.151,0-0.227,0
	c-0.076,0-0.151,0-0.227,0c-0.075,0-0.151,0-0.226,0s-0.15,0-0.226,0s-0.15,0-0.225,0c-0.075,0-0.15,0-0.225,0
	c-0.075,0-0.15,0-0.225,0s-0.149,0-0.224,0s-0.149,0-0.224,0c-0.074,0-0.149,0-0.223,0c-0.075,0-0.149,0-0.223,0s-0.148,0-0.223,0
	s-0.148,0-0.222,0c-0.074,0-0.148,0-0.222,0c-0.074,0-0.147,0-0.221,0s-0.147,0-0.221,0c-0.073,0-0.147,0-0.22,0
	c-0.074,0-0.147,0-0.22,0s-0.146,0-0.22,0s-0.146,0-0.219,0s-0.146,0-0.219,0s-0.146,0-0.218,0s-0.145,0-0.218,0s-0.145,0-0.217,0
	s-0.145,0-0.217,0s-0.145,0-0.216,0c-0.072,0-0.144,0-0.216,0s-0.144,0-0.215,0s-0.144,0-0.215,0s-0.143,0-0.214,0s-0.143,0-0.213,0
	c-0.071,0-0.143,0-0.213,0c-0.071,0-0.142,0-0.213,0s-0.141,0-0.212,0c-0.07,0-0.141,0-0.211,0S41.2,0,41.13,0s-0.141,0-0.21,0
	c-0.07,0-0.14,0-0.21,0S40.57,0,40.5,0c-0.07,0-0.139,0-0.209,0c-0.069,0-0.139,0-0.208,0s-0.138,0-0.208,0
	c-0.069,0-0.138,0-0.207,0s-0.138,0-0.206,0c-0.069,0-0.137,0-0.206,0s-0.137,0-0.205,0s-0.136,0-0.204,0c-0.068,0-0.136,0-0.204,0
	c-0.068,0-0.136,0-0.203,0s-0.135,0-0.203,0c-0.067,0-0.134,0-0.201,0c-0.067,0-0.134,0-0.201,0s-0.134,0-0.2,0
	c-0.067,0-0.133,0-0.2,0s-0.133,0-0.199,0c-0.066,0-0.132,0-0.198,0s-0.132,0-0.198,0c-0.065,0-0.131,0-0.197,0s-0.131,0-0.196,0
	c-0.065,0-0.13,0-0.195,0c-0.065,0-0.13,0-0.195,0c-0.064,0-0.129,0-0.194,0s-0.129,0-0.193,0c-0.064,0-0.128,0-0.192,0
	s-0.128,0-0.192,0c-0.063,0-0.127,0-0.19,0s-0.127,0-0.19,0c-0.063,0-0.126,0-0.189,0s-0.126,0-0.188,0s-0.125,0-0.188,0
	s-0.125,0-0.187,0s-0.124,0-0.186,0c-0.062,0-0.124,0-0.185,0S33.662,0,33.6,0c-0.061,0-0.122,0-0.184,0c-0.061,0-0.122,0-0.183,0
	c-0.061,0-0.121,0-0.182,0s-0.121,0-0.181,0s-0.12,0-0.18,0s-0.12,0-0.179,0s-0.119,0-0.178,0c-0.06,0-0.119,0-0.178,0
	s-0.118,0-0.176,0c-0.059,0-0.118,0-0.176,0c-0.059,0-0.117,0-0.175,0s-0.116,0-0.174,0c-0.058,0-0.115,0-0.173,0s-0.115,0-0.172,0
	c-0.058,0-0.114,0-0.171,0c-0.057,0-0.114,0-0.17,0c-0.057,0-0.113,0-0.169,0s-0.112,0-0.168,0c-0.056,0-0.112,0-0.167,0
	c-0.055,0-0.111,0-0.166,0c-0.056,0-0.11,0-0.166,0s-0.11,0-0.165,0s-0.109,0-0.164,0c-0.054,0-0.108,0-0.162,0
	c-0.054,0-0.108,0-0.162,0s-0.107,0-0.161,0s-0.106,0-0.159,0c-0.053,0-0.106,0-0.159,0s-0.105,0-0.157,0s-0.104,0-0.156,0
	c-0.052,0-0.104,0-0.155,0c-0.052,0-0.104,0-0.154,0c-0.052,0-0.103,0-0.153,0c-0.051,0-0.102,0-0.152,0c-0.051,0-0.101,0-0.151,0
	c-0.05,0-0.1,0-0.15,0s-0.1,0-0.149,0s-0.099,0-0.148,0c-0.049,0-0.098,0-0.146,0s-0.098,0-0.146,0s-0.096,0-0.145,0
	c-0.048,0-0.096,0-0.144,0c-0.047,0-0.095,0-0.142,0s-0.094,0-0.141,0s-0.094,0-0.14,0s-0.093,0-0.139,0c-0.046,0-0.092,0-0.138,0
	c-0.045,0-0.091,0-0.136,0s-0.091,0-0.136,0s-0.09,0-0.134,0s-0.089,0-0.133,0c-0.044,0-0.088,0-0.132,0c-0.043,0-0.087,0-0.13,0
	c-0.043,0-0.087,0-0.13,0s-0.085,0-0.128,0c-0.043,0-0.085,0-0.127,0c-0.042,0-0.084,0-0.126,0c-0.042,0-0.083,0-0.125,0
	s-0.083,0-0.124,0s-0.082,0-0.122,0s-0.081,0-0.121,0s-0.08,0-0.12,0s-0.079,0-0.119,0c-0.039,0-0.078,0-0.117,0
	c-0.039,0-0.077,0-0.116,0s-0.077,0-0.115,0c-0.038,0-0.076,0-0.113,0s-0.075,0-0.112,0s-0.074,0-0.111,0s-0.073,0-0.109,0
	c-0.037,0-0.072,0-0.108,0c-0.036,0-0.071,0-0.107,0c-0.035,0-0.07,0-0.105,0c-0.035,0-0.069,0-0.104,0c-0.034,0-0.069,0-0.103,0
	c-0.034,0-0.068,0-0.102,0s-0.067,0-0.1,0s-0.066,0-0.099,0s-0.065,0-0.098,0s-0.064,0-0.096,0s-0.063,0-0.095,0s-0.063,0-0.093,0
	s-0.062,0-0.092,0s-0.061,0-0.09,0c-0.03,0-0.06,0-0.089,0c-0.029,0-0.059,0-0.087,0s-0.058,0-0.086,0c-0.028,0-0.057,0-0.084,0
	s-0.056,0-0.083,0c-0.027,0-0.055,0-0.082,0c-0.027,0-0.054,0-0.081,0s-0.053,0-0.079,0c-0.026,0-0.052,0-0.077,0
	c-0.026,0-0.051,0-0.076,0s-0.05,0-0.075,0c-0.024,0-0.049,0-0.073,0c-0.024,0-0.048,0-0.072,0s-0.047,0-0.07,0
	c-0.023,0-0.046,0-0.069,0s-0.045,0-0.067,0s-0.044,0-0.065,0s-0.043,0-0.064,0s-0.042,0-0.063,0s-0.041,0-0.061,0s-0.04,0-0.06,0
	s-0.039,0-0.058,0s-0.038,0-0.056,0s-0.037,0-0.055,0S20,0,19.982,0s-0.035,0-0.052,0c-0.017,0-0.033,0-0.05,0
	c-0.016,0-0.033,0-0.048,0s-0.031,0-0.047,0c-0.015,0-0.03,0-0.045,0s-0.029,0-0.043,0s-0.028,0-0.042,0s-0.027,0-0.041,0
	c-0.013,0-0.026,0-0.039,0c-0.012,0-0.025,0-0.037,0c-0.012,0-0.024,0-0.036,0c-0.011,0-0.022,0-0.034,0c-0.011,0-0.021,0-0.032,0
	s-0.021,0-0.03,0c-0.01,0-0.02,0-0.029,0s-0.018,0-0.027,0c-0.008,0-0.017,0-0.025,0c-0.008,0-0.016,0-0.024,0
	c-0.007,0-0.015,0-0.021,0c-0.007,0-0.014,0-0.021,0s-0.012,0-0.019,0c-0.006,0-0.011,0-0.017,0s-0.01,0-0.015,0
	c-0.005,0-0.009,0-0.014,0c-0.004,0-0.008,0-0.011,0c-0.004,0-0.007,0-0.01,0s-0.006,0-0.008,0c-0.002,0-0.004,0-0.006,0
	c-0.002,0-0.003,0-0.005,0c-0.001,0-0.002,0-0.002,0s-0.001,0-0.001,0.67V0C8.598,0,0,8.588,0,19.136v111.84
	C0,133.113,1.891,135,4.026,135l0-1l0,0l0,1h0h81.692c2.135,0,4.025-1.887,4.025-4.023V74.545h26.23
	c2.136,0,4.025-1.887,4.025-4.021h-1c0-0.001,0-0.001,0-0.001l1,0.001v-0.001V19.136C120,8.588,111.402,0,100.847,0z M111.949,66.5
	H89.744V19.136c0-6.197,4.896-11.091,11.103-11.091s11.103,4.894,11.103,11.091V66.5z M81.693,126.955H8.052V19.136
	c0-6.197,4.897-11.091,11.103-11.091h66.148c-2.253,3.128-3.609,6.945-3.609,11.091V126.955z"/>
</svg>
