<?xml version="1.0" encoding="utf-8"?>
<!-- Generator: Adobe Illustrator 16.0.0, SVG Export Plug-In . SVG Version: 6.00 Build 0)  -->
<!DOCTYPE svg PUBLIC "-//W3C//DTD SVG 1.1//EN" "http://www.w3.org/Graphics/SVG/1.1/DTD/svg11.dtd">
<svg version="1.1" id="Layer_1" xmlns="http://www.w3.org/2000/svg" xmlns:xlink="http://www.w3.org/1999/xlink" x="0px" y="0px"
	 width="80px" height="80px" viewBox="0 0 80 80" enable-background="new 0 0 80 80" xml:space="preserve">
<g>
	<path fill="#818182" d="M40,80C17.938,80,0,62.063,0,40S17.938,0,40,0s40,17.938,40,40S62.063,80,40,80z"/>
</g>
<g>
	<path fill="#818182" d="M8.5,41c0-18.625,15.125-33.75,33.75-33.75c8.688,0,16.625,3.313,22.625,8.688
		c-6.188-6.813-15.125-11.125-25-11.125c-18.625,0-33.75,15.125-33.75,33.75c0,9.938,4.313,18.813,11.125,25
		C11.75,57.625,8.5,49.688,8.5,41z"/>
</g>
<polygon fill="#818182" points="41.125,51.25 43.938,40.625 50.625,38.25 52.25,32 52.188,31.875 45.688,34.25 50.375,16.5 37,16.5 
	30.813,39.688 25.688,41.563 24,47.938 29.125,46.063 25.5,59.75 61.063,59.75 63.375,51.25 "/>
<polygon fill="#BCBCBC" points="39.5,49.563 42.313,39 48.938,36.563 50.563,30.313 50.5,30.188 44,32.563 48.688,14.813 
	35.313,14.813 29.188,38 24,39.875 22.313,46.25 27.438,44.375 23.813,58.063 59.438,58.063 61.688,49.563 "/>
</svg>
