<?xml version="1.0" encoding="UTF-8"?>
<svg width="14px" height="18px" viewBox="0 0 14 18" version="1.1" xmlns="http://www.w3.org/2000/svg" xmlns:xlink="http://www.w3.org/1999/xlink">
    <!-- Generator: Sketch 49.1 (51147) - http://www.bohemiancoding.com/sketch -->
    <title>noun_645228_cc</title>
    <desc>Created with Sketch.</desc>
    <defs></defs>
    <g id="Symbols" stroke="none" stroke-width="1" fill="none" fill-rule="evenodd">
        <g id="footer" transform="translate(-32.000000, -155.000000)" fill="#8FA4C3" fill-rule="nonzero" stroke="#8EA3C4" stroke-width="0.3">
            <g id="noun_645228_cc" transform="translate(33.000000, 156.000000)">
                <path d="M6,0 C2.69147368,0 0,2.72736 0,6.08 C0,9.34624 5.52947368,15.62784 5.76505263,15.89376 C5.82473684,15.96128 5.91031579,16 6,16 C6.08968421,16 6.17526316,15.96128 6.23494737,15.89376 C6.47021053,15.62784 12,9.34624 12,6.08 C12,2.72736 9.30852632,0 6,0 Z M6,15.19424 C4.93642105,13.94912 0.631578947,8.74368 0.631578947,6.08 C0.631578947,3.08032 3.03978947,0.64 6,0.64 C8.96021053,0.64 11.3684211,3.08032 11.3684211,6.08 C11.3684211,8.7424 7.06357895,13.94912 6,15.19424 Z" id="Shape"></path>
                <path d="M6,3.2 C4.43305263,3.2 3.15789474,4.49216 3.15789474,6.08 C3.15789474,7.66784 4.43305263,8.96 6,8.96 C7.56726316,8.96 8.84210526,7.66784 8.84210526,6.08 C8.84210526,4.49216 7.56726316,3.2 6,3.2 Z M6,8.32 C4.78105263,8.32 3.78947368,7.3152 3.78947368,6.08 C3.78947368,4.8448 4.78105263,3.84 6,3.84 C7.21863158,3.84 8.21052632,4.8448 8.21052632,6.08 C8.21052632,7.3152 7.21863158,8.32 6,8.32 Z" id="Shape"></path>
            </g>
        </g>
    </g>
</svg>