<?xml version="1.0" encoding="utf-8"?>
<!-- Generator: Adobe Illustrator 16.0.0, SVG Export Plug-In . SVG Version: 6.00 Build 0)  -->
<!DOCTYPE svg PUBLIC "-//W3C//DTD SVG 1.1//EN" "http://www.w3.org/Graphics/SVG/1.1/DTD/svg11.dtd">
<svg version="1.1" id="Layer_1" xmlns="http://www.w3.org/2000/svg" xmlns:xlink="http://www.w3.org/1999/xlink" x="0px" y="0px"
	 width="487.715px" height="351.9px" viewBox="25.2 69.36 487.715 351.9" enable-background="new 25.2 69.36 487.715 351.9"
	 xml:space="preserve">
<g>
	<path d="M474,69.36c-22.44,0-40.8,18.36-40.8,40.8c0,9.18,3.06,17.34,7.14,23.46l-83.64,72.42c-13.26-5.1-28.561-5.1-39.78,4.08
		l-85.68-64.26c3.06-6.12,5.1-13.26,5.1-20.4c0-22.44-18.36-40.8-40.8-40.8s-40.8,18.36-40.8,40.8c0,11.22,4.08,21.42,12.24,28.56
		L77.22,234.6c-25.5-6.12-51,9.18-52.02,39.78c0,22.44,18.36,40.8,40.8,40.8s40.8-18.36,40.8-40.8c0-11.22-4.08-21.42-12.24-28.56
		l87.72-80.58c12.24,3.06,23.46,1.02,32.64-4.08l85.68,65.28c-3.06,5.1-16.32,53.04,36.721,59.16c22.439,0,40.8-18.36,40.8-40.8
		c0-9.18-3.061-17.34-8.16-24.48l83.64-71.4c5.101,3.06,11.221,4.08,18.36,4.08c22.44,0,40.8-18.36,40.8-40.8
		C514.8,87.72,496.44,69.36,474,69.36z M66,295.8c-11.22,0-20.4-9.18-20.4-20.4c0-11.22,9.18-20.4,20.4-20.4s20.4,9.18,20.4,20.4
		C86.4,286.62,78.24,295.8,66,295.8z M194.52,146.88c-11.22,0-20.4-9.18-20.4-20.4s9.18-20.4,20.4-20.4s20.4,9.18,20.4,20.4
		S206.76,146.88,194.52,146.88z M339.36,264.18c-11.221,0-20.4-9.18-20.4-20.4c0-11.22,9.18-20.4,20.4-20.4
		c11.22,0,20.399,9.18,20.399,20.4C359.76,255,350.58,264.18,339.36,264.18z M474,131.58c-11.22,0-20.4-9.18-20.4-20.4
		c0-11.22,9.181-20.4,20.4-20.4s20.4,9.18,20.4,20.4C494.4,122.4,485.22,131.58,474,131.58z"/>
	<path d="M66,338.641c-6.12,0-10.2,4.08-10.2,10.199v61.2c0,6.12,4.08,10.2,10.2,10.2s10.2-4.08,10.2-10.2v-61.2
		C76.2,342.72,72.12,338.641,66,338.641z"/>
	<path d="M338.34,338.641c-6.12,0-10.2,4.08-10.2,10.199v61.2c0,6.12,4.08,10.2,10.2,10.2s10.2-4.08,10.2-10.2v-61.2
		C348.54,342.72,343.44,338.641,338.34,338.641z"/>
	<path d="M134.34,252.96c-6.12,0-10.2,4.08-10.2,10.2v146.88c0,6.12,4.08,10.2,10.2,10.2c6.12,0,10.2-4.08,10.2-10.2V263.16
		C144.54,258.06,139.44,252.96,134.34,252.96z"/>
	<path d="M270,252.96c-6.12,0-10.2,4.08-10.2,10.2v146.88c0,6.12,4.08,10.2,10.2,10.2s10.2-4.08,10.2-10.2V263.16
		C280.2,258.06,276.12,252.96,270,252.96z"/>
	<path d="M201.66,202.98c-6.12,0-10.2,4.08-10.2,10.2V411.06c0,6.12,4.08,10.2,10.2,10.2c6.12,0,10.2-4.08,10.2-10.2V213.18
		C211.86,207.06,207.78,202.98,201.66,202.98z"/>
	<path d="M405.66,252.96c-6.12,0-10.2,4.08-10.2,10.2v146.88c0,6.12,4.08,10.2,10.2,10.2s10.2-4.08,10.2-10.2V263.16
		C415.86,258.06,411.78,252.96,405.66,252.96z"/>
	<path d="M474,202.98c-6.12,0-10.2,4.08-10.2,10.2V411.06c0,6.12,4.08,10.2,10.2,10.2s10.2-4.08,10.2-10.2V213.18
		C484.2,207.06,479.1,202.98,474,202.98z"/>
</g>
</svg>
