<?xml version="1.0" encoding="UTF-8"?>
<svg width="75px" height="65px" viewBox="0 0 75 65" version="1.1" xmlns="http://www.w3.org/2000/svg" xmlns:xlink="http://www.w3.org/1999/xlink">
    <!-- Generator: Sketch 49.1 (51147) - http://www.bohemiancoding.com/sketch -->
    <title>Page 1</title>
    <desc>Created with Sketch.</desc>
    <defs>
        <polygon id="path-1" points="0 0.485164062 21.0006164 0.485164062 21.0006164 3.53203906 0 3.53203906"></polygon>
        <polygon id="path-3" points="0 64.1970469 74.2171233 64.1970469 74.2171233 0.00040625 0 0.00040625"></polygon>
    </defs>
    <g id="Profile" stroke="none" stroke-width="1" fill="none" fill-rule="evenodd">
        <g id="KYC" transform="translate(-297.000000, -218.000000)">
            <g id="Page-1" transform="translate(297.000000, 218.000000)">
                <path d="M36.9863014,9.83846094 L0,9.83846094 L0,12.8853359 L30.4458904,12.8853359 C32.3506849,11.8697109 34.9315068,11.8240078 36.9863014,11.7711953 L36.9863014,9.83846094 Z" id="Fill-1" fill="#18B1D7"></path>
                <path d="M0,18.9790859 L0,22.0259609 L22.0191781,22.0259609 C22.484589,21.0103359 23.0794521,19.9947109 23.7832192,18.9790859 L0,18.9790859 Z" id="Fill-3" fill="#18B1D7"></path>
                <g id="Group-7" transform="translate(0.000000, 26.618922)">
                    <mask id="mask-2" fill="white">
                        <use xlink:href="#path-1"></use>
                    </mask>
                    <g id="Clip-6"></g>
                    <path d="M20.8721918,0.485164062 L-0.000410958904,0.485164062 L-0.000410958904,3.53203906 L21.0006164,3.53203906 C20.8968493,2.51641406 20.8239041,2.12336719 20.8239041,1.35961719 C20.8239041,1.03969531 20.8536986,0.485164062 20.8721918,0.485164062" id="Fill-5" fill="#18B1D7"></path>
                </g>
                <path d="M0,35.2290859 L0,38.2759609 L25.1342466,38.2759609 C24.2332192,37.2603359 23.4380137,36.2447109 22.7969178,35.2290859 L0,35.2290859 Z" id="Fill-8" fill="#18B1D7"></path>
                <mask id="mask-4" fill="white">
                    <use xlink:href="#path-3"></use>
                </mask>
                <g id="Clip-11"></g>
                <polygon id="Fill-10" fill="#18B1D7" points="0 47.4168906 36.9863014 47.4168906 36.9863014 44.3700156 0 44.3700156"></polygon>
                <path d="M36.9863014,12.8853359 L36.9863014,11.8697109" id="Fill-12" fill="#18B1D7"></path>
                <path d="M20.7164384,28.0968594 C20.7164384,19.0110781 28.1671233,11.6457656 37.3582192,11.6457656 C46.5493151,11.6457656 54,19.0110781 54,28.0968594 C54,37.1826406 46.5493151,44.5479531 37.3582192,44.5479531 C28.1671233,44.5479531 20.7164384,37.1826406 20.7164384,28.0968594" id="Fill-13" fill="#FFFFFF"></path>
                <path d="M20.7164384,28.0968594 C20.7164384,19.0110781 28.1671233,11.6457656 37.3582192,11.6457656 C46.5493151,11.6457656 54,19.0110781 54,28.0968594 C54,37.1826406 46.5493151,44.5479531 37.3582192,44.5479531 C28.1671233,44.5479531 20.7164384,37.1826406 20.7164384,28.0968594 Z" id="Stroke-14" stroke="#100749" stroke-width="1.015625"></path>
                <polygon id="Fill-15" fill="#100749" points="34.2287671 60.0797031 52.4013699 60.0797031 52.4013699 58.8111875 34.2287671 58.8111875"></polygon>
                <polygon id="Fill-16" fill="#100749" points="34.2287671 63.5947813 52.4013699 63.5947813 52.4013699 62.3262656 34.2287671 62.3262656"></polygon>
                <polygon id="Fill-17" fill="#100749" points="49.7321918 1.68735937 67.1393836 1.68735937 67.1393836 0.00040625 49.7321918 0.00040625"></polygon>
                <polygon id="Fill-18" fill="#100749" points="49.7321918 5.5111875 67.1393836 5.5111875 67.1393836 3.82423438 49.7321918 3.82423438"></polygon>
                <polygon id="Fill-19" fill="#100749" points="49.7321918 9.7849375 67.1393836 9.7849375 67.1393836 8.09798437 49.7321918 8.09798437"></polygon>
                <polygon id="Fill-20" fill="#100749" points="49.7321918 13.7215 67.1393836 13.7215 67.1393836 12.0345469 49.7321918 12.0345469"></polygon>
                <path d="M24.7213356,28.0968594 C24.7213356,21.1977188 30.3792123,15.6046719 37.3583219,15.6046719 C44.3374315,15.6046719 49.9953082,21.1977188 49.9953082,28.0968594 C49.9953082,34.996 44.3374315,40.5890469 37.3583219,40.5890469 C30.3792123,40.5890469 24.7213356,34.996 24.7213356,28.0968594" id="Fill-21" fill="#FFFFFF"></path>
                <path d="M24.7213356,28.0968594 C24.7213356,21.1977188 30.3792123,15.6046719 37.3583219,15.6046719 C44.3374315,15.6046719 49.9953082,21.1977188 49.9953082,28.0968594 C49.9953082,34.996 44.3374315,40.5890469 37.3583219,40.5890469 C30.3792123,40.5890469 24.7213356,34.996 24.7213356,28.0968594 Z" id="Stroke-22" stroke="#100749" stroke-width="1.015625"></path>
                <g id="Group-25" transform="translate(36.986301, 18.493922)">
                    <path d="M0.695650685,0.865007813 C0.79119863,0.865007813 0.886746575,0.866023437 0.981267123,0.869070312 C2.24702055,0.908679688 3.44702055,1.20727344 4.52784247,1.71305469" id="Fill-23" fill="#F7C649"></path>
                    <path d="M0.695650685,0.865007813 C0.79119863,0.865007813 0.886746575,0.866023437 0.981267123,0.869070312 C2.24702055,0.908679688 3.44702055,1.20727344 4.52784247,1.71305469" id="Stroke-24" stroke="#100749" stroke-width="1.015625"></path>
                </g>
                <path d="M30.6453082,21.4917422 C31.7548973,20.4801797 33.122363,19.7418203 34.6398288,19.3853359" id="Stroke-26" stroke="#FFFFFF" stroke-width="1.015625" stroke-linecap="round" stroke-linejoin="round"></path>
                <g id="Group-29" transform="translate(46.232877, 37.790797)">
                    <polyline id="Fill-27" fill="#FFFFFF" points="0.549452055 4.11145312 4.39191781 7.83676562 8.53027397 3.67270312 4.96417808 0.117"></polyline>
                    <polyline id="Stroke-28" stroke="#100749" stroke-width="1.015625" points="0.549452055 4.11145312 4.39191781 7.83676562 8.53027397 3.67270312 4.96417808 0.117"></polyline>
                </g>
                <polygon id="Fill-30" fill="#FFB944" points="49.7398973 46.6792422 56.0809932 40.4108047 72.6991438 56.8385391 66.3580479 63.1069766"></polygon>
                <polygon id="Stroke-31" stroke="#100749" stroke-width="1.015625" points="49.7398973 46.6792422 56.0809932 40.4108047 72.6991438 56.8385391 66.3580479 63.1069766"></polygon>
                <path d="M62.9814041,16.3257656 C62.9814041,13.3987344 65.3814041,11.0262344 68.342363,11.0262344 C71.3033219,11.0262344 73.7033219,13.3987344 73.7033219,16.3257656 C73.7033219,19.2527969 71.3033219,21.6252969 68.342363,21.6252969 C65.3814041,21.6252969 62.9814041,19.2527969 62.9814041,16.3257656" id="Fill-32" fill="#FFFFFF"></path>
                <path d="M62.9814041,16.3257656 C62.9814041,13.3987344 65.3814041,11.0262344 68.342363,11.0262344 C71.3033219,11.0262344 73.7033219,13.3987344 73.7033219,16.3257656 C73.7033219,19.2527969 71.3033219,21.6252969 68.342363,21.6252969 C65.3814041,21.6252969 62.9814041,19.2527969 62.9814041,16.3257656 Z" id="Stroke-33" stroke="#100749" stroke-width="1.015625"></path>
                <g id="Group-36" transform="translate(57.534247, 19.509547)">
                    <path d="M0.61130137,7.21073437 L7.3119863,0.586828125" id="Fill-34" fill="#FFFFFF"></path>
                    <path d="M0.61130137,7.21073437 L7.3119863,0.586828125" id="Stroke-35" stroke="#100749" stroke-width="1.015625"></path>
                </g>
                <g id="Group-39" transform="translate(21.575342, 41.853297)">
                    <path d="M11.4798288,0.846828125 C17.8990068,0.846828125 16.787363,8.33604688 16.787363,8.33604688 C16.787363,9.771125 16.1750342,12.5519063 14.5425,13.8082344 C14.1335959,14.1220625 13.9065411,14.6369844 13.9753767,15.1529219 C14.0431849,15.6688594 14.3606507,16.1177656 14.8599658,16.3412031 L21.4609932,19.4358125 C21.5061986,19.4581563 22.0959247,19.5485469 22.0959247,20.3549531 L22.0959247,21.8133906 L0.863732877,21.8357344 L0.863732877,20.3102656 C0.863732877,19.7049531 1.31784247,19.5262031 1.49866438,19.4358125 L8.1685274,16.3412031 C8.64421233,16.1177656 8.98428082,15.6688594 9.0294863,15.1529219 C9.09832192,14.6369844 8.89386986,14.1220625 8.46339041,13.8082344 C6.87503425,12.5519063 6.14866438,9.79346875 6.14866438,8.33604688 C6.17229452,8.33604688 4.92400685,0.846828125 11.4798288,0.846828125" id="Fill-37" fill="#FFB944"></path>
                    <path d="M11.4798288,0.846828125 C17.8990068,0.846828125 16.787363,8.33604688 16.787363,8.33604688 C16.787363,9.771125 16.1750342,12.5519063 14.5425,13.8082344 C14.1335959,14.1220625 13.9065411,14.6369844 13.9753767,15.1529219 C14.0431849,15.6688594 14.3606507,16.1177656 14.8599658,16.3412031 L21.4609932,19.4358125 C21.5061986,19.4581563 22.0959247,19.5485469 22.0959247,20.3549531 L22.0959247,21.8133906 L0.863732877,21.8357344 L0.863732877,20.3102656 C0.863732877,19.7049531 1.31784247,19.5262031 1.49866438,19.4358125 L8.1685274,16.3412031 C8.64421233,16.1177656 8.98428082,15.6688594 9.0294863,15.1529219 C9.09832192,14.6369844 8.89386986,14.1220625 8.46339041,13.8082344 C6.87503425,12.5519063 6.14866438,9.79346875 6.14866438,8.33604688 C6.17229452,8.33604688 4.92400685,0.846828125 11.4798288,0.846828125" id="Stroke-38" stroke="#100749" stroke-width="1.015625"></path>
                </g>
            </g>
        </g>
    </g>
</svg>