<?xml version="1.0" encoding="utf-8"?>
<!-- Generator: Adobe Illustrator 16.0.0, SVG Export Plug-In . SVG Version: 6.00 Build 0)  -->
<!DOCTYPE svg PUBLIC "-//W3C//DTD SVG 1.1//EN" "http://www.w3.org/Graphics/SVG/1.1/DTD/svg11.dtd">
<svg version="1.1" id="Layer_1" xmlns="http://www.w3.org/2000/svg" xmlns:xlink="http://www.w3.org/1999/xlink" x="0px" y="0px"
	 width="160px" height="103px" viewBox="0 0 160 103" enable-background="new 0 0 160 103" xml:space="preserve">
<title>payment</title>
<desc>Created using Figma</desc>
<path fill="#E95328" d="M151.352,0.293H8.649C3.872,0.293,0,4.165,0,8.942v85.117c0,4.776,3.872,8.648,8.649,8.648H151.35
	c4.776,0,8.649-3.872,8.649-8.648V8.942C160,4.165,156.127,0.293,151.352,0.293z M153.08,94.059c0,0.955-0.773,1.729-1.729,1.729
	H8.649c-0.956,0-1.73-0.774-1.73-1.729V8.942c0-0.956,0.774-1.73,1.73-1.73H151.35c0.955,0,1.729,0.774,1.729,1.73L153.08,94.059
	L153.08,94.059z"/>
<path id="path2_stroke" fill="#E95328" d="M159.162,24.249L0.966,23.93l0.068,8l158.196,0.319L159.162,24.249z"/>
<g>
	<path fill="none" d="M208.426,59.358c2.684,3.644,4.271,8.143,4.271,13.014c0,5.447-1.986,10.428-5.27,14.267
		c6.568-1.137,11.568-6.851,11.568-13.747C218.996,66.351,214.495,60.876,208.426,59.358z"/>
	<path fill="#E95328" d="M131.035,50.927c-2.227,0-4.375,0.334-6.4,0.95c-2.451-0.945-5.113-1.47-7.899-1.47
		c-12.131,0-21.962,9.836-21.962,21.965c0,12.13,9.831,21.967,21.962,21.967c2.227,0,4.374-0.334,6.399-0.95
		c2.452,0.946,5.114,1.471,7.9,1.471c12.131,0,21.961-9.836,21.961-21.966C152.996,60.763,143.166,50.927,131.035,50.927z
		 M116.735,86.339c-7.71,0-13.962-6.252-13.962-13.967c0-7.713,6.252-13.965,13.962-13.965c7.711,0,13.962,6.252,13.962,13.965
		C130.697,80.087,124.446,86.339,116.735,86.339z M133.428,86.639c3.283-3.839,5.27-8.819,5.27-14.267
		c0-4.871-1.588-9.37-4.271-13.014c6.069,1.518,10.57,6.992,10.57,13.533C144.996,79.788,139.996,85.502,133.428,86.639z"/>
</g>
</svg>
