<?xml version="1.0" encoding="utf-8"?>
<!-- Generator: Adobe Illustrator 16.0.0, SVG Export Plug-In . SVG Version: 6.00 Build 0)  -->
<!DOCTYPE svg PUBLIC "-//W3C//DTD SVG 1.1//EN" "http://www.w3.org/Graphics/SVG/1.1/DTD/svg11.dtd">
<svg version="1.1" id="Layer_1" xmlns="http://www.w3.org/2000/svg" xmlns:xlink="http://www.w3.org/1999/xlink" x="0px" y="0px"
	 width="67.846px" height="69.272px" viewBox="14.308 13.86 67.846 69.272" enable-background="new 14.308 13.86 67.846 69.272"
	 xml:space="preserve">
<g>
	<path fill="none" stroke="#FFFFFF" stroke-width="5" stroke-miterlimit="10" d="M44.158,40.756c0,1.632-1.323,2.954-2.954,2.954
		H19.763c-1.632,0-2.954-1.322-2.954-2.954V19.314c0-1.631,1.322-2.954,2.954-2.954h21.441c1.63,0,2.954,1.323,2.954,2.954V40.756z"
		/>
	<path fill="none" stroke="#FFFFFF" stroke-width="5" stroke-miterlimit="10" d="M79.654,40.756c0,1.632-1.321,2.954-2.954,2.954
		H55.26c-1.631,0-2.953-1.322-2.953-2.954V19.314c0-1.631,1.322-2.954,2.953-2.954H76.7c1.633,0,2.954,1.323,2.954,2.954V40.756z"/>
	<path fill="none" stroke="#FFFFFF" stroke-width="5" stroke-miterlimit="10" d="M44.158,77.68c0,1.631-1.323,2.952-2.954,2.952
		H19.762c-1.631,0-2.954-1.321-2.954-2.952V56.236c0-1.631,1.323-2.953,2.954-2.953h21.442c1.63,0,2.954,1.322,2.954,2.953V77.68
		L44.158,77.68z"/>
	<path fill="none" stroke="#FFFFFF" stroke-width="5" stroke-miterlimit="10" d="M79.654,77.68c0,1.631-1.323,2.952-2.954,2.952
		H55.26c-1.632,0-2.953-1.321-2.953-2.952V56.236c0-1.631,1.321-2.953,2.953-2.953H76.7c1.631,0,2.954,1.322,2.954,2.953V77.68z"/>
</g>
</svg>
