<?xml version="1.0" encoding="utf-8"?>
<!-- Generator: Adobe Illustrator 16.0.0, SVG Export Plug-In . SVG Version: 6.00 Build 0)  -->
<!DOCTYPE svg PUBLIC "-//W3C//DTD SVG 1.1//EN" "http://www.w3.org/Graphics/SVG/1.1/DTD/svg11.dtd">
<svg version="1.1" id="Layer_1" xmlns="http://www.w3.org/2000/svg" xmlns:xlink="http://www.w3.org/1999/xlink" x="0px" y="0px"
	 width="138px" height="133px" viewBox="0 0 138 133" enable-background="new 0 0 138 133" xml:space="preserve">
<title>realtime</title>
<desc>Created using Figma</desc>
<path fill="#E95328" d="M124,108H26V22c0-2.209-1.791-4-4-4s-4,1.791-4,4v90c0,2.209,1.791,4,4,4h102c2.209,0,4-1.791,4-4
	S126.209,108,124,108z"/>
<g>
	<path fill="#E95328" d="M47,50c-2.209,0-4,1.791-4,4v45c0,2.209,1.791,4,4,4s4-1.791,4-4V54C51,51.791,49.209,50,47,50z"/>
	<path fill="#E95328" d="M66,70c-2.209,0-4,1.791-4,4v25c0,2.209,1.791,4,4,4s4-1.791,4-4V74C70,71.791,68.209,70,66,70z"/>
	<path fill="#E95328" d="M84,87c-2.209,0-4,1.791-4,4v9c0,2.209,1.791,4,4,4s4-1.791,4-4v-9C88,88.791,86.209,87,84,87z"/>
</g>
<rect x="8" y="8" fill="none" width="122" height="117"/>
<path fill="#E95328" d="M125.376-0.167H12.625c-6.919,0-12.528,5.609-12.528,12.528v108.277c0,6.92,5.609,12.527,12.528,12.527
	h112.751c6.919,0,12.527-5.607,12.527-12.527V12.361C137.903,5.442,132.295-0.167,125.376-0.167z M130.745,120.639
	c0,2.966-2.403,5.369-5.369,5.369H12.625c-2.965,0-5.369-2.403-5.369-5.369V12.361c0-2.965,2.404-5.369,5.369-5.369h112.751
	c2.966,0,5.369,2.404,5.369,5.369V120.639z"/>
<g>
	<path fill="#E95328" d="M128,18c0-2.209-1.791-4-4-4H77c-2.209,0-4,1.791-4,4s1.791,4,4,4h47C126.209,22,128,20.209,128,18z"/>
	<path fill="#E95328" d="M124,27H97c-2.209,0-4,1.791-4,4s1.791,4,4,4h27c2.209,0,4-1.791,4-4S126.209,27,124,27z"/>
</g>
</svg>
