<?xml version="1.0" encoding="UTF-8"?>
<svg width="20px" height="20px" viewBox="0 0 20 20" version="1.1" xmlns="http://www.w3.org/2000/svg" xmlns:xlink="http://www.w3.org/1999/xlink">
    <!-- Generator: sketchtool 48.1 (47250) - http://www.bohemiancoding.com/sketch -->
    <title>B23019D9-1A6A-4928-B661-142F81AADB44</title>
    <desc>Created with sketchtool.</desc>
    <defs></defs>
    <g id="Portfolio_Op.1" stroke="none" stroke-width="1" fill="none" fill-rule="evenodd" transform="translate(-112.000000, -520.000000)">
        <g id="xrp-copy" transform="translate(112.000000, 520.000000)" fill-rule="nonzero">
            <circle id="Oval" fill="#00AAE4" cx="10" cy="10" r="10"></circle>
            <path d="M13.7254536,11.3782601 C13.294046,11.1230833 12.8082272,11.0491234 12.3270125,11.031908 C11.9232749,11.0174649 11.3209165,10.7524264 11.3209165,10.0000351 C11.3209165,9.43945656 11.7645136,8.9883025 12.3272189,8.96817381 C12.8083935,8.95095844 13.2941664,8.87690456 13.7254536,8.62181587 C14.7965079,7.98834487 15.2689776,6.65853006 14.8459759,5.46798989 C14.4229742,4.27744971 13.2266204,3.56988928 12.0086697,3.78991982 C10.790719,4.00995036 9.90279,5.09404976 9.90283237,6.36100025 C9.90283237,6.86681362 10.0784445,7.33228744 10.3025221,7.76400587 C10.4909831,8.12710937 10.5863316,8.80103581 9.93996269,9.1833165 C9.45913781,9.4677025 8.85906137,9.28763094 8.55932994,8.7962195 C8.30614894,8.38115844 8.00051769,7.99225831 7.572619,7.73913131 C6.50158269,7.10566112 5.1411704,7.3513945 4.34621589,8.32192156 C3.55126137,9.29244862 3.55126137,10.7075862 4.34621589,11.6781133 C5.1411704,12.6486404 6.50158269,12.8943737 7.572619,12.2609036 C8.00039725,12.0078706 8.30605719,11.6192229 8.55907762,11.2044145 C8.76684912,10.8637891 9.28576175,10.4296037 9.93993975,10.8168065 C10.4200307,11.1009693 10.5684487,11.7235609 10.3022985,12.2363756 C10.0782553,12.6680294 9.90286675,13.1334033 9.90286675,13.6391286 C9.90286869,14.9060476 10.7908041,15.9900919 12.0087291,16.2100904 C13.2266541,16.4300889 14.4229661,15.7225304 14.8459494,14.5320168 C15.2689328,13.3415032 14.7964765,12.0117239 13.7254536,11.3782601 Z" id="Shape" fill="#FFFFFF"></path>
        </g>
    </g>
</svg>