<?xml version="1.0" encoding="utf-8"?>
<!-- Generator: Adobe Illustrator 16.0.0, SVG Export Plug-In . SVG Version: 6.00 Build 0)  -->
<!DOCTYPE svg PUBLIC "-//W3C//DTD SVG 1.1//EN" "http://www.w3.org/Graphics/SVG/1.1/DTD/svg11.dtd">
<svg version="1.1" id="Layer_1" xmlns="http://www.w3.org/2000/svg" xmlns:xlink="http://www.w3.org/1999/xlink" x="0px" y="0px"
	 width="285.473px" height="280.563px" viewBox="0 0 285.473 280.563" enable-background="new 0 0 285.473 280.563"
	 xml:space="preserve">
<g>
	<path fill="#F04F22" d="M65.43,9.817H21.055c-8.177,0-14.726,6.55-14.726,14.691v44.378c0,8.18,6.549,14.85,14.726,14.85H65.43
		c8.15,0,14.814-6.67,14.814-14.85V24.508C80.246,16.366,73.581,9.817,65.43,9.817L65.43,9.817z M66.917,68.651
		c0,0.962-0.79,1.747-1.789,1.747h-44.25c-0.968,0-1.752-0.785-1.752-1.747V24.365c0-0.97,0.785-1.755,1.752-1.755h44.25
		c0.999,0,1.789,0.785,1.789,1.755V68.651z"/>
	<rect x="29.112" y="32.592" fill="#F04F22" width="28.356" height="28.363"/>
	<path fill="#F04F22" d="M65.43,125.432H21.055c-8.177,0-14.726,6.51-14.726,14.662v44.384c0,8.171,6.549,14.866,14.726,14.866
		H65.43c8.15,0,14.814-6.695,14.814-14.866v-44.384C80.246,131.942,73.581,125.432,65.43,125.432L65.43,125.432z M66.917,184.447
		c0,0.963-0.701,1.569-1.664,1.569H20.988c-0.963,0-1.862-0.606-1.862-1.569v-44.26c0-0.965,0.899-1.964,1.862-1.964h44.266
		c0.962,0,1.664,0.999,1.664,1.964L66.917,184.447L66.917,184.447z"/>
	<rect x="29.112" y="148.211" fill="#F04F22" width="28.356" height="28.357"/>
	<path fill="#F04F22" d="M136.035,83.735h44.35c8.182,0,14.902-6.67,14.902-14.85V24.508c0-8.142-6.723-14.691-14.902-14.691h-44.35
		c-8.182,0-14.663,6.55-14.663,14.691v44.378C121.372,77.066,127.853,83.735,136.035,83.735L136.035,83.735z M134.168,24.365
		c0-0.97,0.779-1.755,1.742-1.755h44.292c0.969,0,1.752,0.785,1.752,1.755v44.287c0,0.962-0.783,1.747-1.752,1.747H135.91
		c-0.962,0-1.742-0.785-1.742-1.747V24.365z"/>
	<rect x="143.604" y="32.592" fill="#F04F22" width="28.898" height="28.363"/>
	<path fill="#F04F22" d="M32.883,92.091h-9.777c-2.118,0-3.98,1.756-3.98,3.893v9.778c0,2.141,1.862,4.1,3.98,4.1h9.354v0.123
		c0,2.142,1.501,3.767,3.62,3.767h21.929v0.458c0,2.143,1.909,3.981,4.018,3.981h9.804c2.145,0,3.985-1.839,3.985-3.981v-9.476
		c0-2.141-1.841-3.77-3.985-3.77h-4.912v-4.979c0-2.137-1.69-3.893-3.83-3.893h-5.283c-2.113,0-3.677,1.756-3.677,3.893v4.979
		H36.894v-4.979C36.894,93.847,35.022,92.091,32.883,92.091L32.883,92.091z"/>
	<path fill="#F04F22" d="M95.243,51.505v21.67c0,2.138,1.479,3.89,3.62,3.89h13.999c2.139,0,4.074-1.752,4.074-3.89v-9.784
		c0-2.135-1.936-4.125-4.074-4.125h-4.829V29.272h0.602c2.14,0,3.866-1.647,3.866-3.77v-5.271c0-2.119-1.727-3.746-3.866-3.746
		H90.122c-2.155,0-3.746,1.626-3.746,3.746v5.271c0,2.122,1.59,3.77,3.746,3.77h5.121v13.881h-5.121
		c-2.155,0-3.746,1.814-3.746,3.955v0.728c0,2.108,1.59,3.672,3.746,3.672h5.121V51.505z"/>
	<path fill="#F04F22" d="M105.804,96.553v-9.5c0-2.142-1.721-3.862-3.859-3.862h-9.506c-2.113,0-3.865,1.721-3.865,3.862v9.5
		c0,2.118,1.752,3.86,3.865,3.86h9.506C104.083,100.414,105.804,98.701,105.804,96.553L105.804,96.553z"/>
	<path fill="#F04F22" d="M122.696,99.875c-2.135,0-4.102,1.836-4.102,3.958v3.829c3.354-2.835,7-5.582,10.619-7.787H122.696z"/>
	<path fill="#F04F22" d="M117.6,108.744h-16.625c-2.14,0-4.049,1.692-4.049,3.837v22.29c4.441-8.023,9.756-15.534,16.473-22.269
		C114.733,111.284,116.182,109.862,117.6,108.744L117.6,108.744z"/>
	<path fill="#F04F22" stroke="#FFFFFF" stroke-width="2.035" stroke-miterlimit="10" d="M280.211,250.144l-36.389-36.377
		c19.137-30.629,15.48-71.75-11.188-98.423c-31.012-30.986-81.459-31.021-112.48,0c-31.016,31.015-30.947,81.432,0.063,112.417
		c26.667,26.668,67.552,30.564,98.449,11.168l36.389,36.351c6.967,7.005,18.219,7.063,25.219,0.059
		C287.246,268.368,287.184,257.112,280.211,250.144L280.211,250.144z M217.49,212.647c-22.656,22.656-59.498,22.656-82.16,0
		c-22.656-22.661-22.656-59.498,0-82.157c22.662-22.627,59.503-22.627,82.16,0C240.115,153.149,240.115,189.986,217.49,212.647
		L217.49,212.647z"/>
</g>
</svg>
