<svg width="112" height="122" viewBox="0 0 112 122" version="1.1" xmlns="http://www.w3.org/2000/svg" xmlns:xlink="http://www.w3.org/1999/xlink">
<title>security</title>
<desc>Created using Figma</desc>
<g id="Canvas" transform="translate(12688 7395)">
<g id="security">
<g id="Vector">
<mask id="mask0_outline_ins">
<use xlink:href="#path0_fill" fill="white" transform="translate(-12688 -7395)"/>
</mask>
<g mask="url(#mask0_outline_ins)">
<use xlink:href="#path1_stroke_2x" transform="translate(-12688 -7395)" fill="#f6a704"/>
</g>
</g>
<g id="Union">
<mask id="mask1_outline_ins">
<use xlink:href="#path2_fill" fill="white" transform="translate(-12646.1 -7362.41)"/>
</mask>
<g mask="url(#mask1_outline_ins)">
<use xlink:href="#path3_stroke_2x" transform="translate(-12646.1 -7362.41)" fill="#f6a704"/>
</g>
</g>
</g>
</g>
<defs>
<path id="path0_fill" d="M 111.654 15.1722C 111.432 15.1722 111.234 15.1722 111.037 15.1722C 107.591 15.0374 104.133 15.0351 100.704 14.7301C 95.7632 14.2881 91.0822 12.7965 86.6516 10.5981C 83.3299 8.94333 80.0773 7.17042 76.7818 5.46842C 71.3115 2.64594 65.5956 0.612996 59.3742 0.142582C 54.8692 -0.225996 50.3338 0.121141 45.9393 1.17087C 41.8593 2.16371 38.0582 3.84206 34.3549 5.7639C 30.4037 7.8063 26.5454 10.0756 22.4081 11.7965C 18.3739 13.4938 14.0888 14.5316 9.71963 14.8696C 7.39465 15.0422 5.05774 15.054 2.72798 15.1202C 1.83614 15.1462 0.941917 15.1202 0.0357689 15.1202C 0.0165995 15.251 0.00465874 15.3828 -1.81931e-08 15.5149C 0.140691 20.7746 0.205076 26.039 0.453074 31.2939C 0.710611 36.7852 1.46653 42.2292 2.47045 47.6401C 3.82143 55.0381 5.86267 62.2957 8.56787 69.3193C 11.9605 78.1404 16.5657 86.4547 22.2531 94.0267C 27.1493 100.561 32.906 106.417 39.3698 111.437C 44.3178 115.266 49.583 118.576 55.411 120.944C 55.6356 121.046 55.8905 121.062 56.1263 120.989C 58.5324 119.852 60.9957 118.814 63.3064 117.507C 70.7988 113.276 77.335 107.846 83.1868 101.586C 88.7588 95.5877 93.5451 88.9162 97.4324 81.7297C 100.983 75.1829 103.844 68.2913 105.972 61.1639C 107.82 55.1396 109.175 48.9775 110.025 42.7374C 110.56 38.6857 111.06 34.6199 111.296 30.5469C 111.583 25.5827 111.575 20.5973 111.692 15.6213C 111.685 15.4889 111.666 15.3707 111.654 15.1722Z"/>
<path id="path1_stroke_2x" d="M 111.654 15.1722L 119.64 14.6927L 119.188 7.17217L 111.654 7.17217L 111.654 15.1722ZM 111.037 15.1722L 110.724 23.1661L 110.88 23.1722L 111.037 23.1722L 111.037 15.1722ZM 100.704 14.7301L 99.9912 22.6983L 99.9954 22.6987L 100.704 14.7301ZM 86.6516 10.5981L 83.0845 17.7588L 83.0958 17.7644L 86.6516 10.5981ZM 76.7818 5.46842L 80.4528 -1.63959L 80.45 -1.64102L 76.7818 5.46842ZM 59.3742 0.142582L 58.7218 8.11594L 58.7464 8.11795L 58.771 8.11981L 59.3742 0.142582ZM 45.9393 1.17087L 44.0806 -6.61021L 44.0642 -6.60629L 44.0478 -6.6023L 45.9393 1.17087ZM 34.3549 5.7639L 38.0284 12.8707L 38.0399 12.8647L 34.3549 5.7639ZM 22.4081 11.7965L 19.3357 4.41005L 19.3207 4.41628L 19.3058 4.42256L 22.4081 11.7965ZM 9.71963 14.8696L 10.3118 22.8476L 10.3242 22.8467L 10.3367 22.8458L 9.71963 14.8696ZM 2.72798 15.1202L 2.50079 7.12339L 2.49483 7.12356L 2.72798 15.1202ZM 0.0357689 15.1202L 0.0357689 7.12017L -6.87759 7.12017L -7.87973 13.9605L 0.0357689 15.1202ZM -1.81931e-08 15.5149L -7.99503 15.2331L -8.00377 15.4809L -7.99714 15.7289L -1.81931e-08 15.5149ZM 0.453074 31.2939L 8.44429 30.9191L 8.44418 30.9167L 0.453074 31.2939ZM 2.47045 47.6401L 10.3403 46.203L 10.3383 46.1919L 10.3362 46.1808L 2.47045 47.6401ZM 8.56787 69.3193L 16.0347 66.4476L 16.0333 66.444L 8.56787 69.3193ZM 22.2531 94.0267L 28.6553 89.2296L 28.6497 89.2221L 22.2531 94.0267ZM 39.3698 111.437L 34.4626 117.755L 34.4734 117.763L 39.3698 111.437ZM 55.411 120.944L 58.7229 113.662L 58.5743 113.594L 58.4231 113.533L 55.411 120.944ZM 56.1263 120.989L 58.4994 128.629L 59.0362 128.462L 59.5444 128.222L 56.1263 120.989ZM 63.3064 117.507L 59.3724 110.541L 59.3672 110.544L 63.3064 117.507ZM 83.1868 101.586L 89.0308 107.05L 89.0395 107.04L 89.0483 107.031L 83.1868 101.586ZM 97.4324 81.7297L 90.3999 77.9161L 90.3959 77.9235L 97.4324 81.7297ZM 105.972 61.1639L 98.3234 58.8177L 98.3146 58.8467L 98.3059 58.8757L 105.972 61.1639ZM 110.025 42.7374L 117.952 43.8173L 117.955 43.8002L 117.957 43.7831L 110.025 42.7374ZM 111.296 30.5469L 119.283 31.0098L 119.283 31.0073L 111.296 30.5469ZM 111.692 15.6213L 119.69 15.8091L 119.697 15.4992L 119.681 15.1896L 111.692 15.6213ZM 111.654 7.17217C 111.654 7.17217 111.653 7.17217 111.653 7.17217C 111.652 7.17217 111.652 7.17217 111.652 7.17217C 111.651 7.17217 111.651 7.17217 111.65 7.17217C 111.65 7.17217 111.649 7.17217 111.649 7.17217C 111.649 7.17217 111.648 7.17217 111.648 7.17217C 111.647 7.17217 111.647 7.17217 111.646 7.17217C 111.646 7.17217 111.645 7.17217 111.645 7.17217C 111.645 7.17217 111.644 7.17217 111.644 7.17217C 111.643 7.17217 111.643 7.17217 111.642 7.17217C 111.642 7.17217 111.642 7.17217 111.641 7.17217C 111.641 7.17217 111.64 7.17217 111.64 7.17217C 111.639 7.17217 111.639 7.17217 111.639 7.17217C 111.638 7.17217 111.638 7.17217 111.637 7.17217C 111.637 7.17217 111.636 7.17217 111.636 7.17217C 111.636 7.17217 111.635 7.17217 111.635 7.17217C 111.634 7.17217 111.634 7.17217 111.633 7.17217C 111.633 7.17217 111.633 7.17217 111.632 7.17217C 111.632 7.17217 111.631 7.17217 111.631 7.17217C 111.63 7.17217 111.63 7.17217 111.63 7.17217C 111.629 7.17217 111.629 7.17217 111.628 7.17217C 111.628 7.17217 111.627 7.17217 111.627 7.17217C 111.627 7.17217 111.626 7.17217 111.626 7.17217C 111.625 7.17217 111.625 7.17217 111.624 7.17217C 111.624 7.17217 111.624 7.17217 111.623 7.17217C 111.623 7.17217 111.622 7.17217 111.622 7.17217C 111.621 7.17217 111.621 7.17217 111.621 7.17217C 111.62 7.17217 111.62 7.17217 111.619 7.17217C 111.619 7.17217 111.618 7.17217 111.618 7.17217C 111.618 7.17217 111.617 7.17217 111.617 7.17217C 111.616 7.17217 111.616 7.17217 111.615 7.17217C 111.615 7.17217 111.615 7.17217 111.614 7.17217C 111.614 7.17217 111.613 7.17217 111.613 7.17217C 111.612 7.17217 111.612 7.17217 111.612 7.17217C 111.611 7.17217 111.611 7.17217 111.61 7.17217C 111.61 7.17217 111.609 7.17217 111.609 7.17217C 111.609 7.17217 111.608 7.17217 111.608 7.17217C 111.607 7.17217 111.607 7.17217 111.606 7.17217C 111.606 7.17217 111.606 7.17217 111.605 7.17217C 111.605 7.17217 111.604 7.17217 111.604 7.17217C 111.603 7.17217 111.603 7.17217 111.603 7.17217C 111.602 7.17217 111.602 7.17217 111.601 7.17217C 111.601 7.17217 111.6 7.17217 111.6 7.17217C 111.6 7.17217 111.599 7.17217 111.599 7.17217C 111.598 7.17217 111.598 7.17217 111.597 7.17217C 111.597 7.17217 111.597 7.17217 111.596 7.17217C 111.596 7.17217 111.595 7.17217 111.595 7.17217C 111.595 7.17217 111.594 7.17217 111.594 7.17217C 111.593 7.17217 111.593 7.17217 111.592 7.17217C 111.592 7.17217 111.592 7.17217 111.591 7.17217C 111.591 7.17217 111.59 7.17217 111.59 7.17217C 111.589 7.17217 111.589 7.17217 111.589 7.17217C 111.588 7.17217 111.588 7.17217 111.587 7.17217C 111.587 7.17217 111.586 7.17217 111.586 7.17217C 111.586 7.17217 111.585 7.17217 111.585 7.17217C 111.584 7.17217 111.584 7.17217 111.583 7.17217C 111.583 7.17217 111.583 7.17217 111.582 7.17217C 111.582 7.17217 111.581 7.17217 111.581 7.17217C 111.581 7.17217 111.58 7.17217 111.58 7.17217C 111.579 7.17217 111.579 7.17217 111.578 7.17217C 111.578 7.17217 111.578 7.17217 111.577 7.17217C 111.577 7.17217 111.576 7.17217 111.576 7.17217C 111.575 7.17217 111.575 7.17217 111.575 7.17217C 111.574 7.17217 111.574 7.17217 111.573 7.17217C 111.573 7.17217 111.572 7.17217 111.572 7.17217C 111.572 7.17217 111.571 7.17217 111.571 7.17217C 111.57 7.17217 111.57 7.17217 111.57 7.17217C 111.569 7.17217 111.569 7.17217 111.568 7.17217C 111.568 7.17217 111.567 7.17217 111.567 7.17217C 111.567 7.17217 111.566 7.17217 111.566 7.17217C 111.565 7.17217 111.565 7.17217 111.564 7.17217C 111.564 7.17217 111.564 7.17217 111.563 7.17217C 111.563 7.17217 111.562 7.17217 111.562 7.17217C 111.562 7.17217 111.561 7.17217 111.561 7.17217C 111.56 7.17217 111.56 7.17217 111.559 7.17217C 111.559 7.17217 111.559 7.17217 111.558 7.17217C 111.558 7.17217 111.557 7.17217 111.557 7.17217C 111.556 7.17217 111.556 7.17217 111.556 7.17217C 111.555 7.17217 111.555 7.17217 111.554 7.17217C 111.554 7.17217 111.554 7.17217 111.553 7.17217C 111.553 7.17217 111.552 7.17217 111.552 7.17217C 111.551 7.17217 111.551 7.17217 111.551 7.17217C 111.55 7.17217 111.55 7.17217 111.549 7.17217C 111.549 7.17217 111.548 7.17217 111.548 7.17217C 111.548 7.17217 111.547 7.17217 111.547 7.17217C 111.546 7.17217 111.546 7.17217 111.546 7.17217C 111.545 7.17217 111.545 7.17217 111.544 7.17217C 111.544 7.17217 111.543 7.17217 111.543 7.17217C 111.543 7.17217 111.542 7.17217 111.542 7.17217C 111.541 7.17217 111.541 7.17217 111.541 7.17217C 111.54 7.17217 111.54 7.17217 111.539 7.17217C 111.539 7.17217 111.538 7.17217 111.538 7.17217C 111.538 7.17217 111.537 7.17217 111.537 7.17217C 111.536 7.17217 111.536 7.17217 111.536 7.17217C 111.535 7.17217 111.535 7.17217 111.534 7.17217C 111.534 7.17217 111.533 7.17217 111.533 7.17217C 111.533 7.17217 111.532 7.17217 111.532 7.17217C 111.531 7.17217 111.531 7.17217 111.531 7.17217C 111.53 7.17217 111.53 7.17217 111.529 7.17217C 111.529 7.17217 111.528 7.17217 111.528 7.17217C 111.528 7.17217 111.527 7.17217 111.527 7.17217C 111.526 7.17217 111.526 7.17217 111.526 7.17217C 111.525 7.17217 111.525 7.17217 111.524 7.17217C 111.524 7.17217 111.523 7.17217 111.523 7.17217C 111.523 7.17217 111.522 7.17217 111.522 7.17217C 111.521 7.17217 111.521 7.17217 111.521 7.17217C 111.52 7.17217 111.52 7.17217 111.519 7.17217C 111.519 7.17217 111.518 7.17217 111.518 7.17217C 111.518 7.17217 111.517 7.17217 111.517 7.17217C 111.516 7.17217 111.516 7.17217 111.516 7.17217C 111.515 7.17217 111.515 7.17217 111.514 7.17217C 111.514 7.17217 111.513 7.17217 111.513 7.17217C 111.513 7.17217 111.512 7.17217 111.512 7.17217C 111.511 7.17217 111.511 7.17217 111.511 7.17217C 111.51 7.17217 111.51 7.17217 111.509 7.17217C 111.509 7.17217 111.508 7.17217 111.508 7.17217C 111.508 7.17217 111.507 7.17217 111.507 7.17217C 111.506 7.17217 111.506 7.17217 111.506 7.17217C 111.505 7.17217 111.505 7.17217 111.504 7.17217C 111.504 7.17217 111.503 7.17217 111.503 7.17217C 111.503 7.17217 111.502 7.17217 111.502 7.17217C 111.501 7.17217 111.501 7.17217 111.501 7.17217C 111.5 7.17217 111.5 7.17217 111.499 7.17217C 111.499 7.17217 111.499 7.17217 111.498 7.17217C 111.498 7.17217 111.497 7.17217 111.497 7.17217C 111.496 7.17217 111.496 7.17217 111.496 7.17217C 111.495 7.17217 111.495 7.17217 111.494 7.17217C 111.494 7.17217 111.494 7.17217 111.493 7.17217C 111.493 7.17217 111.492 7.17217 111.492 7.17217C 111.492 7.17217 111.491 7.17217 111.491 7.17217C 111.49 7.17217 111.49 7.17217 111.489 7.17217C 111.489 7.17217 111.489 7.17217 111.488 7.17217C 111.488 7.17217 111.487 7.17217 111.487 7.17217C 111.487 7.17217 111.486 7.17217 111.486 7.17217C 111.485 7.17217 111.485 7.17217 111.485 7.17217C 111.484 7.17217 111.484 7.17217 111.483 7.17217C 111.483 7.17217 111.482 7.17217 111.482 7.17217C 111.482 7.17217 111.481 7.17217 111.481 7.17217C 111.48 7.17217 111.48 7.17217 111.48 7.17217C 111.479 7.17217 111.479 7.17217 111.478 7.17217C 111.478 7.17217 111.478 7.17217 111.477 7.17217C 111.477 7.17217 111.476 7.17217 111.476 7.17217C 111.475 7.17217 111.475 7.17217 111.475 7.17217C 111.474 7.17217 111.474 7.17217 111.473 7.17217C 111.473 7.17217 111.473 7.17217 111.472 7.17217C 111.472 7.17217 111.471 7.17217 111.471 7.17217C 111.471 7.17217 111.47 7.17217 111.47 7.17217C 111.469 7.17217 111.469 7.17217 111.468 7.17217C 111.468 7.17217 111.468 7.17217 111.467 7.17217C 111.467 7.17217 111.466 7.17217 111.466 7.17217C 111.466 7.17217 111.465 7.17217 111.465 7.17217C 111.464 7.17217 111.464 7.17217 111.464 7.17217C 111.463 7.17217 111.463 7.17217 111.462 7.17217C 111.462 7.17217 111.462 7.17217 111.461 7.17217C 111.461 7.17217 111.46 7.17217 111.46 7.17217C 111.459 7.17217 111.459 7.17217 111.459 7.17217C 111.458 7.17217 111.458 7.17217 111.457 7.17217C 111.457 7.17217 111.457 7.17217 111.456 7.17217C 111.456 7.17217 111.455 7.17217 111.455 7.17217C 111.455 7.17217 111.454 7.17217 111.454 7.17217C 111.453 7.17217 111.453 7.17217 111.453 7.17217C 111.452 7.17217 111.452 7.17217 111.451 7.17217C 111.451 7.17217 111.45 7.17217 111.45 7.17217C 111.45 7.17217 111.449 7.17217 111.449 7.17217C 111.448 7.17217 111.448 7.17217 111.448 7.17217C 111.447 7.17217 111.447 7.17217 111.446 7.17217C 111.446 7.17217 111.446 7.17217 111.445 7.17217C 111.445 7.17217 111.444 7.17217 111.444 7.17217C 111.444 7.17217 111.443 7.17217 111.443 7.17217C 111.442 7.17217 111.442 7.17217 111.441 7.17217C 111.441 7.17217 111.441 7.17217 111.44 7.17217C 111.44 7.17217 111.439 7.17217 111.439 7.17217C 111.439 7.17217 111.438 7.17217 111.438 7.17217C 111.437 7.17217 111.437 7.17217 111.437 7.17217C 111.436 7.17217 111.436 7.17217 111.435 7.17217C 111.435 7.17217 111.435 7.17217 111.434 7.17217C 111.434 7.17217 111.433 7.17217 111.433 7.17217C 111.433 7.17217 111.432 7.17217 111.432 7.17217C 111.431 7.17217 111.431 7.17217 111.43 7.17217C 111.43 7.17217 111.43 7.17217 111.429 7.17217C 111.429 7.17217 111.428 7.17217 111.428 7.17217C 111.428 7.17217 111.427 7.17217 111.427 7.17217C 111.426 7.17217 111.426 7.17217 111.426 7.17217C 111.425 7.17217 111.425 7.17217 111.424 7.17217C 111.424 7.17217 111.424 7.17217 111.423 7.17217C 111.423 7.17217 111.422 7.17217 111.422 7.17217C 111.422 7.17217 111.421 7.17217 111.421 7.17217C 111.42 7.17217 111.42 7.17217 111.42 7.17217C 111.419 7.17217 111.419 7.17217 111.418 7.17217C 111.418 7.17217 111.418 7.17217 111.417 7.17217C 111.417 7.17217 111.416 7.17217 111.416 7.17217C 111.415 7.17217 111.415 7.17217 111.415 7.17217C 111.414 7.17217 111.414 7.17217 111.413 7.17217C 111.413 7.17217 111.413 7.17217 111.412 7.17217C 111.412 7.17217 111.411 7.17217 111.411 7.17217C 111.411 7.17217 111.41 7.17217 111.41 7.17217C 111.409 7.17217 111.409 7.17217 111.409 7.17217C 111.408 7.17217 111.408 7.17217 111.407 7.17217C 111.407 7.17217 111.407 7.17217 111.406 7.17217C 111.406 7.17217 111.405 7.17217 111.405 7.17217C 111.405 7.17217 111.404 7.17217 111.404 7.17217C 111.403 7.17217 111.403 7.17217 111.403 7.17217C 111.402 7.17217 111.402 7.17217 111.401 7.17217C 111.401 7.17217 111.401 7.17217 111.4 7.17217C 111.4 7.17217 111.399 7.17217 111.399 7.17217C 111.399 7.17217 111.398 7.17217 111.398 7.17217C 111.397 7.17217 111.397 7.17217 111.396 7.17217C 111.396 7.17217 111.396 7.17217 111.395 7.17217C 111.395 7.17217 111.394 7.17217 111.394 7.17217C 111.394 7.17217 111.393 7.17217 111.393 7.17217C 111.392 7.17217 111.392 7.17217 111.392 7.17217C 111.391 7.17217 111.391 7.17217 111.39 7.17217C 111.39 7.17217 111.39 7.17217 111.389 7.17217C 111.389 7.17217 111.388 7.17217 111.388 7.17217C 111.388 7.17217 111.387 7.17217 111.387 7.17217C 111.386 7.17217 111.386 7.17217 111.386 7.17217C 111.385 7.17217 111.385 7.17217 111.384 7.17217C 111.384 7.17217 111.384 7.17217 111.383 7.17217C 111.383 7.17217 111.382 7.17217 111.382 7.17217C 111.382 7.17217 111.381 7.17217 111.381 7.17217C 111.38 7.17217 111.38 7.17217 111.38 7.17217C 111.379 7.17217 111.379 7.17217 111.378 7.17217C 111.378 7.17217 111.378 7.17217 111.377 7.17217C 111.377 7.17217 111.376 7.17217 111.376 7.17217C 111.376 7.17217 111.375 7.17217 111.375 7.17217C 111.374 7.17217 111.374 7.17217 111.374 7.17217C 111.373 7.17217 111.373 7.17217 111.372 7.17217C 111.372 7.17217 111.372 7.17217 111.371 7.17217C 111.371 7.17217 111.37 7.17217 111.37 7.17217C 111.37 7.17217 111.369 7.17217 111.369 7.17217C 111.368 7.17217 111.368 7.17217 111.368 7.17217C 111.367 7.17217 111.367 7.17217 111.366 7.17217C 111.366 7.17217 111.366 7.17217 111.365 7.17217C 111.365 7.17217 111.364 7.17217 111.364 7.17217C 111.364 7.17217 111.363 7.17217 111.363 7.17217C 111.362 7.17217 111.362 7.17217 111.362 7.17217C 111.361 7.17217 111.361 7.17217 111.36 7.17217C 111.36 7.17217 111.36 7.17217 111.359 7.17217C 111.359 7.17217 111.358 7.17217 111.358 7.17217C 111.358 7.17217 111.357 7.17217 111.357 7.17217C 111.356 7.17217 111.356 7.17217 111.356 7.17217C 111.355 7.17217 111.355 7.17217 111.354 7.17217C 111.354 7.17217 111.354 7.17217 111.353 7.17217C 111.353 7.17217 111.352 7.17217 111.352 7.17217C 111.352 7.17217 111.351 7.17217 111.351 7.17217C 111.35 7.17217 111.35 7.17217 111.35 7.17217C 111.349 7.17217 111.349 7.17217 111.348 7.17217C 111.348 7.17217 111.348 7.17217 111.347 7.17217C 111.347 7.17217 111.346 7.17217 111.346 7.17217C 111.346 7.17217 111.345 7.17217 111.345 7.17217C 111.344 7.17217 111.344 7.17217 111.344 7.17217C 111.343 7.17217 111.343 7.17217 111.342 7.17217C 111.342 7.17217 111.342 7.17217 111.341 7.17217C 111.341 7.17217 111.34 7.17217 111.34 7.17217C 111.34 7.17217 111.339 7.17217 111.339 7.17217C 111.338 7.17217 111.338 7.17217 111.338 7.17217C 111.337 7.17217 111.337 7.17217 111.336 7.17217C 111.336 7.17217 111.336 7.17217 111.335 7.17217C 111.335 7.17217 111.334 7.17217 111.334 7.17217C 111.334 7.17217 111.333 7.17217 111.333 7.17217C 111.332 7.17217 111.332 7.17217 111.332 7.17217C 111.331 7.17217 111.331 7.17217 111.33 7.17217C 111.33 7.17217 111.33 7.17217 111.329 7.17217C 111.329 7.17217 111.328 7.17217 111.328 7.17217C 111.328 7.17217 111.327 7.17217 111.327 7.17217C 111.326 7.17217 111.326 7.17217 111.326 7.17217C 111.325 7.17217 111.325 7.17217 111.324 7.17217C 111.324 7.17217 111.324 7.17217 111.323 7.17217C 111.323 7.17217 111.322 7.17217 111.322 7.17217C 111.322 7.17217 111.321 7.17217 111.321 7.17217C 111.32 7.17217 111.32 7.17217 111.32 7.17217C 111.319 7.17217 111.319 7.17217 111.319 7.17217C 111.318 7.17217 111.318 7.17217 111.317 7.17217C 111.317 7.17217 111.317 7.17217 111.316 7.17217C 111.316 7.17217 111.315 7.17217 111.315 7.17217C 111.315 7.17217 111.314 7.17217 111.314 7.17217C 111.313 7.17217 111.313 7.17217 111.313 7.17217C 111.312 7.17217 111.312 7.17217 111.311 7.17217C 111.311 7.17217 111.311 7.17217 111.31 7.17217C 111.31 7.17217 111.309 7.17217 111.309 7.17217C 111.309 7.17217 111.308 7.17217 111.308 7.17217C 111.307 7.17217 111.307 7.17217 111.307 7.17217C 111.306 7.17217 111.306 7.17217 111.305 7.17217C 111.305 7.17217 111.305 7.17217 111.304 7.17217C 111.304 7.17217 111.303 7.17217 111.303 7.17217C 111.303 7.17217 111.302 7.17217 111.302 7.17217C 111.301 7.17217 111.301 7.17217 111.301 7.17217C 111.3 7.17217 111.3 7.17217 111.299 7.17217C 111.299 7.17217 111.299 7.17217 111.298 7.17217C 111.298 7.17217 111.298 7.17217 111.297 7.17217C 111.297 7.17217 111.296 7.17217 111.296 7.17217C 111.296 7.17217 111.295 7.17217 111.295 7.17217C 111.294 7.17217 111.294 7.17217 111.294 7.17217C 111.293 7.17217 111.293 7.17217 111.292 7.17217C 111.292 7.17217 111.292 7.17217 111.291 7.17217C 111.291 7.17217 111.29 7.17217 111.29 7.17217C 111.29 7.17217 111.289 7.17217 111.289 7.17217C 111.288 7.17217 111.288 7.17217 111.288 7.17217C 111.287 7.17217 111.287 7.17217 111.286 7.17217C 111.286 7.17217 111.286 7.17217 111.285 7.17217C 111.285 7.17217 111.284 7.17217 111.284 7.17217C 111.284 7.17217 111.283 7.17217 111.283 7.17217C 111.283 7.17217 111.282 7.17217 111.282 7.17217C 111.281 7.17217 111.281 7.17217 111.281 7.17217C 111.28 7.17217 111.28 7.17217 111.279 7.17217C 111.279 7.17217 111.279 7.17217 111.278 7.17217C 111.278 7.17217 111.277 7.17217 111.277 7.17217C 111.277 7.17217 111.276 7.17217 111.276 7.17217C 111.275 7.17217 111.275 7.17217 111.275 7.17217C 111.274 7.17217 111.274 7.17217 111.273 7.17217C 111.273 7.17217 111.273 7.17217 111.272 7.17217C 111.272 7.17217 111.271 7.17217 111.271 7.17217C 111.271 7.17217 111.27 7.17217 111.27 7.17217C 111.27 7.17217 111.269 7.17217 111.269 7.17217C 111.268 7.17217 111.268 7.17217 111.268 7.17217C 111.267 7.17217 111.267 7.17217 111.266 7.17217C 111.266 7.17217 111.266 7.17217 111.265 7.17217C 111.265 7.17217 111.264 7.17217 111.264 7.17217C 111.264 7.17217 111.263 7.17217 111.263 7.17217C 111.262 7.17217 111.262 7.17217 111.262 7.17217C 111.261 7.17217 111.261 7.17217 111.26 7.17217C 111.26 7.17217 111.26 7.17217 111.259 7.17217C 111.259 7.17217 111.258 7.17217 111.258 7.17217C 111.258 7.17217 111.257 7.17217 111.257 7.17217C 111.257 7.17217 111.256 7.17217 111.256 7.17217C 111.255 7.17217 111.255 7.17217 111.255 7.17217C 111.254 7.17217 111.254 7.17217 111.253 7.17217C 111.253 7.17217 111.253 7.17217 111.252 7.17217C 111.252 7.17217 111.251 7.17217 111.251 7.17217C 111.251 7.17217 111.25 7.17217 111.25 7.17217C 111.249 7.17217 111.249 7.17217 111.249 7.17217C 111.248 7.17217 111.248 7.17217 111.247 7.17217C 111.247 7.17217 111.247 7.17217 111.246 7.17217C 111.246 7.17217 111.246 7.17217 111.245 7.17217C 111.245 7.17217 111.244 7.17217 111.244 7.17217C 111.244 7.17217 111.243 7.17217 111.243 7.17217C 111.242 7.17217 111.242 7.17217 111.242 7.17217C 111.241 7.17217 111.241 7.17217 111.24 7.17217C 111.24 7.17217 111.24 7.17217 111.239 7.17217C 111.239 7.17217 111.238 7.17217 111.238 7.17217C 111.238 7.17217 111.237 7.17217 111.237 7.17217C 111.237 7.17217 111.236 7.17217 111.236 7.17217C 111.235 7.17217 111.235 7.17217 111.235 7.17217C 111.234 7.17217 111.234 7.17217 111.233 7.17217C 111.233 7.17217 111.233 7.17217 111.232 7.17217C 111.232 7.17217 111.231 7.17217 111.231 7.17217C 111.231 7.17217 111.23 7.17217 111.23 7.17217C 111.229 7.17217 111.229 7.17217 111.229 7.17217C 111.228 7.17217 111.228 7.17217 111.228 7.17217C 111.227 7.17217 111.227 7.17217 111.226 7.17217C 111.226 7.17217 111.226 7.17217 111.225 7.17217C 111.225 7.17217 111.224 7.17217 111.224 7.17217C 111.224 7.17217 111.223 7.17217 111.223 7.17217C 111.222 7.17217 111.222 7.17217 111.222 7.17217C 111.221 7.17217 111.221 7.17217 111.22 7.17217C 111.22 7.17217 111.22 7.17217 111.219 7.17217C 111.219 7.17217 111.219 7.17217 111.218 7.17217C 111.218 7.17217 111.217 7.17217 111.217 7.17217C 111.217 7.17217 111.216 7.17217 111.216 7.17217C 111.215 7.17217 111.215 7.17217 111.215 7.17217C 111.214 7.17217 111.214 7.17217 111.213 7.17217C 111.213 7.17217 111.213 7.17217 111.212 7.17217C 111.212 7.17217 111.211 7.17217 111.211 7.17217C 111.211 7.17217 111.21 7.17217 111.21 7.17217C 111.21 7.17217 111.209 7.17217 111.209 7.17217C 111.208 7.17217 111.208 7.17217 111.208 7.17217C 111.207 7.17217 111.207 7.17217 111.206 7.17217C 111.206 7.17217 111.206 7.17217 111.205 7.17217C 111.205 7.17217 111.204 7.17217 111.204 7.17217C 111.204 7.17217 111.203 7.17217 111.203 7.17217C 111.203 7.17217 111.202 7.17217 111.202 7.17217C 111.201 7.17217 111.201 7.17217 111.201 7.17217C 111.2 7.17217 111.2 7.17217 111.199 7.17217C 111.199 7.17217 111.199 7.17217 111.198 7.17217C 111.198 7.17217 111.197 7.17217 111.197 7.17217C 111.197 7.17217 111.196 7.17217 111.196 7.17217C 111.195 7.17217 111.195 7.17217 111.195 7.17217C 111.194 7.17217 111.194 7.17217 111.194 7.17217C 111.193 7.17217 111.193 7.17217 111.192 7.17217C 111.192 7.17217 111.192 7.17217 111.191 7.17217C 111.191 7.17217 111.19 7.17217 111.19 7.17217C 111.19 7.17217 111.189 7.17217 111.189 7.17217C 111.188 7.17217 111.188 7.17217 111.188 7.17217C 111.187 7.17217 111.187 7.17217 111.187 7.17217C 111.186 7.17217 111.186 7.17217 111.185 7.17217C 111.185 7.17217 111.185 7.17217 111.184 7.17217C 111.184 7.17217 111.183 7.17217 111.183 7.17217C 111.183 7.17217 111.182 7.17217 111.182 7.17217C 111.181 7.17217 111.181 7.17217 111.181 7.17217C 111.18 7.17217 111.18 7.17217 111.18 7.17217C 111.179 7.17217 111.179 7.17217 111.178 7.17217C 111.178 7.17217 111.178 7.17217 111.177 7.17217C 111.177 7.17217 111.176 7.17217 111.176 7.17217C 111.176 7.17217 111.175 7.17217 111.175 7.17217C 111.174 7.17217 111.174 7.17217 111.174 7.17217C 111.173 7.17217 111.173 7.17217 111.173 7.17217C 111.172 7.17217 111.172 7.17217 111.171 7.17217C 111.171 7.17217 111.171 7.17217 111.17 7.17217C 111.17 7.17217 111.169 7.17217 111.169 7.17217C 111.169 7.17217 111.168 7.17217 111.168 7.17217C 111.167 7.17217 111.167 7.17217 111.167 7.17217C 111.166 7.17217 111.166 7.17217 111.166 7.17217C 111.165 7.17217 111.165 7.17217 111.164 7.17217C 111.164 7.17217 111.164 7.17217 111.163 7.17217C 111.163 7.17217 111.162 7.17217 111.162 7.17217C 111.162 7.17217 111.161 7.17217 111.161 7.17217C 111.16 7.17217 111.16 7.17217 111.16 7.17217C 111.159 7.17217 111.159 7.17217 111.159 7.17217C 111.158 7.17217 111.158 7.17217 111.157 7.17217C 111.157 7.17217 111.157 7.17217 111.156 7.17217C 111.156 7.17217 111.155 7.17217 111.155 7.17217C 111.155 7.17217 111.154 7.17217 111.154 7.17217C 111.153 7.17217 111.153 7.17217 111.153 7.17217C 111.152 7.17217 111.152 7.17217 111.152 7.17217C 111.151 7.17217 111.151 7.17217 111.15 7.17217C 111.15 7.17217 111.15 7.17217 111.149 7.17217C 111.149 7.17217 111.148 7.17217 111.148 7.17217C 111.148 7.17217 111.147 7.17217 111.147 7.17217C 111.146 7.17217 111.146 7.17217 111.146 7.17217C 111.145 7.17217 111.145 7.17217 111.145 7.17217C 111.144 7.17217 111.144 7.17217 111.143 7.17217C 111.143 7.17217 111.143 7.17217 111.142 7.17217C 111.142 7.17217 111.141 7.17217 111.141 7.17217C 111.141 7.17217 111.14 7.17217 111.14 7.17217C 111.139 7.17217 111.139 7.17217 111.139 7.17217C 111.138 7.17217 111.138 7.17217 111.138 7.17217C 111.137 7.17217 111.137 7.17217 111.136 7.17217C 111.136 7.17217 111.136 7.17217 111.135 7.17217C 111.135 7.17217 111.134 7.17217 111.134 7.17217C 111.134 7.17217 111.133 7.17217 111.133 7.17217C 111.133 7.17217 111.132 7.17217 111.132 7.17217C 111.131 7.17217 111.131 7.17217 111.131 7.17217C 111.13 7.17217 111.13 7.17217 111.129 7.17217C 111.129 7.17217 111.129 7.17217 111.128 7.17217C 111.128 7.17217 111.127 7.17217 111.127 7.17217C 111.127 7.17217 111.126 7.17217 111.126 7.17217C 111.126 7.17217 111.125 7.17217 111.125 7.17217C 111.124 7.17217 111.124 7.17217 111.124 7.17217C 111.123 7.17217 111.123 7.17217 111.122 7.17217C 111.122 7.17217 111.122 7.17217 111.121 7.17217C 111.121 7.17217 111.12 7.17217 111.12 7.17217C 111.12 7.17217 111.119 7.17217 111.119 7.17217C 111.119 7.17217 111.118 7.17217 111.118 7.17217C 111.117 7.17217 111.117 7.17217 111.117 7.17217C 111.116 7.17217 111.116 7.17217 111.115 7.17217C 111.115 7.17217 111.115 7.17217 111.114 7.17217C 111.114 7.17217 111.114 7.17217 111.113 7.17217C 111.113 7.17217 111.112 7.17217 111.112 7.17217C 111.112 7.17217 111.111 7.17217 111.111 7.17217C 111.11 7.17217 111.11 7.17217 111.11 7.17217C 111.109 7.17217 111.109 7.17217 111.108 7.17217C 111.108 7.17217 111.108 7.17217 111.107 7.17217C 111.107 7.17217 111.107 7.17217 111.106 7.17217C 111.106 7.17217 111.105 7.17217 111.105 7.17217C 111.105 7.17217 111.104 7.17217 111.104 7.17217C 111.103 7.17217 111.103 7.17217 111.103 7.17217C 111.102 7.17217 111.102 7.17217 111.102 7.17217C 111.101 7.17217 111.101 7.17217 111.1 7.17217C 111.1 7.17217 111.1 7.17217 111.099 7.17217C 111.099 7.17217 111.098 7.17217 111.098 7.17217C 111.098 7.17217 111.097 7.17217 111.097 7.17217C 111.096 7.17217 111.096 7.17217 111.096 7.17217C 111.095 7.17217 111.095 7.17217 111.095 7.17217C 111.094 7.17217 111.094 7.17217 111.093 7.17217C 111.093 7.17217 111.093 7.17217 111.092 7.17217C 111.092 7.17217 111.091 7.17217 111.091 7.17217C 111.091 7.17217 111.09 7.17217 111.09 7.17217C 111.09 7.17217 111.089 7.17217 111.089 7.17217C 111.088 7.17217 111.088 7.17217 111.088 7.17217C 111.087 7.17217 111.087 7.17217 111.086 7.17217C 111.086 7.17217 111.086 7.17217 111.085 7.17217C 111.085 7.17217 111.084 7.17217 111.084 7.17217C 111.084 7.17217 111.083 7.17217 111.083 7.17217C 111.083 7.17217 111.082 7.17217 111.082 7.17217C 111.081 7.17217 111.081 7.17217 111.081 7.17217C 111.08 7.17217 111.08 7.17217 111.079 7.17217C 111.079 7.17217 111.079 7.17217 111.078 7.17217C 111.078 7.17217 111.078 7.17217 111.077 7.17217C 111.077 7.17217 111.076 7.17217 111.076 7.17217C 111.076 7.17217 111.075 7.17217 111.075 7.17217C 111.074 7.17217 111.074 7.17217 111.074 7.17217C 111.073 7.17217 111.073 7.17217 111.072 7.17217C 111.072 7.17217 111.072 7.17217 111.071 7.17217C 111.071 7.17217 111.071 7.17217 111.07 7.17217C 111.07 7.17217 111.069 7.17217 111.069 7.17217C 111.069 7.17217 111.068 7.17217 111.068 7.17217C 111.067 7.17217 111.067 7.17217 111.067 7.17217C 111.066 7.17217 111.066 7.17217 111.066 7.17217C 111.065 7.17217 111.065 7.17217 111.064 7.17217C 111.064 7.17217 111.064 7.17217 111.063 7.17217C 111.063 7.17217 111.062 7.17217 111.062 7.17217C 111.062 7.17217 111.061 7.17217 111.061 7.17217C 111.061 7.17217 111.06 7.17217 111.06 7.17217C 111.059 7.17217 111.059 7.17217 111.059 7.17217C 111.058 7.17217 111.058 7.17217 111.057 7.17217C 111.057 7.17217 111.057 7.17217 111.056 7.17217C 111.056 7.17217 111.055 7.17217 111.055 7.17217C 111.055 7.17217 111.054 7.17217 111.054 7.17217C 111.054 7.17217 111.053 7.17217 111.053 7.17217C 111.052 7.17217 111.052 7.17217 111.052 7.17217C 111.051 7.17217 111.051 7.17217 111.05 7.17217C 111.05 7.17217 111.05 7.17217 111.049 7.17217C 111.049 7.17217 111.049 7.17217 111.048 7.17217C 111.048 7.17217 111.047 7.17217 111.047 7.17217C 111.047 7.17217 111.046 7.17217 111.046 7.17217C 111.045 7.17217 111.045 7.17217 111.045 7.17217C 111.044 7.17217 111.044 7.17217 111.043 7.17217C 111.043 7.17217 111.043 7.17217 111.042 7.17217C 111.042 7.17217 111.042 7.17217 111.041 7.17217C 111.041 7.17217 111.04 7.17217 111.04 7.17217C 111.04 7.17217 111.039 7.17217 111.039 7.17217C 111.038 7.17217 111.038 7.17217 111.038 7.17217C 111.037 7.17217 111.037 7.17217 111.037 7.17217L 111.037 23.1722C 111.037 23.1722 111.037 23.1722 111.038 23.1722C 111.038 23.1722 111.038 23.1722 111.039 23.1722C 111.039 23.1722 111.04 23.1722 111.04 23.1722C 111.04 23.1722 111.041 23.1722 111.041 23.1722C 111.042 23.1722 111.042 23.1722 111.042 23.1722C 111.043 23.1722 111.043 23.1722 111.043 23.1722C 111.044 23.1722 111.044 23.1722 111.045 23.1722C 111.045 23.1722 111.045 23.1722 111.046 23.1722C 111.046 23.1722 111.047 23.1722 111.047 23.1722C 111.047 23.1722 111.048 23.1722 111.048 23.1722C 111.049 23.1722 111.049 23.1722 111.049 23.1722C 111.05 23.1722 111.05 23.1722 111.05 23.1722C 111.051 23.1722 111.051 23.1722 111.052 23.1722C 111.052 23.1722 111.052 23.1722 111.053 23.1722C 111.053 23.1722 111.054 23.1722 111.054 23.1722C 111.054 23.1722 111.055 23.1722 111.055 23.1722C 111.055 23.1722 111.056 23.1722 111.056 23.1722C 111.057 23.1722 111.057 23.1722 111.057 23.1722C 111.058 23.1722 111.058 23.1722 111.059 23.1722C 111.059 23.1722 111.059 23.1722 111.06 23.1722C 111.06 23.1722 111.061 23.1722 111.061 23.1722C 111.061 23.1722 111.062 23.1722 111.062 23.1722C 111.062 23.1722 111.063 23.1722 111.063 23.1722C 111.064 23.1722 111.064 23.1722 111.064 23.1722C 111.065 23.1722 111.065 23.1722 111.066 23.1722C 111.066 23.1722 111.066 23.1722 111.067 23.1722C 111.067 23.1722 111.067 23.1722 111.068 23.1722C 111.068 23.1722 111.069 23.1722 111.069 23.1722C 111.069 23.1722 111.07 23.1722 111.07 23.1722C 111.071 23.1722 111.071 23.1722 111.071 23.1722C 111.072 23.1722 111.072 23.1722 111.072 23.1722C 111.073 23.1722 111.073 23.1722 111.074 23.1722C 111.074 23.1722 111.074 23.1722 111.075 23.1722C 111.075 23.1722 111.076 23.1722 111.076 23.1722C 111.076 23.1722 111.077 23.1722 111.077 23.1722C 111.078 23.1722 111.078 23.1722 111.078 23.1722C 111.079 23.1722 111.079 23.1722 111.079 23.1722C 111.08 23.1722 111.08 23.1722 111.081 23.1722C 111.081 23.1722 111.081 23.1722 111.082 23.1722C 111.082 23.1722 111.083 23.1722 111.083 23.1722C 111.083 23.1722 111.084 23.1722 111.084 23.1722C 111.084 23.1722 111.085 23.1722 111.085 23.1722C 111.086 23.1722 111.086 23.1722 111.086 23.1722C 111.087 23.1722 111.087 23.1722 111.088 23.1722C 111.088 23.1722 111.088 23.1722 111.089 23.1722C 111.089 23.1722 111.09 23.1722 111.09 23.1722C 111.09 23.1722 111.091 23.1722 111.091 23.1722C 111.091 23.1722 111.092 23.1722 111.092 23.1722C 111.093 23.1722 111.093 23.1722 111.093 23.1722C 111.094 23.1722 111.094 23.1722 111.095 23.1722C 111.095 23.1722 111.095 23.1722 111.096 23.1722C 111.096 23.1722 111.096 23.1722 111.097 23.1722C 111.097 23.1722 111.098 23.1722 111.098 23.1722C 111.098 23.1722 111.099 23.1722 111.099 23.1722C 111.1 23.1722 111.1 23.1722 111.1 23.1722C 111.101 23.1722 111.101 23.1722 111.102 23.1722C 111.102 23.1722 111.102 23.1722 111.103 23.1722C 111.103 23.1722 111.103 23.1722 111.104 23.1722C 111.104 23.1722 111.105 23.1722 111.105 23.1722C 111.105 23.1722 111.106 23.1722 111.106 23.1722C 111.107 23.1722 111.107 23.1722 111.107 23.1722C 111.108 23.1722 111.108 23.1722 111.108 23.1722C 111.109 23.1722 111.109 23.1722 111.11 23.1722C 111.11 23.1722 111.11 23.1722 111.111 23.1722C 111.111 23.1722 111.112 23.1722 111.112 23.1722C 111.112 23.1722 111.113 23.1722 111.113 23.1722C 111.114 23.1722 111.114 23.1722 111.114 23.1722C 111.115 23.1722 111.115 23.1722 111.115 23.1722C 111.116 23.1722 111.116 23.1722 111.117 23.1722C 111.117 23.1722 111.117 23.1722 111.118 23.1722C 111.118 23.1722 111.119 23.1722 111.119 23.1722C 111.119 23.1722 111.12 23.1722 111.12 23.1722C 111.12 23.1722 111.121 23.1722 111.121 23.1722C 111.122 23.1722 111.122 23.1722 111.122 23.1722C 111.123 23.1722 111.123 23.1722 111.124 23.1722C 111.124 23.1722 111.124 23.1722 111.125 23.1722C 111.125 23.1722 111.126 23.1722 111.126 23.1722C 111.126 23.1722 111.127 23.1722 111.127 23.1722C 111.127 23.1722 111.128 23.1722 111.128 23.1722C 111.129 23.1722 111.129 23.1722 111.129 23.1722C 111.13 23.1722 111.13 23.1722 111.131 23.1722C 111.131 23.1722 111.131 23.1722 111.132 23.1722C 111.132 23.1722 111.133 23.1722 111.133 23.1722C 111.133 23.1722 111.134 23.1722 111.134 23.1722C 111.134 23.1722 111.135 23.1722 111.135 23.1722C 111.136 23.1722 111.136 23.1722 111.136 23.1722C 111.137 23.1722 111.137 23.1722 111.138 23.1722C 111.138 23.1722 111.138 23.1722 111.139 23.1722C 111.139 23.1722 111.139 23.1722 111.14 23.1722C 111.14 23.1722 111.141 23.1722 111.141 23.1722C 111.141 23.1722 111.142 23.1722 111.142 23.1722C 111.143 23.1722 111.143 23.1722 111.143 23.1722C 111.144 23.1722 111.144 23.1722 111.145 23.1722C 111.145 23.1722 111.145 23.1722 111.146 23.1722C 111.146 23.1722 111.146 23.1722 111.147 23.1722C 111.147 23.1722 111.148 23.1722 111.148 23.1722C 111.148 23.1722 111.149 23.1722 111.149 23.1722C 111.15 23.1722 111.15 23.1722 111.15 23.1722C 111.151 23.1722 111.151 23.1722 111.152 23.1722C 111.152 23.1722 111.152 23.1722 111.153 23.1722C 111.153 23.1722 111.153 23.1722 111.154 23.1722C 111.154 23.1722 111.155 23.1722 111.155 23.1722C 111.155 23.1722 111.156 23.1722 111.156 23.1722C 111.157 23.1722 111.157 23.1722 111.157 23.1722C 111.158 23.1722 111.158 23.1722 111.159 23.1722C 111.159 23.1722 111.159 23.1722 111.16 23.1722C 111.16 23.1722 111.16 23.1722 111.161 23.1722C 111.161 23.1722 111.162 23.1722 111.162 23.1722C 111.162 23.1722 111.163 23.1722 111.163 23.1722C 111.164 23.1722 111.164 23.1722 111.164 23.1722C 111.165 23.1722 111.165 23.1722 111.166 23.1722C 111.166 23.1722 111.166 23.1722 111.167 23.1722C 111.167 23.1722 111.167 23.1722 111.168 23.1722C 111.168 23.1722 111.169 23.1722 111.169 23.1722C 111.169 23.1722 111.17 23.1722 111.17 23.1722C 111.171 23.1722 111.171 23.1722 111.171 23.1722C 111.172 23.1722 111.172 23.1722 111.173 23.1722C 111.173 23.1722 111.173 23.1722 111.174 23.1722C 111.174 23.1722 111.174 23.1722 111.175 23.1722C 111.175 23.1722 111.176 23.1722 111.176 23.1722C 111.176 23.1722 111.177 23.1722 111.177 23.1722C 111.178 23.1722 111.178 23.1722 111.178 23.1722C 111.179 23.1722 111.179 23.1722 111.18 23.1722C 111.18 23.1722 111.18 23.1722 111.181 23.1722C 111.181 23.1722 111.181 23.1722 111.182 23.1722C 111.182 23.1722 111.183 23.1722 111.183 23.1722C 111.183 23.1722 111.184 23.1722 111.184 23.1722C 111.185 23.1722 111.185 23.1722 111.185 23.1722C 111.186 23.1722 111.186 23.1722 111.187 23.1722C 111.187 23.1722 111.187 23.1722 111.188 23.1722C 111.188 23.1722 111.188 23.1722 111.189 23.1722C 111.189 23.1722 111.19 23.1722 111.19 23.1722C 111.19 23.1722 111.191 23.1722 111.191 23.1722C 111.192 23.1722 111.192 23.1722 111.192 23.1722C 111.193 23.1722 111.193 23.1722 111.194 23.1722C 111.194 23.1722 111.194 23.1722 111.195 23.1722C 111.195 23.1722 111.195 23.1722 111.196 23.1722C 111.196 23.1722 111.197 23.1722 111.197 23.1722C 111.197 23.1722 111.198 23.1722 111.198 23.1722C 111.199 23.1722 111.199 23.1722 111.199 23.1722C 111.2 23.1722 111.2 23.1722 111.201 23.1722C 111.201 23.1722 111.201 23.1722 111.202 23.1722C 111.202 23.1722 111.203 23.1722 111.203 23.1722C 111.203 23.1722 111.204 23.1722 111.204 23.1722C 111.204 23.1722 111.205 23.1722 111.205 23.1722C 111.206 23.1722 111.206 23.1722 111.206 23.1722C 111.207 23.1722 111.207 23.1722 111.208 23.1722C 111.208 23.1722 111.208 23.1722 111.209 23.1722C 111.209 23.1722 111.21 23.1722 111.21 23.1722C 111.21 23.1722 111.211 23.1722 111.211 23.1722C 111.211 23.1722 111.212 23.1722 111.212 23.1722C 111.213 23.1722 111.213 23.1722 111.213 23.1722C 111.214 23.1722 111.214 23.1722 111.215 23.1722C 111.215 23.1722 111.215 23.1722 111.216 23.1722C 111.216 23.1722 111.217 23.1722 111.217 23.1722C 111.217 23.1722 111.218 23.1722 111.218 23.1722C 111.219 23.1722 111.219 23.1722 111.219 23.1722C 111.22 23.1722 111.22 23.1722 111.22 23.1722C 111.221 23.1722 111.221 23.1722 111.222 23.1722C 111.222 23.1722 111.222 23.1722 111.223 23.1722C 111.223 23.1722 111.224 23.1722 111.224 23.1722C 111.224 23.1722 111.225 23.1722 111.225 23.1722C 111.226 23.1722 111.226 23.1722 111.226 23.1722C 111.227 23.1722 111.227 23.1722 111.228 23.1722C 111.228 23.1722 111.228 23.1722 111.229 23.1722C 111.229 23.1722 111.229 23.1722 111.23 23.1722C 111.23 23.1722 111.231 23.1722 111.231 23.1722C 111.231 23.1722 111.232 23.1722 111.232 23.1722C 111.233 23.1722 111.233 23.1722 111.233 23.1722C 111.234 23.1722 111.234 23.1722 111.235 23.1722C 111.235 23.1722 111.235 23.1722 111.236 23.1722C 111.236 23.1722 111.237 23.1722 111.237 23.1722C 111.237 23.1722 111.238 23.1722 111.238 23.1722C 111.238 23.1722 111.239 23.1722 111.239 23.1722C 111.24 23.1722 111.24 23.1722 111.24 23.1722C 111.241 23.1722 111.241 23.1722 111.242 23.1722C 111.242 23.1722 111.242 23.1722 111.243 23.1722C 111.243 23.1722 111.244 23.1722 111.244 23.1722C 111.244 23.1722 111.245 23.1722 111.245 23.1722C 111.246 23.1722 111.246 23.1722 111.246 23.1722C 111.247 23.1722 111.247 23.1722 111.247 23.1722C 111.248 23.1722 111.248 23.1722 111.249 23.1722C 111.249 23.1722 111.249 23.1722 111.25 23.1722C 111.25 23.1722 111.251 23.1722 111.251 23.1722C 111.251 23.1722 111.252 23.1722 111.252 23.1722C 111.253 23.1722 111.253 23.1722 111.253 23.1722C 111.254 23.1722 111.254 23.1722 111.255 23.1722C 111.255 23.1722 111.255 23.1722 111.256 23.1722C 111.256 23.1722 111.257 23.1722 111.257 23.1722C 111.257 23.1722 111.258 23.1722 111.258 23.1722C 111.258 23.1722 111.259 23.1722 111.259 23.1722C 111.26 23.1722 111.26 23.1722 111.26 23.1722C 111.261 23.1722 111.261 23.1722 111.262 23.1722C 111.262 23.1722 111.262 23.1722 111.263 23.1722C 111.263 23.1722 111.264 23.1722 111.264 23.1722C 111.264 23.1722 111.265 23.1722 111.265 23.1722C 111.266 23.1722 111.266 23.1722 111.266 23.1722C 111.267 23.1722 111.267 23.1722 111.268 23.1722C 111.268 23.1722 111.268 23.1722 111.269 23.1722C 111.269 23.1722 111.27 23.1722 111.27 23.1722C 111.27 23.1722 111.271 23.1722 111.271 23.1722C 111.271 23.1722 111.272 23.1722 111.272 23.1722C 111.273 23.1722 111.273 23.1722 111.273 23.1722C 111.274 23.1722 111.274 23.1722 111.275 23.1722C 111.275 23.1722 111.275 23.1722 111.276 23.1722C 111.276 23.1722 111.277 23.1722 111.277 23.1722C 111.277 23.1722 111.278 23.1722 111.278 23.1722C 111.279 23.1722 111.279 23.1722 111.279 23.1722C 111.28 23.1722 111.28 23.1722 111.281 23.1722C 111.281 23.1722 111.281 23.1722 111.282 23.1722C 111.282 23.1722 111.283 23.1722 111.283 23.1722C 111.283 23.1722 111.284 23.1722 111.284 23.1722C 111.284 23.1722 111.285 23.1722 111.285 23.1722C 111.286 23.1722 111.286 23.1722 111.286 23.1722C 111.287 23.1722 111.287 23.1722 111.288 23.1722C 111.288 23.1722 111.288 23.1722 111.289 23.1722C 111.289 23.1722 111.29 23.1722 111.29 23.1722C 111.29 23.1722 111.291 23.1722 111.291 23.1722C 111.292 23.1722 111.292 23.1722 111.292 23.1722C 111.293 23.1722 111.293 23.1722 111.294 23.1722C 111.294 23.1722 111.294 23.1722 111.295 23.1722C 111.295 23.1722 111.296 23.1722 111.296 23.1722C 111.296 23.1722 111.297 23.1722 111.297 23.1722C 111.298 23.1722 111.298 23.1722 111.298 23.1722C 111.299 23.1722 111.299 23.1722 111.299 23.1722C 111.3 23.1722 111.3 23.1722 111.301 23.1722C 111.301 23.1722 111.301 23.1722 111.302 23.1722C 111.302 23.1722 111.303 23.1722 111.303 23.1722C 111.303 23.1722 111.304 23.1722 111.304 23.1722C 111.305 23.1722 111.305 23.1722 111.305 23.1722C 111.306 23.1722 111.306 23.1722 111.307 23.1722C 111.307 23.1722 111.307 23.1722 111.308 23.1722C 111.308 23.1722 111.309 23.1722 111.309 23.1722C 111.309 23.1722 111.31 23.1722 111.31 23.1722C 111.311 23.1722 111.311 23.1722 111.311 23.1722C 111.312 23.1722 111.312 23.1722 111.313 23.1722C 111.313 23.1722 111.313 23.1722 111.314 23.1722C 111.314 23.1722 111.315 23.1722 111.315 23.1722C 111.315 23.1722 111.316 23.1722 111.316 23.1722C 111.317 23.1722 111.317 23.1722 111.317 23.1722C 111.318 23.1722 111.318 23.1722 111.319 23.1722C 111.319 23.1722 111.319 23.1722 111.32 23.1722C 111.32 23.1722 111.32 23.1722 111.321 23.1722C 111.321 23.1722 111.322 23.1722 111.322 23.1722C 111.322 23.1722 111.323 23.1722 111.323 23.1722C 111.324 23.1722 111.324 23.1722 111.324 23.1722C 111.325 23.1722 111.325 23.1722 111.326 23.1722C 111.326 23.1722 111.326 23.1722 111.327 23.1722C 111.327 23.1722 111.328 23.1722 111.328 23.1722C 111.328 23.1722 111.329 23.1722 111.329 23.1722C 111.33 23.1722 111.33 23.1722 111.33 23.1722C 111.331 23.1722 111.331 23.1722 111.332 23.1722C 111.332 23.1722 111.332 23.1722 111.333 23.1722C 111.333 23.1722 111.334 23.1722 111.334 23.1722C 111.334 23.1722 111.335 23.1722 111.335 23.1722C 111.336 23.1722 111.336 23.1722 111.336 23.1722C 111.337 23.1722 111.337 23.1722 111.338 23.1722C 111.338 23.1722 111.338 23.1722 111.339 23.1722C 111.339 23.1722 111.34 23.1722 111.34 23.1722C 111.34 23.1722 111.341 23.1722 111.341 23.1722C 111.342 23.1722 111.342 23.1722 111.342 23.1722C 111.343 23.1722 111.343 23.1722 111.344 23.1722C 111.344 23.1722 111.344 23.1722 111.345 23.1722C 111.345 23.1722 111.346 23.1722 111.346 23.1722C 111.346 23.1722 111.347 23.1722 111.347 23.1722C 111.348 23.1722 111.348 23.1722 111.348 23.1722C 111.349 23.1722 111.349 23.1722 111.35 23.1722C 111.35 23.1722 111.35 23.1722 111.351 23.1722C 111.351 23.1722 111.352 23.1722 111.352 23.1722C 111.352 23.1722 111.353 23.1722 111.353 23.1722C 111.354 23.1722 111.354 23.1722 111.354 23.1722C 111.355 23.1722 111.355 23.1722 111.356 23.1722C 111.356 23.1722 111.356 23.1722 111.357 23.1722C 111.357 23.1722 111.358 23.1722 111.358 23.1722C 111.358 23.1722 111.359 23.1722 111.359 23.1722C 111.36 23.1722 111.36 23.1722 111.36 23.1722C 111.361 23.1722 111.361 23.1722 111.362 23.1722C 111.362 23.1722 111.362 23.1722 111.363 23.1722C 111.363 23.1722 111.364 23.1722 111.364 23.1722C 111.364 23.1722 111.365 23.1722 111.365 23.1722C 111.366 23.1722 111.366 23.1722 111.366 23.1722C 111.367 23.1722 111.367 23.1722 111.368 23.1722C 111.368 23.1722 111.368 23.1722 111.369 23.1722C 111.369 23.1722 111.37 23.1722 111.37 23.1722C 111.37 23.1722 111.371 23.1722 111.371 23.1722C 111.372 23.1722 111.372 23.1722 111.372 23.1722C 111.373 23.1722 111.373 23.1722 111.374 23.1722C 111.374 23.1722 111.374 23.1722 111.375 23.1722C 111.375 23.1722 111.376 23.1722 111.376 23.1722C 111.376 23.1722 111.377 23.1722 111.377 23.1722C 111.378 23.1722 111.378 23.1722 111.378 23.1722C 111.379 23.1722 111.379 23.1722 111.38 23.1722C 111.38 23.1722 111.38 23.1722 111.381 23.1722C 111.381 23.1722 111.382 23.1722 111.382 23.1722C 111.382 23.1722 111.383 23.1722 111.383 23.1722C 111.384 23.1722 111.384 23.1722 111.384 23.1722C 111.385 23.1722 111.385 23.1722 111.386 23.1722C 111.386 23.1722 111.386 23.1722 111.387 23.1722C 111.387 23.1722 111.388 23.1722 111.388 23.1722C 111.388 23.1722 111.389 23.1722 111.389 23.1722C 111.39 23.1722 111.39 23.1722 111.39 23.1722C 111.391 23.1722 111.391 23.1722 111.392 23.1722C 111.392 23.1722 111.392 23.1722 111.393 23.1722C 111.393 23.1722 111.394 23.1722 111.394 23.1722C 111.394 23.1722 111.395 23.1722 111.395 23.1722C 111.396 23.1722 111.396 23.1722 111.396 23.1722C 111.397 23.1722 111.397 23.1722 111.398 23.1722C 111.398 23.1722 111.399 23.1722 111.399 23.1722C 111.399 23.1722 111.4 23.1722 111.4 23.1722C 111.401 23.1722 111.401 23.1722 111.401 23.1722C 111.402 23.1722 111.402 23.1722 111.403 23.1722C 111.403 23.1722 111.403 23.1722 111.404 23.1722C 111.404 23.1722 111.405 23.1722 111.405 23.1722C 111.405 23.1722 111.406 23.1722 111.406 23.1722C 111.407 23.1722 111.407 23.1722 111.407 23.1722C 111.408 23.1722 111.408 23.1722 111.409 23.1722C 111.409 23.1722 111.409 23.1722 111.41 23.1722C 111.41 23.1722 111.411 23.1722 111.411 23.1722C 111.411 23.1722 111.412 23.1722 111.412 23.1722C 111.413 23.1722 111.413 23.1722 111.413 23.1722C 111.414 23.1722 111.414 23.1722 111.415 23.1722C 111.415 23.1722 111.415 23.1722 111.416 23.1722C 111.416 23.1722 111.417 23.1722 111.417 23.1722C 111.418 23.1722 111.418 23.1722 111.418 23.1722C 111.419 23.1722 111.419 23.1722 111.42 23.1722C 111.42 23.1722 111.42 23.1722 111.421 23.1722C 111.421 23.1722 111.422 23.1722 111.422 23.1722C 111.422 23.1722 111.423 23.1722 111.423 23.1722C 111.424 23.1722 111.424 23.1722 111.424 23.1722C 111.425 23.1722 111.425 23.1722 111.426 23.1722C 111.426 23.1722 111.426 23.1722 111.427 23.1722C 111.427 23.1722 111.428 23.1722 111.428 23.1722C 111.428 23.1722 111.429 23.1722 111.429 23.1722C 111.43 23.1722 111.43 23.1722 111.43 23.1722C 111.431 23.1722 111.431 23.1722 111.432 23.1722C 111.432 23.1722 111.433 23.1722 111.433 23.1722C 111.433 23.1722 111.434 23.1722 111.434 23.1722C 111.435 23.1722 111.435 23.1722 111.435 23.1722C 111.436 23.1722 111.436 23.1722 111.437 23.1722C 111.437 23.1722 111.437 23.1722 111.438 23.1722C 111.438 23.1722 111.439 23.1722 111.439 23.1722C 111.439 23.1722 111.44 23.1722 111.44 23.1722C 111.441 23.1722 111.441 23.1722 111.441 23.1722C 111.442 23.1722 111.442 23.1722 111.443 23.1722C 111.443 23.1722 111.444 23.1722 111.444 23.1722C 111.444 23.1722 111.445 23.1722 111.445 23.1722C 111.446 23.1722 111.446 23.1722 111.446 23.1722C 111.447 23.1722 111.447 23.1722 111.448 23.1722C 111.448 23.1722 111.448 23.1722 111.449 23.1722C 111.449 23.1722 111.45 23.1722 111.45 23.1722C 111.45 23.1722 111.451 23.1722 111.451 23.1722C 111.452 23.1722 111.452 23.1722 111.453 23.1722C 111.453 23.1722 111.453 23.1722 111.454 23.1722C 111.454 23.1722 111.455 23.1722 111.455 23.1722C 111.455 23.1722 111.456 23.1722 111.456 23.1722C 111.457 23.1722 111.457 23.1722 111.457 23.1722C 111.458 23.1722 111.458 23.1722 111.459 23.1722C 111.459 23.1722 111.459 23.1722 111.46 23.1722C 111.46 23.1722 111.461 23.1722 111.461 23.1722C 111.462 23.1722 111.462 23.1722 111.462 23.1722C 111.463 23.1722 111.463 23.1722 111.464 23.1722C 111.464 23.1722 111.464 23.1722 111.465 23.1722C 111.465 23.1722 111.466 23.1722 111.466 23.1722C 111.466 23.1722 111.467 23.1722 111.467 23.1722C 111.468 23.1722 111.468 23.1722 111.468 23.1722C 111.469 23.1722 111.469 23.1722 111.47 23.1722C 111.47 23.1722 111.471 23.1722 111.471 23.1722C 111.471 23.1722 111.472 23.1722 111.472 23.1722C 111.473 23.1722 111.473 23.1722 111.473 23.1722C 111.474 23.1722 111.474 23.1722 111.475 23.1722C 111.475 23.1722 111.475 23.1722 111.476 23.1722C 111.476 23.1722 111.477 23.1722 111.477 23.1722C 111.478 23.1722 111.478 23.1722 111.478 23.1722C 111.479 23.1722 111.479 23.1722 111.48 23.1722C 111.48 23.1722 111.48 23.1722 111.481 23.1722C 111.481 23.1722 111.482 23.1722 111.482 23.1722C 111.482 23.1722 111.483 23.1722 111.483 23.1722C 111.484 23.1722 111.484 23.1722 111.485 23.1722C 111.485 23.1722 111.485 23.1722 111.486 23.1722C 111.486 23.1722 111.487 23.1722 111.487 23.1722C 111.487 23.1722 111.488 23.1722 111.488 23.1722C 111.489 23.1722 111.489 23.1722 111.489 23.1722C 111.49 23.1722 111.49 23.1722 111.491 23.1722C 111.491 23.1722 111.492 23.1722 111.492 23.1722C 111.492 23.1722 111.493 23.1722 111.493 23.1722C 111.494 23.1722 111.494 23.1722 111.494 23.1722C 111.495 23.1722 111.495 23.1722 111.496 23.1722C 111.496 23.1722 111.496 23.1722 111.497 23.1722C 111.497 23.1722 111.498 23.1722 111.498 23.1722C 111.499 23.1722 111.499 23.1722 111.499 23.1722C 111.5 23.1722 111.5 23.1722 111.501 23.1722C 111.501 23.1722 111.501 23.1722 111.502 23.1722C 111.502 23.1722 111.503 23.1722 111.503 23.1722C 111.503 23.1722 111.504 23.1722 111.504 23.1722C 111.505 23.1722 111.505 23.1722 111.506 23.1722C 111.506 23.1722 111.506 23.1722 111.507 23.1722C 111.507 23.1722 111.508 23.1722 111.508 23.1722C 111.508 23.1722 111.509 23.1722 111.509 23.1722C 111.51 23.1722 111.51 23.1722 111.511 23.1722C 111.511 23.1722 111.511 23.1722 111.512 23.1722C 111.512 23.1722 111.513 23.1722 111.513 23.1722C 111.513 23.1722 111.514 23.1722 111.514 23.1722C 111.515 23.1722 111.515 23.1722 111.516 23.1722C 111.516 23.1722 111.516 23.1722 111.517 23.1722C 111.517 23.1722 111.518 23.1722 111.518 23.1722C 111.518 23.1722 111.519 23.1722 111.519 23.1722C 111.52 23.1722 111.52 23.1722 111.521 23.1722C 111.521 23.1722 111.521 23.1722 111.522 23.1722C 111.522 23.1722 111.523 23.1722 111.523 23.1722C 111.523 23.1722 111.524 23.1722 111.524 23.1722C 111.525 23.1722 111.525 23.1722 111.526 23.1722C 111.526 23.1722 111.526 23.1722 111.527 23.1722C 111.527 23.1722 111.528 23.1722 111.528 23.1722C 111.528 23.1722 111.529 23.1722 111.529 23.1722C 111.53 23.1722 111.53 23.1722 111.531 23.1722C 111.531 23.1722 111.531 23.1722 111.532 23.1722C 111.532 23.1722 111.533 23.1722 111.533 23.1722C 111.533 23.1722 111.534 23.1722 111.534 23.1722C 111.535 23.1722 111.535 23.1722 111.536 23.1722C 111.536 23.1722 111.536 23.1722 111.537 23.1722C 111.537 23.1722 111.538 23.1722 111.538 23.1722C 111.538 23.1722 111.539 23.1722 111.539 23.1722C 111.54 23.1722 111.54 23.1722 111.541 23.1722C 111.541 23.1722 111.541 23.1722 111.542 23.1722C 111.542 23.1722 111.543 23.1722 111.543 23.1722C 111.543 23.1722 111.544 23.1722 111.544 23.1722C 111.545 23.1722 111.545 23.1722 111.546 23.1722C 111.546 23.1722 111.546 23.1722 111.547 23.1722C 111.547 23.1722 111.548 23.1722 111.548 23.1722C 111.548 23.1722 111.549 23.1722 111.549 23.1722C 111.55 23.1722 111.55 23.1722 111.551 23.1722C 111.551 23.1722 111.551 23.1722 111.552 23.1722C 111.552 23.1722 111.553 23.1722 111.553 23.1722C 111.554 23.1722 111.554 23.1722 111.554 23.1722C 111.555 23.1722 111.555 23.1722 111.556 23.1722C 111.556 23.1722 111.556 23.1722 111.557 23.1722C 111.557 23.1722 111.558 23.1722 111.558 23.1722C 111.559 23.1722 111.559 23.1722 111.559 23.1722C 111.56 23.1722 111.56 23.1722 111.561 23.1722C 111.561 23.1722 111.562 23.1722 111.562 23.1722C 111.562 23.1722 111.563 23.1722 111.563 23.1722C 111.564 23.1722 111.564 23.1722 111.564 23.1722C 111.565 23.1722 111.565 23.1722 111.566 23.1722C 111.566 23.1722 111.567 23.1722 111.567 23.1722C 111.567 23.1722 111.568 23.1722 111.568 23.1722C 111.569 23.1722 111.569 23.1722 111.57 23.1722C 111.57 23.1722 111.57 23.1722 111.571 23.1722C 111.571 23.1722 111.572 23.1722 111.572 23.1722C 111.572 23.1722 111.573 23.1722 111.573 23.1722C 111.574 23.1722 111.574 23.1722 111.575 23.1722C 111.575 23.1722 111.575 23.1722 111.576 23.1722C 111.576 23.1722 111.577 23.1722 111.577 23.1722C 111.578 23.1722 111.578 23.1722 111.578 23.1722C 111.579 23.1722 111.579 23.1722 111.58 23.1722C 111.58 23.1722 111.581 23.1722 111.581 23.1722C 111.581 23.1722 111.582 23.1722 111.582 23.1722C 111.583 23.1722 111.583 23.1722 111.583 23.1722C 111.584 23.1722 111.584 23.1722 111.585 23.1722C 111.585 23.1722 111.586 23.1722 111.586 23.1722C 111.586 23.1722 111.587 23.1722 111.587 23.1722C 111.588 23.1722 111.588 23.1722 111.589 23.1722C 111.589 23.1722 111.589 23.1722 111.59 23.1722C 111.59 23.1722 111.591 23.1722 111.591 23.1722C 111.592 23.1722 111.592 23.1722 111.592 23.1722C 111.593 23.1722 111.593 23.1722 111.594 23.1722C 111.594 23.1722 111.595 23.1722 111.595 23.1722C 111.595 23.1722 111.596 23.1722 111.596 23.1722C 111.597 23.1722 111.597 23.1722 111.597 23.1722C 111.598 23.1722 111.598 23.1722 111.599 23.1722C 111.599 23.1722 111.6 23.1722 111.6 23.1722C 111.6 23.1722 111.601 23.1722 111.601 23.1722C 111.602 23.1722 111.602 23.1722 111.603 23.1722C 111.603 23.1722 111.603 23.1722 111.604 23.1722C 111.604 23.1722 111.605 23.1722 111.605 23.1722C 111.606 23.1722 111.606 23.1722 111.606 23.1722C 111.607 23.1722 111.607 23.1722 111.608 23.1722C 111.608 23.1722 111.609 23.1722 111.609 23.1722C 111.609 23.1722 111.61 23.1722 111.61 23.1722C 111.611 23.1722 111.611 23.1722 111.612 23.1722C 111.612 23.1722 111.612 23.1722 111.613 23.1722C 111.613 23.1722 111.614 23.1722 111.614 23.1722C 111.615 23.1722 111.615 23.1722 111.615 23.1722C 111.616 23.1722 111.616 23.1722 111.617 23.1722C 111.617 23.1722 111.618 23.1722 111.618 23.1722C 111.618 23.1722 111.619 23.1722 111.619 23.1722C 111.62 23.1722 111.62 23.1722 111.621 23.1722C 111.621 23.1722 111.621 23.1722 111.622 23.1722C 111.622 23.1722 111.623 23.1722 111.623 23.1722C 111.624 23.1722 111.624 23.1722 111.624 23.1722C 111.625 23.1722 111.625 23.1722 111.626 23.1722C 111.626 23.1722 111.627 23.1722 111.627 23.1722C 111.627 23.1722 111.628 23.1722 111.628 23.1722C 111.629 23.1722 111.629 23.1722 111.63 23.1722C 111.63 23.1722 111.63 23.1722 111.631 23.1722C 111.631 23.1722 111.632 23.1722 111.632 23.1722C 111.633 23.1722 111.633 23.1722 111.633 23.1722C 111.634 23.1722 111.634 23.1722 111.635 23.1722C 111.635 23.1722 111.636 23.1722 111.636 23.1722C 111.636 23.1722 111.637 23.1722 111.637 23.1722C 111.638 23.1722 111.638 23.1722 111.639 23.1722C 111.639 23.1722 111.639 23.1722 111.64 23.1722C 111.64 23.1722 111.641 23.1722 111.641 23.1722C 111.642 23.1722 111.642 23.1722 111.642 23.1722C 111.643 23.1722 111.643 23.1722 111.644 23.1722C 111.644 23.1722 111.645 23.1722 111.645 23.1722C 111.645 23.1722 111.646 23.1722 111.646 23.1722C 111.647 23.1722 111.647 23.1722 111.648 23.1722C 111.648 23.1722 111.649 23.1722 111.649 23.1722C 111.649 23.1722 111.65 23.1722 111.65 23.1722C 111.651 23.1722 111.651 23.1722 111.652 23.1722C 111.652 23.1722 111.652 23.1722 111.653 23.1722C 111.653 23.1722 111.654 23.1722 111.654 23.1722L 111.654 7.17217ZM 111.349 7.17828C 107.482 7.02708 104.588 7.04397 101.413 6.76157L 99.9954 22.6987C 103.678 23.0262 107.699 23.0478 110.724 23.1661L 111.349 7.17828ZM 101.417 6.76195C 97.638 6.42386 93.9182 5.27298 90.2075 3.43175L 83.0958 17.7644C 88.2462 20.32 93.8884 22.1523 99.9912 22.6983L 101.417 6.76195ZM 90.2187 3.43734C 86.9295 1.79882 83.9964 0.190547 80.4528 -1.63959L 73.1108 12.5764C 76.1582 14.1503 79.7302 16.0878 83.0845 17.7588L 90.2187 3.43734ZM 80.45 -1.64102C 74.3626 -4.78189 67.59 -7.25904 59.9773 -7.83465L 58.771 8.11981C 63.6012 8.48503 68.2603 10.0738 73.1135 12.5779L 80.45 -1.64102ZM 60.0265 -7.83078C 54.68 -8.26821 49.2971 -7.85629 44.0806 -6.61021L 47.798 8.95195C 51.3705 8.09857 55.0584 7.81622 58.7218 8.11594L 60.0265 -7.83078ZM 44.0478 -6.6023C 39.084 -5.39441 34.6398 -3.39702 30.67 -1.33686L 38.0399 12.8647C 41.4767 11.0812 44.6346 9.72182 47.8308 8.94404L 44.0478 -6.6023ZM 30.6815 -1.34284C 26.2075 0.969752 23.0697 2.85688 19.3357 4.41005L 25.4805 19.183C 30.021 17.2944 34.5998 14.6429 38.0284 12.8707L 30.6815 -1.34284ZM 19.3058 4.42256C 16.0634 5.78668 12.6175 6.62151 9.1026 6.89343L 10.3367 22.8458C 15.5601 22.4417 20.6844 21.2009 25.5104 19.1705L 19.3058 4.42256ZM 9.12749 6.89154C 7.0455 7.04607 5.08017 7.05011 2.50079 7.12339L 2.95517 23.1169C 5.0353 23.0578 7.74379 23.0382 10.3118 22.8476L 9.12749 6.89154ZM 2.49483 7.12356C 1.73916 7.1456 1.27128 7.12017 0.0357689 7.12017L 0.0357689 23.1202C 0.612551 23.1202 1.93312 23.1467 2.96113 23.1168L 2.49483 7.12356ZM -7.87973 13.9605C -7.94152 14.3822 -7.98001 14.807 -7.99503 15.2331L 7.99503 15.7968C 7.98933 15.9586 7.97472 16.1198 7.95127 16.2798L -7.87973 13.9605ZM -7.99714 15.7289C -7.86066 20.8312 -7.79105 26.3097 -7.53803 31.671L 8.44418 30.9167C 8.2012 25.7682 8.14204 20.718 7.99714 15.301L -7.99714 15.7289ZM -7.53814 31.6687C -7.25829 37.6358 -6.44154 43.4606 -5.39532 49.0995L 10.3362 46.1808C 9.3746 40.9978 8.67951 35.9345 8.44429 30.9191L -7.53814 31.6687ZM -5.39941 49.0773C -3.95869 56.9666 -1.78197 64.7057 1.10245 72.1947L 16.0333 66.444C 13.5073 59.8857 11.6016 53.1096 10.3403 46.203L -5.39941 49.0773ZM 1.10107 72.1911C 4.75985 81.7042 9.72563 90.6688 15.8565 98.8312L 28.6497 89.2221C 23.4058 82.2406 19.1611 74.5766 16.0347 66.4476L 1.10107 72.1911ZM 15.8509 98.8237C 21.1764 105.931 27.4362 112.298 34.4626 117.755L 44.2769 105.118C 38.3758 100.535 33.1223 95.1913 28.6553 89.2296L 15.8509 98.8237ZM 34.4734 117.763C 39.8221 121.903 45.7181 125.64 52.3989 128.356L 58.4231 113.533C 53.4479 111.511 48.8135 108.63 44.2661 105.11L 34.4734 117.763ZM 52.099 128.226C 54.1119 129.142 56.3902 129.284 58.4994 128.629L 53.7533 113.349C 55.3908 112.841 57.1593 112.951 58.7229 113.662L 52.099 128.226ZM 59.5444 128.222C 61.534 127.282 64.5954 125.969 67.2456 124.47L 59.3672 110.544C 57.396 111.659 55.5308 112.422 52.7082 113.756L 59.5444 128.222ZM 67.2404 124.473C 75.5606 119.774 82.7237 113.796 89.0308 107.05L 77.3428 96.1231C 71.9463 101.896 66.0369 106.777 59.3724 110.541L 67.2404 124.473ZM 89.0483 107.031C 95.0785 100.539 100.26 93.3171 104.469 85.536L 90.3959 77.9235C 86.8303 84.5152 82.439 90.6365 77.3253 96.1419L 89.0483 107.031ZM 104.465 85.5433C 108.278 78.5118 111.352 71.1092 113.637 63.4522L 98.3059 58.8757C 96.3364 65.4735 93.6873 71.8539 90.3999 77.9161L 104.465 85.5433ZM 113.62 63.5102C 115.595 57.0722 117.044 50.4866 117.952 43.8173L 102.099 41.6576C 101.307 47.4685 100.045 53.207 98.3234 58.8177L 113.62 63.5102ZM 117.957 43.7831C 118.493 39.7154 119.029 35.3987 119.283 31.0098L 103.31 30.084C 103.092 33.841 102.626 37.6561 102.094 41.6918L 117.957 43.7831ZM 119.283 31.0073C 119.58 25.8664 119.58 20.5139 119.69 15.8091L 103.695 15.4335C 103.571 20.6806 103.586 25.299 103.31 30.0865L 119.283 31.0073ZM 119.681 15.1896C 119.672 15.0292 119.661 14.8943 119.652 14.799C 119.645 14.7161 119.636 14.6313 119.635 14.6184C 119.63 14.5735 119.636 14.6249 119.64 14.6927L 103.669 15.6517C 103.685 15.918 103.706 16.1278 103.715 16.2247C 103.721 16.2828 103.719 16.2647 103.718 16.2474C 103.715 16.2178 103.709 16.1472 103.704 16.053L 119.681 15.1896Z"/>
<path id="path2_fill" fill-rule="evenodd" d="M 23.2686 24.3755C 26.125 21.8184 27.9229 18.1016 27.9229 13.9653C 27.9229 6.25244 21.6719 0 13.9619 0C 6.25098 0 0 6.25244 0 13.9653C 0 18.1011 1.79688 21.8174 4.65332 24.3745L 4.65332 41.8965L 23.2686 41.8965L 23.2686 24.3755Z"/>
<path id="path3_stroke_2x" d="M 23.2686 24.3755L 17.9326 18.415L 15.2686 20.7999L 15.2686 24.3755L 23.2686 24.3755ZM 4.65332 24.3745L 12.6533 24.3745L 12.6533 20.7989L 9.98926 18.414L 4.65332 24.3745ZM 4.65332 41.8965L -3.34668 41.8965L -3.34668 49.8965L 4.65332 49.8965L 4.65332 41.8965ZM 23.2686 41.8965L 23.2686 49.8965L 31.2686 49.8965L 31.2686 41.8965L 23.2686 41.8965ZM 19.9229 13.9653C 19.9229 15.7323 19.1651 17.3116 17.9326 18.415L 28.6045 30.336C 33.0849 26.3251 35.9229 20.4708 35.9229 13.9653L 19.9229 13.9653ZM 13.9619 8C 17.2514 8 19.9229 10.6685 19.9229 13.9653L 35.9229 13.9653C 35.9229 1.83635 26.0923 -8 13.9619 -8L 13.9619 8ZM 8 13.9653C 8 10.6689 10.6711 8 13.9619 8L 13.9619 -8C 1.83088 -8 -8 1.83599 -8 13.9653L 8 13.9653ZM 9.98926 18.414C 8.75741 17.3112 8 15.7327 8 13.9653L -8 13.9653C -8 20.4695 -5.16366 26.3235 -0.682617 30.335L 9.98926 18.414ZM 12.6533 41.8965L 12.6533 24.3745L -3.34668 24.3745L -3.34668 41.8965L 12.6533 41.8965ZM 23.2686 33.8965L 4.65332 33.8965L 4.65332 49.8965L 23.2686 49.8965L 23.2686 33.8965ZM 15.2686 24.3755L 15.2686 41.8965L 31.2686 41.8965L 31.2686 24.3755L 15.2686 24.3755Z"/>
</defs>
</svg>