<?xml version="1.0" encoding="utf-8"?>
<!-- Generator: Adobe Illustrator 16.0.0, SVG Export Plug-In . SVG Version: 6.00 Build 0)  -->
<!DOCTYPE svg PUBLIC "-//W3C//DTD SVG 1.1//EN" "http://www.w3.org/Graphics/SVG/1.1/DTD/svg11.dtd">
<svg version="1.1" id="Layer_1" xmlns="http://www.w3.org/2000/svg" xmlns:xlink="http://www.w3.org/1999/xlink" x="0px" y="0px"
	 width="20px" height="20px" viewBox="0 0 20 20" enable-background="new 0 0 20 20" xml:space="preserve">
<title>E489BF1F-CD45-44AA-9D69-5CB8149D1819</title>
<desc>Created with sketchtool.</desc>
<circle id="Oval" fill="#2C4FBF" cx="10" cy="10" r="10"/>
<path fill="#FFFFFF" d="M12.246,11.435c0,0,3.585-4.241,0.208-7.914c0,0-4.217,0.168-5.041,5.874c0,0-2.008,0.082-3.318,2.958
	c0,0,1.062-0.508,2.505-0.57c-0.047,0.436,0.165,0.866,0.544,1.093c-0.073,0.128-0.14,0.262-0.197,0.404
	c-0.478,1.191-0.176,2.434,0.673,2.772c0.848,0.341,1.923-0.35,2.401-1.54c0.066-0.165,0.117-0.332,0.155-0.497
	c0.392,0.093,0.797-0.034,1.067-0.314c0.481,0.52,0.937,1.168,1.342,1.977C12.587,15.677,13.682,13.17,12.246,11.435z M7.986,15.11
	c-0.664-0.266-0.921-1.197-0.614-2.13l2.557,0.953C9.517,14.857,8.663,15.382,7.986,15.11z M10.65,8.638
	c-0.831-0.31-1.253-1.235-0.944-2.066c0.31-0.831,1.236-1.253,2.067-0.943c0.831,0.31,1.254,1.235,0.944,2.066
	C12.406,8.525,11.481,8.947,10.65,8.638z"/>
</svg>
