<?xml version="1.0" encoding="utf-8"?>
<!-- Generator: Adobe Illustrator 16.0.0, SVG Export Plug-In . SVG Version: 6.00 Build 0)  -->
<!DOCTYPE svg PUBLIC "-//W3C//DTD SVG 1.1//EN" "http://www.w3.org/Graphics/SVG/1.1/DTD/svg11.dtd">
<svg version="1.1" id="Layer_1" xmlns="http://www.w3.org/2000/svg" xmlns:xlink="http://www.w3.org/1999/xlink" x="0px" y="0px"
	 width="112px" height="122px" viewBox="0 0 112 122" enable-background="new 0 0 112 122" xml:space="preserve">
<title>security</title>
<desc>Created using Figma</desc>
<path fill="none" d="M10.001,49.457c1.16,6.354,2.914,12.588,5.237,18.621c2.914,7.577,6.87,14.719,11.754,21.223
	c4.206,5.611,9.15,10.643,14.701,14.953l0,0c4.25,3.288,8.772,6.132,13.778,8.165c0.193,0.088,0.412,0.103,0.614,0.039
	c2.067-0.978,4.183-1.867,6.167-2.991c6.436-3.634,12.051-8.298,17.076-13.674c4.785-5.152,8.896-10.883,12.236-17.055l0.139,0.074
	l-0.139-0.076c3.049-5.621,5.506-11.541,7.334-17.663c1.586-5.175,2.752-10.467,3.48-15.827c0.459-3.48,0.889-6.972,1.092-10.471
	c0.247-4.264,0.24-8.546,0.34-12.82c-0.006-0.114-0.021-0.215-0.033-0.385c-0.189,0-0.359,0-0.528,0
	c-2.96-0.116-5.931-0.118-8.875-0.38c-4.244-0.38-8.265-1.661-12.069-3.549c-2.854-1.421-5.646-2.944-8.479-4.406
	c-4.697-2.424-9.607-4.17-14.951-4.575c-3.87-0.316-7.765-0.018-11.539,0.883c-3.505,0.853-6.77,2.294-9.95,3.945
	c-3.394,1.754-6.708,3.704-10.261,5.182c-3.465,1.458-7.146,2.35-10.898,2.64c-1.997,0.148-4.004,0.159-6.005,0.215
	c-0.766,0.022-1.534,0-2.313,0c-0.016,0.112-0.026,0.226-0.031,0.339C8,26.381,8.056,30.903,8.269,35.417
	C8.49,40.133,9.139,44.809,10.001,49.457z"/>
<polygon fill="none" points="41.694,104.253 37.48,109.68 41.579,104.402 "/>
<polygon fill="none" points="7.876,21.864 1.011,22.048 7.879,21.864 "/>
<polygon fill="none" points="79.398,95.857 84.35,100.484 79.467,95.919 "/>
<polygon fill="none" points="103.813,21.955 110.684,22.117 103.814,21.955 "/>
<polygon fill="none" points="102.395,45.248 109.189,46.173 102.417,45.25 "/>
<path fill="#E95328" d="M26.993,89.3c-4.885-6.504-8.84-13.646-11.754-21.223c-2.324-6.032-4.077-12.266-5.237-18.621
	c-0.862-4.647-1.512-9.323-1.733-14.04C8.056,30.903,8,26.381,7.879,21.864L1.01,22.048c0.117,4.382,0.177,9.088,0.395,13.693
	c0.24,5.117,0.94,10.113,1.837,14.95v0.001c0.001,0.006,0.002,0.013,0.003,0.019l0,0c1.238,6.769,3.105,13.407,5.58,19.833
	c0,0.002,0.001,0.003,0.001,0.004c3.142,8.167,7.405,15.863,12.667,22.872c4.574,6.104,9.951,11.572,15.986,16.26l4.214-5.427
	C36.143,99.941,31.199,94.911,26.993,89.3z"/>
<path fill="#E95328" d="M103.475,34.775c-0.203,3.499-0.634,6.991-1.093,10.471c-0.729,5.36-1.896,10.652-3.481,15.827
	c-1.826,6.122-4.284,12.042-7.334,17.663l0.14,0.076l-0.14-0.074c-3.34,6.172-7.449,11.902-12.235,17.055
	c-5.026,5.376-10.642,10.04-17.076,13.674c-1.983,1.124-4.101,2.016-6.167,2.991c-0.203,0.063-0.421,0.049-0.614-0.039
	c-5.006-2.033-9.528-4.877-13.778-8.165l0,0l-0.116,0.148l-4.099,5.277l0.009,0.008c4.524,3.5,9.508,6.664,15.139,8.986
	c0.003,0.001,0.007,0.002,0.011,0.004c0.083,0.034,0.163,0.073,0.246,0.106l0.002-0.007c1.665,0.687,3.515,0.777,5.238,0.242
	l0.461-0.145l0.437-0.206c1.709-0.808,4.338-1.937,6.615-3.224c7.145-4.036,13.297-9.17,18.711-14.963L79.4,95.855l0.066,0.063
	l4.883,4.564l0.008-0.008l0.008-0.008c5.18-5.576,9.63-11.779,13.244-18.463v-0.001c3.266-6.021,5.898-12.36,7.859-18.917h0.002
	c0.004-0.016,0.008-0.029,0.012-0.044c0.002-0.002,0.002-0.004,0.002-0.006c1.688-5.514,2.93-11.153,3.707-16.865l-6.797-0.926
	l0.022,0.002l6.772,0.923l0.002-0.015l0.002-0.015c0.461-3.494,0.922-7.202,1.14-10.971v0.001c0.255-4.416,0.255-9.013,0.351-13.054
	l-6.869-0.162C103.714,26.229,103.721,30.511,103.475,34.775z"/>
<path fill="#E95328" d="M110.676,21.584c-0.009-0.138-0.017-0.253-0.025-0.335c-0.004-0.056-0.01-0.104-0.012-0.131l-0.387-6.42
	h-6.473l0,0c-0.002,0-0.002,0-0.002,0h-0.002l0,0c-0.002,0-0.002,0-0.002,0l0,0h-0.002c0,0,0,0-0.002,0l0,0h-0.002c0,0,0,0-0.002,0
	l0,0h-0.002c0,0,0,0-0.002,0h-0.002c-0.002,0-0.002,0-0.002,0h-0.002c-0.001,0-0.001,0-0.001,0s0,0-0.002,0s-0.002,0-0.002,0
	s0,0-0.002,0h-0.001c0,0,0,0-0.002,0c0,0,0,0-0.001,0h-0.001c-0.001,0-0.001,0-0.001,0s0,0-0.001,0h-0.001h-0.001
	c-0.001,0-0.001,0-0.002,0c0,0,0,0-0.002,0l0,0c-0.002,0-0.002,0-0.002,0h-0.002l0,0c-0.002,0-0.002,0-0.002,0l0,0h-0.002l0,0
	c-0.002,0-0.002,0-0.004,0l0,0c-0.002,0-0.002,0-0.002,0h-0.002c-0.002,0-0.002,0-0.002,0s0,0-0.002,0h-0.002c0,0,0,0-0.002,0
	h-0.001c-0.002,0-0.002,0-0.002,0h-0.002h-0.001c-0.001,0-0.001,0-0.002,0h-0.001h-0.001c-0.001,0-0.001,0-0.002,0H103.7h-0.001
	c-0.001,0-0.001,0-0.002,0c0,0,0,0-0.002,0l0,0c-0.002,0-0.002,0-0.002,0s0,0-0.002,0l0,0c-0.002,0-0.002,0-0.002,0s0,0-0.002,0
	h-0.002c-0.002,0-0.002,0-0.002,0l0,0c-0.002,0-0.002,0-0.002,0s0,0-0.002,0h-0.002c-0.002,0-0.002,0-0.002,0h-0.002
	c-0.002,0-0.002,0-0.002,0c-0.001,0-0.001,0-0.001,0h-0.001h-0.001c-0.001,0-0.001,0-0.001,0c-0.001,0-0.001,0-0.002,0h-0.001
	h-0.001c-0.001,0-0.001,0-0.002,0h-0.001h-0.001c-0.001,0-0.001,0-0.001,0c-0.001,0-0.001,0-0.001,0h-0.001h-0.001
	c-0.001,0-0.001,0-0.001,0c-0.003,0-0.003,0-0.003,0l0,0c-0.002,0-0.002,0-0.002,0s0,0-0.002,0h-0.002c-0.002,0-0.002,0-0.002,0
	s0,0-0.002,0s-0.002,0-0.002,0l0,0h-0.002c-0.002,0-0.002,0-0.004,0l0,0h-0.002l0,0c-0.002,0-0.002,0-0.003,0h-0.001h-0.001
	c-0.001,0-0.001,0-0.002,0c0,0,0,0-0.001,0h-0.001c-0.001,0-0.001,0-0.001,0c-0.001,0-0.001,0-0.001,0s0,0-0.001,0h-0.001h-0.001
	c-0.001,0-0.001,0-0.002,0c0,0,0,0-0.002,0h-0.001c-0.002,0-0.002,0-0.002,0s0,0-0.003,0l0,0c0,0,0,0-0.002,0h-0.002
	c-0.002,0-0.002,0-0.002,0s0,0-0.002,0H103.6c-0.002,0-0.002,0-0.002,0h-0.002h0.004c0,0,0,0-0.002,0l0,0h-0.002l0,0
	c-0.002,0-0.002,0-0.003,0c0,0,0,0-0.001,0h-0.001h-0.001c0,0,0,0-0.001,0c0,0,0,0-0.001,0h-0.001h-0.001c-0.002,0-0.002,0-0.002,0
	s0,0-0.001,0h-0.002c-0.002,0-0.002,0-0.002,0s0,0-0.001,0h-0.002c-0.002,0-0.002,0-0.002,0s0,0-0.002,0h-0.002
	c-0.002,0-0.002,0-0.002,0s0,0-0.002,0l0,0c-0.002,0-0.002,0-0.002,0s0,0-0.002,0l0,0h-0.002l0,0c0,0,0,0-0.002,0l0,0h-0.002l0,0
	c-0.002,0-0.002,0-0.002,0l0,0c0,0,0,0-0.002,0l0,0h-0.002c-0.001,0-0.001,0-0.001,0c-0.002,0-0.002,0-0.002,0s0,0-0.001,0h-0.002
	c-0.002,0-0.002,0-0.002,0s0,0-0.001,0h-0.002c-0.002,0-0.002,0-0.002,0s0,0-0.002,0h-0.001c-0.002,0-0.002,0-0.002,0s0,0-0.002,0
	h-0.001h-0.001c-0.002,0-0.002,0-0.002,0s0,0-0.002,0l0,0h-0.002l0,0c0,0,0,0-0.002,0l0,0h-0.002l0,0c-0.002,0-0.002,0-0.002,0l0,0
	c0,0,0,0-0.002,0l0,0h-0.002l0,0c-0.002,0-0.002,0-0.002,0h-0.002c-0.003,0-0.003,0-0.003,0s0,0-0.002,0h-0.001
	c-0.002,0-0.002,0-0.002,0s0,0-0.002,0h-0.001c-0.002,0-0.002,0-0.002,0s0,0-0.002,0h-0.002c-0.001,0-0.001,0-0.001,0
	c-0.001,0-0.001,0-0.001,0c-0.001,0-0.001,0-0.002,0c0,0,0,0-0.001,0h-0.002l0,0c-0.002,0-0.002,0-0.002,0s0,0-0.002,0l0,0h-0.002
	l0,0c0,0,0,0-0.002,0l0,0h-0.002l0,0c-0.002,0-0.002,0-0.002,0s0,0-0.002,0c0,0,0,0-0.002,0h-0.002l0,0c0,0,0,0-0.002,0h-0.003
	c-0.002,0-0.002,0-0.002,0s0,0-0.001,0h-0.002c-0.002,0-0.002,0-0.002,0c-0.001,0-0.001,0-0.001,0s0,0-0.001,0h-0.001h-0.001
	c-0.001,0-0.001,0-0.001,0c-0.001,0-0.001,0-0.002,0h-0.001h-0.001h-0.001c-0.001,0-0.001,0-0.001,0c-0.001,0-0.001,0-0.003,0l0,0
	h-0.002l0,0c-0.002,0-0.002,0-0.004,0l0,0h-0.002c-0.002,0-0.002,0-0.002,0s0,0-0.002,0h-0.002c-0.002,0-0.002,0-0.002,0
	s0,0-0.002,0l0,0c-0.002,0-0.002,0-0.002,0s0,0-0.003,0c0,0,0,0-0.001,0h-0.001h-0.001c-0.001,0-0.001,0-0.001,0
	c-0.001,0-0.001,0-0.002,0c0,0,0,0-0.001,0h-0.001c-0.001,0-0.001,0-0.001,0c-0.001,0-0.001,0-0.001,0c-0.001,0-0.001,0-0.002,0
	c0,0,0,0-0.001,0h-0.001c-0.001,0-0.001,0-0.001,0c-0.001,0-0.001,0-0.002,0c0,0,0,0-0.001,0c0,0,0,0-0.001,0H103.4
	c-0.002,0-0.002,0-0.002,0s0,0-0.002,0h-0.002l0,0c-0.002,0-0.002,0-0.002,0s0,0-0.002,0h-0.002c-0.002,0-0.002,0-0.002,0
	s0,0-0.002,0h-0.002l0,0c-0.002,0-0.002,0-0.002,0c-0.001,0-0.001,0-0.002,0c0,0,0,0-0.001,0h-0.001c-0.001,0-0.001,0-0.001,0
	c-0.001,0-0.001,0-0.001,0c-0.001,0-0.001,0-0.002,0c0,0,0,0-0.001,0h-0.001c-3.246-0.124-5.703-0.114-8.389-0.352l0,0
	c-3.245-0.29-6.44-1.279-9.627-2.86l0,0C82.533,10.08,80.018,8.7,76.977,7.13l-0.002-0.001c-5.217-2.692-11.022-4.815-17.543-5.315
	V1.812c-0.012,0-0.021-0.001-0.033-0.002c-0.004,0-0.006,0-0.008-0.001l0,0c-4.58-0.37-9.188-0.016-13.654,1.051l-0.015,0.003
	l-0.014,0.003c-4.264,1.038-8.081,2.753-11.49,4.523c-3.837,1.984-6.531,3.604-9.735,4.936l-0.013,0.005l-0.013,0.005
	c-2.783,1.171-5.741,1.888-8.758,2.122c-1.782,0.132-3.467,0.136-5.675,0.198h-0.005c-0.649,0.019-1.051-0.003-2.112-0.003H1.973
	l-0.861,5.875c-0.053,0.362-0.086,0.727-0.099,1.093l-0.008,0.213l0.006,0.213l6.866-0.184H7.88
	c0.004-0.113,0.015-0.227,0.031-0.339c0.778,0,1.546,0.022,2.313,0c2.001-0.057,4.008-0.067,6.005-0.215
	c3.753-0.29,7.433-1.182,10.898-2.64c3.553-1.478,6.868-3.427,10.261-5.182c3.181-1.65,6.445-3.092,9.95-3.945
	c3.774-0.901,7.669-1.2,11.539-0.883c5.344,0.404,10.254,2.15,14.951,4.575c2.831,1.462,5.624,2.985,8.479,4.406
	c3.805,1.888,7.825,3.169,12.069,3.549c2.944,0.262,5.915,0.264,8.875,0.38c0.169,0,0.339,0,0.528,0
	c0.012,0.17,0.027,0.271,0.033,0.385h0.002l6.867,0.162l0.006-0.267L110.676,21.584z"/>
<path fill="none" d="M158.391,51.004l2.664,2.385v3.576v9.521h2.615v-9.521V53.39l2.664-2.385c1.232-1.104,1.99-2.683,1.99-4.45
	c0-3.297-2.672-5.965-5.961-5.965c-3.291,0-5.963,2.669-5.963,5.965C156.4,48.323,157.158,49.901,158.391,51.004z"/>
<path fill="#E95328" d="M56.001,43.052c3.287,0,5.961,2.676,5.961,5.965c0,1.72-0.707,3.301-1.99,4.451
	c-1.694,1.518-2.664,3.685-2.664,5.959v9.521h-2.614v-9.522c0-2.275-0.97-4.444-2.665-5.961c-1.283-1.148-1.988-2.728-1.988-4.448
	C50.038,45.728,52.714,43.052,56.001,43.052 M56.001,35.052c-7.711,0-13.963,6.252-13.963,13.965c0,4.136,1.797,7.852,4.654,10.409
	v17.522h18.615V59.427c2.854-2.557,4.654-6.274,4.654-10.41C69.962,41.304,63.71,35.052,56.001,35.052L56.001,35.052z"/>
</svg>
