<?xml version="1.0" encoding="UTF-8"?>
<!-- Generator: Adobe Illustrator 16.0.0, SVG Export Plug-In . SVG Version: 6.00 Build 0)  -->
<!DOCTYPE svg PUBLIC "-//W3C//DTD SVG 1.1//EN" "http://www.w3.org/Graphics/SVG/1.1/DTD/svg11.dtd">
<svg version="1.1" id="Layer_1" xmlns:dc="http://purl.org/dc/elements/1.1/" xmlns:cc="http://creativecommons.org/ns#" xmlns:svg="http://www.w3.org/2000/svg" xmlns:sodipodi="http://sodipodi.sourceforge.net/DTD/sodipodi-0.dtd" xmlns:inkscape="http://www.inkscape.org/namespaces/inkscape" xmlns:rdf="http://www.w3.org/1999/02/22-rdf-syntax-ns#" xmlns="http://www.w3.org/2000/svg" xmlns:xlink="http://www.w3.org/1999/xlink" x="0px" y="0px" width="2480px" height="2624px" viewBox="0 0 2480 2624" enable-background="new 0 0 2480 2624" xml:space="preserve">
<g transform="translate(0,-988.36218)">
	<g>
		<path fill="#FFFFFF" d="M2246.969,3477.515l-1.378-2.779c-97.688-197.148-250.026-359.414-440.547-469.254l-7.065-4.072    l6.834-4.449c24.934-16.23,50.191-34.4,75.072-54.01l2.754-2.172l2.979,1.85c100.744,62.555,191.658,139.633,270.213,229.098    c78.752,89.686,143.649,190.191,192.891,298.725l3.206,7.064H2246.969z M150.969,3477.515l3.203-7.064    c139.061-306.756,401.23-542.229,720.412-647.604c-45.319-25.205-88.239-55.045-127.731-88.813    c-42.243-36.119-80.713-76.861-114.342-121.094c-33.87-44.549-62.956-92.809-86.45-143.441    c-21.084-45.439-37.763-93.006-49.69-141.676c-13.693,44.006-40.328,83.621-76.376,113.1    c-41.975,34.328-94.902,53.232-149.032,53.232C140.853,2494.155,35,2388.269,35,2258.118v-403.815    c0-130.11,105.853-235.962,235.963-235.962c18.394,0,37.25,2.358,56.104,7.013c89.452-162.42,220.298-299.07,378.599-395.331    c80.622-49.025,167.342-86.924,257.754-112.645c93.335-26.552,190.316-40.016,288.248-40.016    c97.535,0,194.154,13.331,287.176,39.621c90.145,25.478,176.648,63.026,257.106,111.603    c158.155,95.487,289.093,231.16,378.855,392.515c12.663-1.93,23.703-2.834,34.489-2.834c130.15,0,236.035,105.886,236.035,236.037    v403.815c0,130.11-105.885,235.963-236.035,235.963c-22.951,0-45.844-3.428-68.135-10.195    c-26.77,69.645-61.858,136.195-104.33,197.867c-42.851,62.225-93.145,119.391-149.484,169.91    c-56.513,50.674-118.978,94.543-185.659,130.387c-66.958,35.99-138.122,63.857-211.576,82.852    c-10.054,40.426-33.421,76.836-66.04,102.799c-33.416,26.596-75.34,41.268-118.047,41.316    c-104.685-0.018-189.861-85.193-189.879-189.871c0.018-104.682,85.194-189.857,189.872-189.877    c43.626,0.053,86.243,15.289,120.007,42.902c32.376,26.479,55.211,63.189,64.709,103.844    c264.716-75.695,478.953-273.887,574.4-531.508c-28.492-22.09-51.543-50.193-67.34-82.012    c-69.228,234.207-246.271,424.023-475.959,509.352l-3.422,1.271l-2.254-2.873c-9.169-11.689-18.738-21.922-29.256-31.281    l-0.122-0.109l-0.115-0.117c-8.347-8.471-18.181-16.813-30.066-25.504l-8.018-5.863l9.484-2.947    c290.95-90.445,486.432-356.338,486.432-661.639c0-381.986-310.769-692.755-692.754-692.755    c-382.027,0-692.829,310.769-692.829,692.755c0,335.105,239.152,621.553,568.65,681.109l9.145,1.652l-6.418,6.721    c-7.659,8.02-15.028,17.027-21.964,26.844l21.059,5.246l-25.938,3.48c-0.33,0.045-0.654,0.105-0.978,0.168    c-6.882,10.566-12.651,20.697-17.606,30.908l-1.733,3.572l-3.872-0.879c-20.86-4.734-42.599-10.713-64.629-17.773    c-330.741,71.963-606.63,287.277-757.031,590.902l-1.377,2.779H150.969z M270.962,1703.853    c-84.363,0-150.449,66.085-150.45,150.45v403.815c0,84.406,66.085,150.524,150.45,150.524    c84.406,0,150.524-66.118,150.524-150.524v-403.815C421.486,1769.938,355.368,1703.853,270.962,1703.853z M2209.293,1703.778    c-84.364,0-150.45,66.118-150.45,150.524v403.815c0,84.365,66.086,150.45,150.45,150.45c84.404,0,150.521-66.085,150.521-150.45    v-403.815C2359.814,1769.896,2293.697,1703.778,2209.293,1703.778z M404.984,1660.263C468.952,1704.545,507,1776.734,507,1854.302    v61.943c21.348-70.163,52.54-136.832,92.968-198.62c46.373-70.875,103.637-133.454,170.201-185.997    c67.215-53.056,142.023-94.369,222.348-122.791c83.118-29.41,170.334-44.321,259.227-44.321    c162.97,0,319.013,50.087,451.26,144.847c63.628,45.591,119.947,100.351,167.396,162.757    c42.397,55.762,76.953,116.65,102.934,181.314c0.312-84.562,45.861-162.308,119.377-204.274    c-172.892-300.092-494.676-486.285-841.041-486.285C900.553,1162.875,576.55,1353.355,404.984,1660.263z"/>
		<path fill="#FFFFFF" d="M1251.668,1082.362c396.242,0,741.465,219.935,920.461,544.223c12.142-1.983,24.475-3.319,37.166-3.319    c127.328,0,231.035,103.708,231.035,231.037v403.815c0,127.329-103.707,230.963-231.035,230.963    c-25.233,0-49.443-4.209-72.194-11.727c0.358,0.119,0.673,0.324,1.032,0.441c-108.457,286.35-351.817,506.365-652.182,583.012    c-19.389,83.764-93.954,143.111-179.934,143.209c-102.096-0.018-184.855-82.777-184.873-184.873    c0.018-102.096,82.777-184.857,184.873-184.875c87.813,0.105,163.44,61.957,180.965,148.002    c270.751-75.627,488.433-277.813,584.117-539.5c-32.416-24.338-58.35-56.844-74.406-94.613    c-66.342,239.855-245.323,433.084-476.601,519.002c-8.704-11.098-18.501-21.816-29.866-31.932    c-9.438-9.578-19.849-18.113-30.677-26.031c284.087-88.311,489.947-352.994,489.947-666.413    c0-385.825-311.935-697.754-697.754-697.754c-385.821,0-697.829,311.93-697.829,697.754c0,343.049,246.865,627.125,572.761,686.03    c-9.825,10.287-18.616,21.523-26.548,33.404c0.885,0.223,1.77,0.443,2.655,0.664c-1.12,0.15-2.2,0.438-3.319,0.59    c-7.019,10.635-13.484,21.689-19.099,33.258c-22.22-5.043-44.031-11.154-65.484-18.066    c-334.913,72.447-613.612,294.77-761.763,593.852h-94.391c139.136-306.922,403.917-544.846,728.432-648.494    c-196.475-105.432-341.817-293.18-390.468-517.011c-22.534,103.922-115.187,182.146-225.728,182.146    C143.633,2489.155,40,2385.443,40,2258.118v-403.815c0-127.326,103.633-230.962,230.963-230.962    c20.293,0,39.855,2.875,58.625,7.816C507.881,1304.585,853.737,1082.362,1251.668,1082.362 M502,1952.824    c84.821-334.979,388.642-583.307,749.743-583.307c334.467,0,618.932,213.418,726.588,511.038v-26.252    c0-87.631,49.117-164.088,121.231-203.235c-167.707-294.626-484.293-493.192-847.895-493.192    c-367.893,0-687.202,203.565-853.277,503.958C460.736,1703.245,502,1774.05,502,1854.302V1952.824 M2209.293,2413.568    c86.8,0,155.521-68.647,155.521-155.45v-403.815c0-86.802-68.721-155.524-155.521-155.524c-86.803,0-155.45,68.723-155.45,155.524    v403.815C2053.843,2344.921,2122.49,2413.568,2209.293,2413.568 M270.962,2413.644c86.801,0,155.524-68.727,155.524-155.525    v-403.815c0-86.798-68.724-155.451-155.524-155.451s-155.449,68.652-155.449,155.451v403.815    C115.513,2344.916,184.16,2413.644,270.962,2413.644 M1882.98,2946.876c201.33,125.008,362.522,308.174,461.188,525.639h-94.097    c-97.845-197.465-252.325-361.707-442.53-471.365C1833.525,2984.235,1858.626,2966.069,1882.98,2946.876 M1251.668,1072.362    c-98.394,0-195.835,13.527-289.616,40.207c-90.843,25.844-177.979,63.924-258.984,113.182    c-157.961,96.055-288.714,232.138-378.536,393.856c-18.001-4.16-35.987-6.266-53.569-6.266    C138.096,1613.341,30,1721.436,30,1854.303v403.815c0,132.908,108.096,241.037,240.963,241.037    c28.201,0,55.843-4.861,82.159-14.451c25.414-9.26,48.978-22.688,70.038-39.91c32.447-26.535,57.428-61.121,72.47-99.729    c11.618,43.391,27,85.816,45.896,126.539c23.645,50.957,52.917,99.527,87.004,144.363c33.844,44.514,72.56,85.516,115.073,121.867    c36.888,31.541,76.75,59.678,118.754,83.84c-73.172,24.928-144.166,57.025-211.332,95.564    c-72.787,41.768-141.51,91.34-204.258,147.34c-62.569,55.842-119.499,118.344-169.209,185.768    c-50.132,67.998-93.177,141.355-127.939,218.039l-6.405,14.129h15.513h94.391h6.206l2.755-5.561    c149.53-301.867,423.622-516.037,752.306-587.949c21.732,6.926,43.171,12.803,63.767,17.477l7.744,1.758l3.467-7.143    c4.569-9.416,9.85-18.77,16.083-28.482l50.515-6.795l-39.22-9.768c5.503-7.328,11.249-14.135,17.167-20.332l12.836-13.441    l-18.29-3.307c-327.116-59.125-564.539-343.502-564.539-676.188c0-379.229,308.559-687.754,687.829-687.754    c379.229,0,687.754,308.525,687.754,687.754c0,303.1-194.069,567.073-482.915,656.864l-18.969,5.896l16.033,11.725    c11.666,8.531,21.301,16.701,29.457,24.979l0.23,0.234l0.244,0.217c10.293,9.16,19.663,19.18,28.646,30.633l4.506,5.744    l6.845-2.543c227.353-84.459,403.446-270.613,475.472-500.979c15.18,26.99,35.607,51.02,60.126,70.625    c-94.913,252.861-305.096,447.621-564.832,523.588c-4.808-18.395-12.233-35.883-22.144-52.117    c-11.463-18.781-25.934-35.383-43.008-49.348s-36.219-24.854-56.901-32.363c-21.251-7.717-43.544-11.643-66.259-11.67    c-26.314,0.006-51.834,5.162-75.864,15.328c-23.204,9.816-44.042,23.867-61.935,41.76c-17.893,17.893-31.942,38.73-41.759,61.936    c-10.166,24.029-15.322,49.549-15.327,75.85c0.004,26.307,5.161,51.826,15.327,75.854c9.817,23.205,23.867,44.043,41.759,61.936    c17.893,17.893,38.731,31.943,61.935,41.76c24.03,10.166,49.549,15.322,75.85,15.326c22.266-0.025,44.133-3.799,65.01-11.215    c20.338-7.225,39.232-17.719,56.158-31.189c16.926-13.473,31.391-29.529,42.996-47.727c10.818-16.967,18.893-35.404,24.043-54.887    c72.828-19.076,143.391-46.832,209.83-82.545c67.031-36.031,129.823-80.129,186.631-131.068    c56.634-50.783,107.19-108.248,150.266-170.797c41.821-60.73,76.519-126.156,103.215-194.611    c21.352,6.045,43.212,9.104,65.131,9.104c132.907,0,241.035-108.096,241.035-240.963v-403.815    c0-132.909-108.128-241.037-241.035-241.037c-9.9,0-20.361,0.784-31.803,2.39c-90.137-160.792-221.043-296.01-378.958-391.351    c-80.841-48.808-167.756-86.535-258.331-112.134C1446.74,1085.756,1349.662,1072.362,1251.668,1072.362L1251.668,1072.362z     M411.553,1658.781c171.244-303.027,492.31-490.905,840.115-490.905c342.911,0,661.623,183.477,834.217,479.483    c-66.115,39.571-109.131,107.887-116.443,183.816c-25.016-57.508-56.879-111.86-95.063-162.08    c-47.751-62.804-104.43-117.912-168.463-163.794c-64.895-46.499-136.077-82.597-211.57-107.291    c-78.086-25.542-159.71-38.493-242.603-38.493c-89.462,0-177.24,15.008-260.895,44.608    c-80.843,28.605-156.132,70.183-223.778,123.579c-66.989,52.878-124.618,115.855-171.288,187.184    c-34.893,53.331-62.948,110.267-83.783,169.942v-30.528C512,1776.601,474.626,1704.193,411.553,1658.781L411.553,1658.781z     M2209.293,2403.568c-81.561,0-145.45-63.89-145.45-145.45v-403.815c0-81.602,63.89-145.524,145.45-145.524    c81.601,0,145.521,63.922,145.521,145.524v403.815C2354.814,2339.679,2290.894,2403.568,2209.293,2403.568L2209.293,2403.568z     M270.962,2403.644c-81.561,0-145.449-63.923-145.449-145.525v-403.815c0-81.561,63.89-145.451,145.449-145.451    c81.603,0,145.524,63.89,145.524,145.451v403.815C416.486,2339.721,352.564,2403.644,270.962,2403.644L270.962,2403.644z     M1882.298,2934.683l-5.507,4.34c-24.764,19.516-49.898,37.6-74.705,53.746l-13.67,8.898l14.131,8.146    c189.663,109.346,341.316,270.881,438.564,467.141l2.755,5.561h6.205h94.097h15.519l-6.411-14.131    c-49.445-108.98-114.611-209.9-193.688-299.957c-78.881-89.834-170.17-167.234-271.332-230.047L1882.298,2934.683    L1882.298,2934.683z"/>
	</g>
</g>
</svg>