<?xml version="1.0" encoding="utf-8"?>
<!-- Generator: Adobe Illustrator 16.0.0, SVG Export Plug-In . SVG Version: 6.00 Build 0)  -->
<!DOCTYPE svg PUBLIC "-//W3C//DTD SVG 1.1//EN" "http://www.w3.org/Graphics/SVG/1.1/DTD/svg11.dtd">
<svg version="1.1" id="Layer_1" xmlns="http://www.w3.org/2000/svg" xmlns:xlink="http://www.w3.org/1999/xlink" x="0px" y="0px"
	 width="114px" height="118px" viewBox="0 0 114 118" enable-background="new 0 0 114 118" xml:space="preserve">
<title>transparent</title>
<desc>Created using Figma</desc>
<path fill="#E95328" d="M56.25,1C25.736,1,1,25.736,1,56.25c0,30.514,24.736,55.25,55.25,55.25c30.513,0,55.25-24.736,55.25-55.25
	C111.5,25.736,86.764,1,56.25,1z M56.25,104.54c-26.67,0-48.29-21.62-48.29-48.29S29.581,7.961,56.25,7.961
	c26.669,0,48.29,21.619,48.29,48.289S82.92,104.54,56.25,104.54z"/>
<path fill="#E95328" d="M112.829,111.172l-17-17c-1.563-1.563-4.095-1.563-5.657,0c-1.563,1.562-1.563,4.095,0,5.656l17,17
	c1.563,1.563,4.095,1.563,5.657,0C114.391,115.266,114.391,112.734,112.829,111.172z"/>
<path fill="#E95328" d="M59.5,20c-1.656,0-3,1.343-3,3s1.343,3,3,3c13.808,0,25,11.193,25,25c0,1.657,1.344,3,3,3
	c1.657,0,3-1.343,3-3C90.5,33.879,76.621,20,59.5,20z"/>
</svg>
