<?xml version="1.0" encoding="utf-8"?>
<!-- Generator: Adobe Illustrator 16.0.0, SVG Export Plug-In . SVG Version: 6.00 Build 0)  -->
<!DOCTYPE svg PUBLIC "-//W3C//DTD SVG 1.1//EN" "http://www.w3.org/Graphics/SVG/1.1/DTD/svg11.dtd">
<svg version="1.1" id="Layer_1" xmlns="http://www.w3.org/2000/svg" xmlns:xlink="http://www.w3.org/1999/xlink" x="0px" y="0px"
	 width="78.833px" height="64.5px" viewBox="12.667 16.167 78.833 64.5" enable-background="new 12.667 16.167 78.833 64.5"
	 xml:space="preserve">
<path fill="none" stroke="#FFFFFF" stroke-width="5" stroke-miterlimit="10" d="M81.667,37.833V22.667c0-2.209-1.791-4-4-4h-58.5
	c-2.209,0-4,1.791-4,4v51.5c0,2.209,1.791,4,4,4h58.5c2.209,0,4-1.791,4-4V59"/>
<path fill="none" stroke="#FFFFFF" stroke-width="5" stroke-miterlimit="10" d="M89,54.5c0,2.209-1.791,4-4,4H71.667
	c-2.209,0-4-1.791-4-4V41.333c0-2.209,1.791-4,4-4H85c2.209,0,4,1.791,4,4V54.5z"/>
<line fill="none" stroke="#FFFFFF" stroke-width="5" stroke-miterlimit="10" x1="31.75" y1="19.5" x2="31.75" y2="78.75"/>
<line fill="none" stroke="#FFFFFF" stroke-width="5" stroke-miterlimit="10" x1="42" y1="18.667" x2="42" y2="78.834"/>
</svg>
