<?xml version="1.0" encoding="utf-8"?>
<!-- Generator: Adobe Illustrator 16.0.0, SVG Export Plug-In . SVG Version: 6.00 Build 0)  -->
<!DOCTYPE svg PUBLIC "-//W3C//DTD SVG 1.1//EN" "http://www.w3.org/Graphics/SVG/1.1/DTD/svg11.dtd">
<svg version="1.1" id="Layer_1" xmlns="http://www.w3.org/2000/svg" xmlns:xlink="http://www.w3.org/1999/xlink" x="0px" y="0px"
	 width="129px" height="129px" viewBox="0 0 129 129" enable-background="new 0 0 129 129" xml:space="preserve">
<title>world</title>
<desc>Created using Figma</desc>
<path fill="#E95328" d="M64.5,0C28.878,0,0,28.878,0,64.5C0,100.123,28.878,129,64.5,129S129,100.123,129,64.5
	C129,28.878,100.123,0,64.5,0z M64.5,121.883c-31.692,0-57.383-25.691-57.383-57.383c0-31.692,25.691-57.383,57.383-57.383
	s57.382,25.691,57.382,57.383C121.883,96.191,96.192,121.883,64.5,121.883z"/>
<g id="Vector_7">
	<g transform="translate(-12430.5 -7330.5)">
		<path id="path2_stroke_1_" fill="#E95328" d="M123.5,68l-2-9H6.5v9"/>
	</g>
</g>
<path id="path3_stroke" fill="#E95328" d="M6,67h117v-8H6V67z"/>
<path id="path3_stroke_1_" fill="#E95328" d="M69,123V5h-8v118H69z"/>
<path fill="#E95328" d="M21.813,23.737c-1.802-1.278-4.299-0.852-5.576,0.95c-1.278,1.803-0.853,4.299,0.95,5.577L21.813,23.737z"/>
<path fill="#E95328" d="M116.958,33.875l-3-6.792l-4.546,1.746c-40.06,17.333-75.322,3.61-87.599-5.092l-4.626,6.526
	c14.057,9.964,52.261,24.575,95.401,5.908C114.13,35.518,116.958,33.875,116.958,33.875z"/>
<path fill="#E95328" d="M21.313,103.434c-1.802,1.277-4.299,0.852-5.576-0.95c-1.278-1.803-0.853-4.3,0.95-5.577L21.313,103.434z"/>
<path fill="#E95328" d="M56.264,8.315c1.831-1.236,2.314-3.722,1.078-5.553c-1.236-1.831-3.722-2.313-5.553-1.078L56.264,8.315z"/>
<path fill="#E95328" d="M51.788,1.685c-5.832,3.937-11.413,11.393-15.824,20.531c-4.461,9.24-7.927,20.609-9.265,32.811
	c-2.677,24.421,3.161,51.614,27.204,72.493l5.246-5.039c-21.557-18.721-26.97-44.027-24.497-66.582
	c1.237-11.286,4.446-21.773,8.517-30.205c4.12-8.534,8.927-14.565,13.095-17.378L51.788,1.685z"/>
<path fill="#E95328" d="M74.237,9.315c-1.831-1.236-2.313-3.722-1.077-5.553c1.235-1.831,3.722-2.313,5.553-1.078L74.237,9.315z"/>
<path fill="#E95328" d="M78.713,2.685c5.808,3.92,11.389,11.225,15.809,20.188c4.467,9.056,7.939,20.181,9.279,32.144
	c2.684,23.961-3.182,51.642-27.203,72.502l-5.246-6.039C92.93,102.741,98.316,77.922,95.85,55.908
	c-1.234-11.024-4.438-21.255-8.502-29.496c-4.11-8.333-8.918-14.266-13.11-17.096L78.713,2.685z"/>
<path fill="#E95328" d="M112.089,90.999"/>
<path fill="#E95328" d="M112.089,90.999l4.099,2.032l-2.049,7.156l-5.227-1.847c-0.445-0.192-0.89-0.381-1.334-0.565
	c-39.506-16.464-74.124-2.948-86.265,5.658l-4.626-6.527c13.931-9.875,51.581-24.314,94.25-6.397
	C111.321,90.67,111.705,90.833,112.089,90.999"/>
</svg>
