<?xml version="1.0" encoding="utf-8"?>
<!-- Generator: Adobe Illustrator 16.0.0, SVG Export Plug-In . SVG Version: 6.00 Build 0)  -->
<!DOCTYPE svg PUBLIC "-//W3C//DTD SVG 1.1//EN" "http://www.w3.org/Graphics/SVG/1.1/DTD/svg11.dtd">
<svg version="1.1" id="Layer_1" xmlns="http://www.w3.org/2000/svg" xmlns:xlink="http://www.w3.org/1999/xlink" x="0px" y="0px"
	 width="129px" height="129px" viewBox="0 0 129 129" enable-background="new 0 0 129 129" xml:space="preserve">
<title>zerofee</title>
<desc>Created using Figma</desc>
<path fill="#E95328" d="M64.5,0C28.878,0,0,28.878,0,64.5C0,100.123,28.878,129,64.5,129S129,100.123,129,64.5
	C129,28.878,100.123,0,64.5,0z M64.5,121.883c-31.692,0-57.383-25.691-57.383-57.383c0-31.692,25.691-57.383,57.383-57.383
	s57.382,25.691,57.382,57.383C121.883,96.191,96.192,121.883,64.5,121.883z"/>
<path fill="#E95328" d="M60.161,40.918C58.122,38.973,55.426,38,52.075,38c-3.305,0-5.977,0.984-8.016,2.953
	C42.02,42.898,41,45.441,41,48.582v2.496c0,3.281,1.02,5.895,3.059,7.84c2.063,1.922,4.758,2.883,8.086,2.883
	c3.305,0,5.977-0.961,8.016-2.883s3.059-4.465,3.059-7.629v-2.531C63.219,45.453,62.2,42.84,60.161,40.918z M56.434,51.184
	c0,1.453-0.387,2.613-1.16,3.48s-1.816,1.301-3.129,1.301s-2.379-0.422-3.199-1.266c-0.797-0.867-1.195-2.004-1.195-3.41v-2.566
	c0-1.523,0.398-2.707,1.195-3.551c0.797-0.867,1.84-1.301,3.129-1.301c1.359,0,2.426,0.434,3.199,1.301s1.16,2.004,1.16,3.41V51.184
	z"/>
<path fill="#E95328" d="M84.629,69.711c-2.039-1.922-4.723-2.883-8.051-2.883c-3.281,0-5.953,0.973-8.016,2.918
	c-2.063,1.922-3.094,4.465-3.094,7.629v2.602c0,3.211,1.02,5.789,3.059,7.734s4.746,2.918,8.121,2.918
	c3.352,0,6.035-0.961,8.051-2.883c2.016-1.945,3.023-4.488,3.023-7.629v-2.531C87.723,74.234,86.691,71.609,84.629,69.711z
	 M80.938,80.047c0,3.164-1.43,4.746-4.289,4.746c-1.266,0-2.32-0.457-3.164-1.371s-1.266-2.016-1.266-3.305V77.48
	c0-1.477,0.398-2.637,1.195-3.48c0.797-0.867,1.852-1.301,3.164-1.301s2.367,0.434,3.164,1.301c0.797,0.844,1.195,1.969,1.195,3.375
	V80.047z"/>
<polygon fill="#E95328" points="54.149,86.094 49.192,83.422 74.188,43.414 79.145,46.086 "/>
</svg>
