<?xml version="1.0" encoding="UTF-8"?>
<svg width="24px" height="24px" viewBox="0 0 24 24" version="1.1" xmlns="http://www.w3.org/2000/svg" xmlns:xlink="http://www.w3.org/1999/xlink">
    <!-- Generator: Sketch 49.1 (51147) - http://www.bohemiancoding.com/sketch -->
    <title>facebook</title>
    <desc>Created with Sketch.</desc>
    <defs></defs>
    <g id="Symbols" stroke="none" stroke-width="1" fill="none" fill-rule="evenodd">
        <g id="footer" transform="translate(-28.000000, -200.000000)" fill="#6589E0" fill-rule="nonzero">
            <g id="Group-8" transform="translate(28.000000, 46.000000)">
                <path d="M11.8794062,154.000607 C5.25248709,154.067207 -0.0657649882,159.493263 0.00061468521,166.120188 C0.0669943586,172.747113 5.4928704,178.065548 12.119794,177.999389 C18.7467175,177.933231 24.0653313,172.507529 23.9993935,165.8806 C23.9677262,162.697954 22.6729732,159.658258 20.3999998,157.430293 C18.1270264,155.202328 15.062048,153.968621 11.8794062,154.000607 Z M15.9994019,161.000603 L14.6394033,161.000603 C13.4594046,161.000603 12.9994051,161.230603 12.9994051,162.050602 L12.9994051,164.000601 L15.9994019,164.000601 L15.6294023,167.000599 L12.9994051,167.000599 L12.9994051,174.000596 L9.99940822,174.000596 L9.99940822,167.000599 L7.99941033,167.000599 L7.99941033,164.000601 L9.99940822,164.000601 L9.99940822,161.770602 C9.91140633,160.753405 10.2745429,159.748877 10.9926362,159.023083 C11.7107294,158.297288 12.7113261,157.923457 13.7294043,158.000605 C14.4880674,157.995517 15.2462797,158.038939 15.9994019,158.130604 L15.9994019,161.000603 Z" id="facebook"></path>
            </g>
        </g>
    </g>
</svg>