<?xml version="1.0" encoding="UTF-8"?>
<svg width="24px" height="24px" viewBox="0 0 24 24" version="1.1" xmlns="http://www.w3.org/2000/svg" xmlns:xlink="http://www.w3.org/1999/xlink">
    <!-- Generator: Sketch 49.1 (51147) - http://www.bohemiancoding.com/sketch -->
    <title>in</title>
    <desc>Created with Sketch.</desc>
    <defs></defs>
    <g id="Symbols" stroke="none" stroke-width="1" fill="none" fill-rule="evenodd">
        <g id="footer" transform="translate(-116.000000, -200.000000)" fill="#6589E0" fill-rule="nonzero">
            <g id="Group-8" transform="translate(28.000000, 46.000000)">
                <path d="M100,178 C106.627417,178 112,172.627417 112,166 C112,159.372583 106.627417,154 100,154 C93.372583,154 88,159.372583 88,166 C88,172.627417 93.372583,178 100,178 Z M96.7,171.45 L94.4,171.45 L94.4,164.05 L96.7,164.05 L96.7,171.45 Z M95.45,163.1 C94.7320298,163.1 94.15,162.51797 94.15,161.8 C94.15,161.08203 94.7320298,160.5 95.45,160.5 C95.8124998,160.468952 96.1712557,160.592424 96.4378657,160.839991 C96.7044758,161.087557 96.8541475,161.436197 96.85,161.8 C96.8639556,162.166801 96.7172636,162.521453 96.4482794,162.771224 C96.1792951,163.020995 95.8147642,163.141051 95.45,163.1 Z M106,171.45 L103.3,171.45 L103.3,167.6 C103.3,166.6 102.9,165.9 102,165.9 C101.433348,165.900601 100.930298,166.262796 100.75,166.8 C100.706408,166.996839 100.68959,167.198661 100.7,167.4 L100.7,171.4 L98.1,171.4 C98.1,171.4 98.15,164.6 98.1,164 L100.7,164 L100.7,165.15 C101.151951,164.315097 102.053581,163.825081 103,163.9 C104.65,163.9 106,165 106,167.25 L106,171.45 Z" id="in"></path>
            </g>
        </g>
    </g>
</svg>