<?xml version="1.0" encoding="UTF-8"?>
<svg width="24px" height="24px" viewBox="0 0 24 24" version="1.1" xmlns="http://www.w3.org/2000/svg" xmlns:xlink="http://www.w3.org/1999/xlink">
    <!-- Generator: Sketch 49.1 (51147) - http://www.bohemiancoding.com/sketch -->
    <title>medium</title>
    <desc>Created with Sketch.</desc>
    <defs></defs>
    <g id="Symbols" stroke="none" stroke-width="1" fill="none" fill-rule="evenodd">
        <g id="footer" transform="translate(-160.000000, -200.000000)" fill="#6589E0" fill-rule="nonzero">
            <g id="Group-8" transform="translate(28.000000, 46.000000)">
                <path d="M144,154 C150.627417,154 156,159.372583 156,166 C156,172.627417 150.627417,178 144,178 C137.372583,178 132,172.627417 132,166 C132,159.372583 137.372583,154 144,154 Z M138.659458,162.666316 L138.659458,168.851601 C138.697521,169.074727 138.627184,169.302652 138.469992,169.465558 L137,171.248644 L137,171.483776 L141.168245,171.483776 L141.168245,171.248644 L139.698252,169.465558 C139.539908,169.302922 139.465216,169.076499 139.49572,168.851601 L139.49572,163.502342 L143.154368,171.483776 L143.579032,171.483776 L146.721549,163.502342 L146.721549,169.863976 C146.721549,170.033794 146.721549,170.066451 146.610483,170.177486 L145.480222,171.27477 L145.480222,171.509902 L150.968193,171.509902 L150.968193,171.27477 L149.877132,170.203612 C149.780818,170.130195 149.733041,170.00953 149.753,169.890102 L149.753,162.019702 C149.733041,161.900274 149.780818,161.779609 149.877132,161.706193 L150.994326,160.635035 L150.994326,160.399902 L147.126614,160.399902 L144.369561,167.277521 L141.233578,160.399902 L137.176399,160.399902 L137.176399,160.635035 L138.483059,162.209115 C138.611335,162.324734 138.676845,162.494528 138.659458,162.666316 Z" id="medium"></path>
            </g>
        </g>
    </g>
</svg>