<?xml version="1.0" encoding="UTF-8"?>
<svg width="24px" height="24px" viewBox="0 0 24 24" version="1.1" xmlns="http://www.w3.org/2000/svg" xmlns:xlink="http://www.w3.org/1999/xlink">
    <!-- Generator: Sketch 49.1 (51147) - http://www.bohemiancoding.com/sketch -->
    <title>telegram</title>
    <desc>Created with Sketch.</desc>
    <defs></defs>
    <g id="Symbols" stroke="none" stroke-width="1" fill="none" fill-rule="evenodd">
        <g id="footer" transform="translate(-204.000000, -200.000000)" fill="#6589E0" fill-rule="nonzero">
            <g id="Group-8" transform="translate(28.000000, 46.000000)">
                <path d="M199.04,161.344 C199.664,162.832 200,164.368 200,166 C200,167.632 199.664,169.168 199.04,170.656 C198.416,172.144 197.552,173.392 196.496,174.496 C195.44,175.552 194.144,176.416 192.656,177.04 C191.168,177.664 189.632,178 188,178 C186.368,178 184.832,177.664 183.344,177.04 C181.856,176.416 180.608,175.552 179.504,174.496 C178.448,173.44 177.584,172.144 176.96,170.656 C176.336,169.168 176,167.632 176,166 C176,164.368 176.336,162.832 176.96,161.344 C177.584,159.856 178.448,158.608 179.504,157.504 C180.56,156.448 181.856,155.584 183.344,154.96 C184.832,154.336 186.368,154 188,154 C189.632,154 191.168,154.336 192.656,154.96 C194.144,155.584 195.392,156.448 196.496,157.504 C197.552,158.608 198.368,159.904 199.04,161.344 Z M191.888,171.52 L193.856,162.256 C193.952,161.872 193.904,161.584 193.712,161.392 C193.52,161.2 193.328,161.2 193.04,161.296 L181.472,165.76 C181.232,165.856 181.04,165.952 180.944,166.096 C180.848,166.24 180.848,166.336 180.896,166.432 C180.944,166.528 181.088,166.624 181.328,166.672 L184.304,167.584 L191.168,163.264 C191.36,163.12 191.504,163.12 191.6,163.168 C191.648,163.216 191.648,163.264 191.552,163.36 L185.984,168.448 L185.744,171.52 C185.936,171.52 186.128,171.424 186.368,171.232 L187.808,169.84 L190.784,172.048 C191.408,172.384 191.744,172.192 191.888,171.52 Z" id="telegram"></path>
            </g>
        </g>
    </g>
</svg>