<?xml version="1.0" encoding="UTF-8"?>
<svg width="24px" height="24px" viewBox="0 0 24 24" version="1.1" xmlns="http://www.w3.org/2000/svg" xmlns:xlink="http://www.w3.org/1999/xlink">
    <!-- Generator: Sketch 49.1 (51147) - http://www.bohemiancoding.com/sketch -->
    <title>twitter</title>
    <desc>Created with Sketch.</desc>
    <defs></defs>
    <g id="Symbols" stroke="none" stroke-width="1" fill="none" fill-rule="evenodd">
        <g id="footer" transform="translate(-72.000000, -200.000000)" fill="#6589E0" fill-rule="nonzero">
            <g id="Group-8" transform="translate(28.000000, 46.000000)">
                <path d="M56,154 C49.372583,154 44,159.372583 44,166 C44,172.627417 49.372583,178 56,178 C62.627417,178 68,172.627417 68,166 C68,159.372583 62.627417,154 56,154 Z M61.66,163.1 C61.66,163.23 61.66,163.35 61.66,163.48 C61.6623747,166.51347 60.0096807,169.306611 57.349641,170.764738 C54.6896014,172.222865 51.4459741,172.113689 48.89,170.48 C49.1231291,170.493807 49.3568709,170.493807 49.59,170.48 C50.9027379,170.481299 52.1777618,170.041028 53.21,169.23 C51.9670578,169.212385 50.8715264,168.409798 50.48,167.23 C50.6613584,167.263887 50.8455039,167.280628 51.03,167.28 C51.3,167.28 50.82,167.28 51.03,167.18 C49.74,166.91 48,165.74 48,164.32 C48.6724747,164.495235 49.3580564,164.61563 50.05,164.68 C49.3379697,164.087233 48.9856618,163.166686 49.12,162.25 C49.1780129,161.707684 49.3780788,161.190272 49.7,160.75 C51.228343,162.559388 53.4437497,163.647149 55.81,163.75 C55.784469,163.527396 55.784469,163.302604 55.81,163.08 C55.8164981,161.877798 56.5542942,160.800679 57.67294,160.360268 C58.7915859,159.919856 60.0656657,160.204898 60.89,161.08 C61.5458504,160.95078 62.1748649,160.710672 62.75,160.37 C62.5270594,161.058063 62.0566889,161.638899 61.43,162 C62.0097315,161.930922 62.5759425,161.775888 63.11,161.54 C62.7235645,162.14231 62.2324962,162.670631 61.66,163.1 Z" id="twitter"></path>
            </g>
        </g>
    </g>
</svg>